{
.appVersion = "3179";
.formatVersion = 3;
axes = (
{
name = Weight;
tag = wght;
},
{
name = Width;
tag = wdth;
}
);
classes = (
{
code = "koKai-lao
khoKhai-lao
khoKhuay-lao
gha-lao
ngoNgu-lao
coCok-lao
cha-lao
jha-lao
nya-lao
tta-lao
ttha-lao
dda-lao
ddha-lao
nna-lao
soSang-lao
nyoNyung-lao
doDek-lao
toTa-lao
thoThong-lao
thoThung-lao
dha-lao
noNok-lao
boBae-lao
poPa-lao
phoPhueng-lao
foFon-lao
phoPhu-lao
foFai-lao
bha-lao
moMa-lao
yoYa-lao
roRot-lao
loLing-lao
woWi-lao
sha-lao
ssa-lao
soSeua-lao
lla-lao
lla-lao.ss01
hoHaan-lao
oO-lao
hoHeuan-lao
hoNo-lao
hoMo-lao
khmuGo-lao
khmuNyo-lao
nyoVowel-lao

dottedCircle
";
name = laoBaseConsonants;
},
{
code = "poPa-lao
foFon-lao
foFai-lao
yoYa-lao
";
name = laoAscendingConsonants;
},
{
code = "jha-lao
ttha-lao
soSang-lao
thoThong-lao";
name = laoDescendingConsonants;
},
{
code = "oVowel-lao
ayMaiMuanVowel-lao
aiMaiMayVowel-lao ";
name = laoAscendingVowels;
},
{
code = "eVowel-lao
aeVowel-lao
oVowel-lao
ayMaiMuanVowel-lao
aiMaiMayVowel-lao";
name = laoPrebaseVowels;
},
{
code = "maiKanVowel-lao
iVowel-lao
iiVowel-lao
euVowel-lao
euuVowel-lao
maiKonVowel-lao
maiEk-lao
maiTho-lao
maiTi-lao
maiCatawa-lao
karan-lao
niggahita-lao
niggahita_maiEk-lao
niggahita_maiTho-lao
niggahita_maiTi-lao
niggahita_maiCatawa-lao
maiEk-lao.small
maiTho-lao.small
maiTi-lao.small
maiCatawa-lao.small
karan-lao.small
maiKanVowel-lao.narrow
iVowel-lao.narrow
iiVowel-lao.narrow
euVowel-lao.narrow
euuVowel-lao.narrow
maiKonVowel-lao.narrow
maiEk-lao.narrow
maiTho-lao.narrow
maiTi-lao.narrow
maiCatawa-lao.narrow
karan-lao.narrow
niggahita_maiEk-lao.right
niggahita_maiTho-lao.right
niggahita_maiTi-lao.right
niggahita_maiCatawa-lao.right
niggahita_maiEk-lao.narrow
niggahita_maiTho-lao.narrow
niggahita_maiTi-lao.narrow
niggahita_maiCatawa-lao.narrow
uVowel-lao.small
uuVowel-lao.small
maiKanVowel-lao.center
maiKonVowel-lao.center
niggahita-lao.narrow
niggahita-lao.right
yamakkan-lao
yamakkan-lao.centre
yamakkan-lao.narrow
";
name = laoAboveMarks;
},
{

glyphs = (
{
glyphname = .notdef;
lastChange = "2023-02-08 18:12:41 +0000";
layers = (
{
layerId = "64BC062E-13E4-450B-B24E-D8A474022433";
shapes = (
{
closed = 1;
nodes = (
(451,0,l),
(451,714,l),
(51,714,l),
(51,0,l)
);
},
{
closed = 1;
nodes = (
(99,666,l),
(403,666,l),
(403,48,l),
(99,48,l)
);
}
);
width = 503;
},
{
layerId = "6449CA81-A7C3-4005-93E5-765657812F1B";
shapes = (
{
closed = 1;
nodes = (
(451,0,l),
(451,714,l),
(51,714,l),
(51,0,l)
);
},
{
closed = 1;
nodes = (
(99,666,l),
(403,666,l),
(403,48,l),
(99,48,l)
);
}
);
width = 503;
},
{
layerId = "E5D3352E-10FF-4C03-AD9F-F95B1FD01257";
shapes = (
{
closed = 1;
nodes = (
(451,0,l),
(451,714,l),
(51,714,l),
(51,0,l)
);
},
{
closed = 1;
nodes = (
(99,666,l),
(403,666,l),
(403,48,l),
(99,48,l)
);
}
);
width = 503;
},
{
layerId = "009F2F33-BFE3-455D-BDCF-6F386AA465CF";
shapes = (
{
closed = 1;
nodes = (
(451,0,l),
(451,714,l),
(51,714,l),
(51,0,l)
);
},
{
closed = 1;
nodes = (
(99,666,l),
(403,666,l),
(403,48,l),
(99,48,l)
);
}
);
width = 503;
},
{
layerId = "AA55D700-EA4F-438C-81A6-FEFC4FC5520F";
shapes = (
{
closed = 1;
nodes = (
(451,0,l),
(451,714,l),
(51,714,l),
(51,0,l)
);
},
{
closed = 1;
nodes = (
(99,666,l),
(403,666,l),
(403,48,l),
(99,48,l)
);
}
);
width = 503;
},
{
layerId = "71F2606D-B934-4F95-8EC7-C80FA20C45E9";
shapes = (
{
closed = 1;
nodes = (
(451,0,l),
(451,714,l),
(51,714,l),
(51,0,l)
);
},
{
closed = 1;
nodes = (
(99,666,l),
(403,666,l),
(403,48,l),
(99,48,l)
);
}
);
width = 503;
}
);
},
{
glyphname = dottedCircle;
lastChange = "2023-02-08 18:12:41 +0000";
layers = (
{
anchors = (
{
name = bottom;
pos = (528,0);
},
{
name = top;
pos = (297,536);
},
{
name = topright;
pos = (503,536);
}
);
layerId = "64BC062E-13E4-450B-B24E-D8A474022433";
shapes = (
{
closed = 1;
nodes = (
(518,349,o),
(529,360,o),
(529,376,cs),
(529,391,o),
(518,402,o),
(503,402,cs),
(487,402,o),
(476,391,o),
(476,376,cs),
(476,360,o),
(487,349,o),
(502,349,cs)
);
},
{
closed = 1;
nodes = (
(156,107,o),
(167,118,o),
(167,133,cs),
(167,149,o),
(156,160,o),
(140,160,cs),
(125,160,o),
(114,149,o),
(114,133,cs),
(114,118,o),
(125,107,o),
(140,107,cs)
);
},
{
closed = 1;
nodes = (
(107,180,o),
(118,191,o),
(118,206,cs),
(118,222,o),
(107,233,o),
(92,233,cs),
(76,233,o),
(65,222,o),
(65,206,cs),
(65,191,o),
(76,180,o),
(92,180,cs)
);
},
{
closed = 1;
nodes = (
(228,60,o),
(239,71,o),
(239,87,cs),
(239,102,o),
(228,112,o),
(212,112,cs),
(197,112,o),
(186,101,o),
(186,85,cs),
(186,70,o),
(197,60,o),
(212,60,cs)
);
},
{
closed = 1;
nodes = (
(90,265,o),
(101,276,o),
(101,291,cs),
(101,306,o),
(90,317,o),
(75,317,cs),
(59,317,o),
(48,306,o),
(48,291,cs),
(48,276,o),
(59,265,o),
(75,265,cs)
);
},
{
closed = 1;
nodes = (
(312,42,o),
(323,53,o),
(323,69,cs),
(323,84,o),
(312,95,o),
(297,95,cs),
(282,95,o),
(271,84,o),
(271,69,cs),
(271,53,o),
(282,42,o),
(297,42,cs)
);
},
{
closed = 1;
nodes = (
(108,349,o),
(118,360,o),
(118,376,cs),
(118,391,o),
(107,402,o),
(92,402,cs),
(76,402,o),
(65,391,o),
(65,376,cs),
(65,360,o),
(77,349,o),
(93,349,cs)
);
},
{
closed = 1;
nodes = (
(398,60,o),
(408,70,o),
(408,85,cs),
(408,101,o),
(398,112,o),
(383,112,cs),
(367,112,o),
(355,101,o),
(355,85,cs),
(355,70,o),
(367,60,o),
(383,60,cs)
);
},
{
closed = 1;
nodes = (
(470,107,o),
(480,118,o),
(480,133,cs),
(480,149,o),
(470,160,o),
(455,160,cs),
(439,160,o),
(428,149,o),
(428,133,cs),
(428,118,o),
(439,107,o),
(455,107,cs)
);
},
{
closed = 1;
nodes = (
(156,422,o),
(167,433,o),
(167,448,cs),
(167,464,o),
(156,475,o),
(140,475,cs),
(125,475,o),
(114,463,o),
(114,447,cs),
(114,432,o),
(125,422,o),
(140,422,cs)
);
},
{
closed = 1;
nodes = (
(228,470,o),
(239,481,o),
(239,496,cs),
(239,512,o),
(228,523,o),
(212,523,cs),
(197,523,o),
(186,512,o),
(186,496,cs),
(186,481,o),
(197,470,o),
(212,470,cs)
);
},
{
closed = 1;
nodes = (
(518,180,o),
(529,191,o),
(529,206,cs),
(529,222,o),
(518,233,o),
(502,233,cs),
(487,233,o),
(476,222,o),
(476,206,cs),
(476,191,o),
(487,180,o),
(502,180,cs)
);
},
{
closed = 1;
nodes = (
(312,487,o),
(323,498,o),
(323,514,cs),
(323,529,o),
(312,540,o),
(297,540,cs),
(282,540,o),
(271,529,o),
(271,514,cs),
(271,498,o),
(282,487,o),
(297,487,cs)
);
},
{
closed = 1;
nodes = (
(536,265,o),
(546,276,o),
(546,291,cs),
(546,306,o),
(536,317,o),
(521,317,cs),
(505,317,o),
(494,306,o),
(494,291,cs),
(494,276,o),
(505,265,o),
(521,265,cs)
);
},
{
closed = 1;
nodes = (
(398,470,o),
(408,481,o),
(408,496,cs),
(408,512,o),
(398,523,o),
(383,523,cs),
(367,523,o),
(355,512,o),
(355,496,cs),
(355,481,o),
(367,470,o),
(383,470,cs)
);
},
{
closed = 1;
nodes = (
(470,422,o),
(480,433,o),
(480,448,cs),
(480,464,o),
(470,475,o),
(455,475,cs),
(439,475,o),
(428,464,o),
(428,448,cs),
(428,433,o),
(439,422,o),
(455,422,cs)
);
}
);
width = 594;
},
{
anchors = (
{
name = bottom;
pos = (528,0);
},
{
name = top;
pos = (297,536);
},
{
name = topright;
pos = (503,536);
}
);
layerId = "6449CA81-A7C3-4005-93E5-765657812F1B";
shapes = (
{
closed = 1;
nodes = (
(518,349,o),
(529,360,o),
(529,376,cs),
(529,391,o),
(518,402,o),
(503,402,cs),
(487,402,o),
(476,391,o),
(476,376,cs),
(476,360,o),
(487,349,o),
(502,349,cs)
);
},
{
closed = 1;
nodes = (
(156,107,o),
(167,118,o),
(167,133,cs),
(167,149,o),
(156,160,o),
(140,160,cs),
(125,160,o),
(114,149,o),
(114,133,cs),
(114,118,o),
(125,107,o),
(140,107,cs)
);
},
{
closed = 1;
nodes = (
(107,180,o),
(118,191,o),
(118,206,cs),
(118,222,o),
(107,233,o),
(92,233,cs),
(76,233,o),
(65,222,o),
(65,206,cs),
(65,191,o),
(76,180,o),
(92,180,cs)
);
},
{
closed = 1;
nodes = (
(228,60,o),
(239,71,o),
(239,87,cs),
(239,102,o),
(228,112,o),
(212,112,cs),
(197,112,o),
(186,101,o),
(186,85,cs),
(186,70,o),
(197,60,o),
(212,60,cs)
);
},
{
closed = 1;
nodes = (
(90,265,o),
(101,276,o),
(101,291,cs),
(101,306,o),
(90,317,o),
(75,317,cs),
(59,317,o),
(48,306,o),
(48,291,cs),
(48,276,o),
(59,265,o),
(75,265,cs)
);
},
{
closed = 1;
nodes = (
(312,42,o),
(323,53,o),
(323,69,cs),
(323,84,o),
(312,95,o),
(297,95,cs),
(282,95,o),
(271,84,o),
(271,69,cs),
(271,53,o),
(282,42,o),
(297,42,cs)
);
},
{
closed = 1;
nodes = (
(108,349,o),
(118,360,o),
(118,376,cs),
(118,391,o),
(107,402,o),
(92,402,cs),
(76,402,o),
(65,391,o),
(65,376,cs),
(65,360,o),
(77,349,o),
(93,349,cs)
);
},
{
closed = 1;
nodes = (
(398,60,o),
(408,70,o),
(408,85,cs),
(408,101,o),
(398,112,o),
(383,112,cs),
(367,112,o),
(355,101,o),
(355,85,cs),
(355,70,o),
(367,60,o),
(383,60,cs)
);
},
{
closed = 1;
nodes = (
(470,107,o),
(480,118,o),
(480,133,cs),
(480,149,o),
(470,160,o),
(455,160,cs),
(439,160,o),
(428,149,o),
(428,133,cs),
(428,118,o),
(439,107,o),
(455,107,cs)
);
},
{
closed = 1;
nodes = (
(156,422,o),
(167,433,o),
(167,448,cs),
(167,464,o),
(156,475,o),
(140,475,cs),
(125,475,o),
(114,463,o),
(114,447,cs),
(114,432,o),
(125,422,o),
(140,422,cs)
);
},
{
closed = 1;
nodes = (
(228,470,o),
(239,481,o),
(239,496,cs),
(239,512,o),
(228,523,o),
(212,523,cs),
(197,523,o),
(186,512,o),
(186,496,cs),
(186,481,o),
(197,470,o),
(212,470,cs)
);
},
{
closed = 1;
nodes = (
(518,180,o),
(529,191,o),
(529,206,cs),
(529,222,o),
(518,233,o),
(502,233,cs),
(487,233,o),
(476,222,o),
(476,206,cs),
(476,191,o),
(487,180,o),
(502,180,cs)
);
},
{
closed = 1;
nodes = (
(312,487,o),
(323,498,o),
(323,514,cs),
(323,529,o),
(312,540,o),
(297,540,cs),
(282,540,o),
(271,529,o),
(271,514,cs),
(271,498,o),
(282,487,o),
(297,487,cs)
);
},
{
closed = 1;
nodes = (
(536,265,o),
(546,276,o),
(546,291,cs),
(546,306,o),
(536,317,o),
(521,317,cs),
(505,317,o),
(494,306,o),
(494,291,cs),
(494,276,o),
(505,265,o),
(521,265,cs)
);
},
{
closed = 1;
nodes = (
(398,470,o),
(408,481,o),
(408,496,cs),
(408,512,o),
(398,523,o),
(383,523,cs),
(367,523,o),
(355,512,o),
(355,496,cs),
(355,481,o),
(367,470,o),
(383,470,cs)
);
},
{
closed = 1;
nodes = (
(470,422,o),
(480,433,o),
(480,448,cs),
(480,464,o),
(470,475,o),
(455,475,cs),
(439,475,o),
(428,464,o),
(428,448,cs),
(428,433,o),
(439,422,o),
(455,422,cs)
);
}
);
width = 594;
},
{
anchors = (
{
name = bottom;
pos = (528,0);
},
{
name = top;
pos = (297,536);
},
{
name = topright;
pos = (503,536);
}
);
layerId = "E5D3352E-10FF-4C03-AD9F-F95B1FD01257";
shapes = (
{
closed = 1;
nodes = (
(518,349,o),
(529,360,o),
(529,376,cs),
(529,391,o),
(518,402,o),
(503,402,cs),
(487,402,o),
(476,391,o),
(476,376,cs),
(476,360,o),
(487,349,o),
(502,349,cs)
);
},
{
closed = 1;
nodes = (
(156,107,o),
(167,118,o),
(167,133,cs),
(167,149,o),
(156,160,o),
(140,160,cs),
(125,160,o),
(114,149,o),
(114,133,cs),
(114,118,o),
(125,107,o),
(140,107,cs)
);
},
{
closed = 1;
nodes = (
(107,180,o),
(118,191,o),
(118,206,cs),
(118,222,o),
(107,233,o),
(92,233,cs),
(76,233,o),
(65,222,o),
(65,206,cs),
(65,191,o),
(76,180,o),
(92,180,cs)
);
},
{
closed = 1;
nodes = (
(228,60,o),
(239,71,o),
(239,87,cs),
(239,102,o),
(228,112,o),
(212,112,cs),
(197,112,o),
(186,101,o),
(186,85,cs),
(186,70,o),
(197,60,o),
(212,60,cs)
);
},
{
closed = 1;
nodes = (
(90,265,o),
(101,276,o),
(101,291,cs),
(101,306,o),
(90,317,o),
(75,317,cs),
(59,317,o),
(48,306,o),
(48,291,cs),
(48,276,o),
(59,265,o),
(75,265,cs)
);
},
{
closed = 1;
nodes = (
(312,42,o),
(323,53,o),
(323,69,cs),
(323,84,o),
(312,95,o),
(297,95,cs),
(282,95,o),
(271,84,o),
(271,69,cs),
(271,53,o),
(282,42,o),
(297,42,cs)
);
},
{
closed = 1;
nodes = (
(108,349,o),
(118,360,o),
(118,376,cs),
(118,391,o),
(107,402,o),
(92,402,cs),
(76,402,o),
(65,391,o),
(65,376,cs),
(65,360,o),
(77,349,o),
(93,349,cs)
);
},
{
closed = 1;
nodes = (
(398,60,o),
(408,70,o),
(408,85,cs),
(408,101,o),
(398,112,o),
(383,112,cs),
(367,112,o),
(355,101,o),
(355,85,cs),
(355,70,o),
(367,60,o),
(383,60,cs)
);
},
{
closed = 1;
nodes = (
(470,107,o),
(480,118,o),
(480,133,cs),
(480,149,o),
(470,160,o),
(455,160,cs),
(439,160,o),
(428,149,o),
(428,133,cs),
(428,118,o),
(439,107,o),
(455,107,cs)
);
},
{
closed = 1;
nodes = (
(156,422,o),
(167,433,o),
(167,448,cs),
(167,464,o),
(156,475,o),
(140,475,cs),
(125,475,o),
(114,463,o),
(114,447,cs),
(114,432,o),
(125,422,o),
(140,422,cs)
);
},
{
closed = 1;
nodes = (
(228,470,o),
(239,481,o),
(239,496,cs),
(239,512,o),
(228,523,o),
(212,523,cs),
(197,523,o),
(186,512,o),
(186,496,cs),
(186,481,o),
(197,470,o),
(212,470,cs)
);
},
{
closed = 1;
nodes = (
(518,180,o),
(529,191,o),
(529,206,cs),
(529,222,o),
(518,233,o),
(502,233,cs),
(487,233,o),
(476,222,o),
(476,206,cs),
(476,191,o),
(487,180,o),
(502,180,cs)
);
},
{
closed = 1;
nodes = (
(312,487,o),
(323,498,o),
(323,514,cs),
(323,529,o),
(312,540,o),
(297,540,cs),
(282,540,o),
(271,529,o),
(271,514,cs),
(271,498,o),
(282,487,o),
(297,487,cs)
);
},
{
closed = 1;
nodes = (
(536,265,o),
(546,276,o),
(546,291,cs),
(546,306,o),
(536,317,o),
(521,317,cs),
(505,317,o),
(494,306,o),
(494,291,cs),
(494,276,o),
(505,265,o),
(521,265,cs)
);
},
{
closed = 1;
nodes = (
(398,470,o),
(408,481,o),
(408,496,cs),
(408,512,o),
(398,523,o),
(383,523,cs),
(367,523,o),
(355,512,o),
(355,496,cs),
(355,481,o),
(367,470,o),
(383,470,cs)
);
},
{
closed = 1;
nodes = (
(470,422,o),
(480,433,o),
(480,448,cs),
(480,464,o),
(470,475,o),
(455,475,cs),
(439,475,o),
(428,464,o),
(428,448,cs),
(428,433,o),
(439,422,o),
(455,422,cs)
);
}
);
width = 594;
},
{
anchors = (
{
name = bottom;
pos = (528,0);
},
{
name = top;
pos = (297,536);
},
{
name = topright;
pos = (503,536);
}
);
layerId = "009F2F33-BFE3-455D-BDCF-6F386AA465CF";
shapes = (
{
closed = 1;
nodes = (
(518,349,o),
(529,360,o),
(529,376,cs),
(529,391,o),
(518,402,o),
(503,402,cs),
(487,402,o),
(476,391,o),
(476,376,cs),
(476,360,o),
(487,349,o),
(502,349,cs)
);
},
{
closed = 1;
nodes = (
(156,107,o),
(167,118,o),
(167,133,cs),
(167,149,o),
(156,160,o),
(140,160,cs),
(125,160,o),
(114,149,o),
(114,133,cs),
(114,118,o),
(125,107,o),
(140,107,cs)
);
},
{
closed = 1;
nodes = (
(107,180,o),
(118,191,o),
(118,206,cs),
(118,222,o),
(107,233,o),
(92,233,cs),
(76,233,o),
(65,222,o),
(65,206,cs),
(65,191,o),
(76,180,o),
(92,180,cs)
);
},
{
closed = 1;
nodes = (
(228,60,o),
(239,71,o),
(239,87,cs),
(239,102,o),
(228,112,o),
(212,112,cs),
(197,112,o),
(186,101,o),
(186,85,cs),
(186,70,o),
(197,60,o),
(212,60,cs)
);
},
{
closed = 1;
nodes = (
(90,265,o),
(101,276,o),
(101,291,cs),
(101,306,o),
(90,317,o),
(75,317,cs),
(59,317,o),
(48,306,o),
(48,291,cs),
(48,276,o),
(59,265,o),
(75,265,cs)
);
},
{
closed = 1;
nodes = (
(312,42,o),
(323,53,o),
(323,69,cs),
(323,84,o),
(312,95,o),
(297,95,cs),
(282,95,o),
(271,84,o),
(271,69,cs),
(271,53,o),
(282,42,o),
(297,42,cs)
);
},
{
closed = 1;
nodes = (
(108,349,o),
(118,360,o),
(118,376,cs),
(118,391,o),
(107,402,o),
(92,402,cs),
(76,402,o),
(65,391,o),
(65,376,cs),
(65,360,o),
(77,349,o),
(93,349,cs)
);
},
{
closed = 1;
nodes = (
(398,60,o),
(408,70,o),
(408,85,cs),
(408,101,o),
(398,112,o),
(383,112,cs),
(367,112,o),
(355,101,o),
(355,85,cs),
(355,70,o),
(367,60,o),
(383,60,cs)
);
},
{
closed = 1;
nodes = (
(470,107,o),
(480,118,o),
(480,133,cs),
(480,149,o),
(470,160,o),
(455,160,cs),
(439,160,o),
(428,149,o),
(428,133,cs),
(428,118,o),
(439,107,o),
(455,107,cs)
);
},
{
closed = 1;
nodes = (
(156,422,o),
(167,433,o),
(167,448,cs),
(167,464,o),
(156,475,o),
(140,475,cs),
(125,475,o),
(114,463,o),
(114,447,cs),
(114,432,o),
(125,422,o),
(140,422,cs)
);
},
{
closed = 1;
nodes = (
(228,470,o),
(239,481,o),
(239,496,cs),
(239,512,o),
(228,523,o),
(212,523,cs),
(197,523,o),
(186,512,o),
(186,496,cs),
(186,481,o),
(197,470,o),
(212,470,cs)
);
},
{
closed = 1;
nodes = (
(518,180,o),
(529,191,o),
(529,206,cs),
(529,222,o),
(518,233,o),
(502,233,cs),
(487,233,o),
(476,222,o),
(476,206,cs),
(476,191,o),
(487,180,o),
(502,180,cs)
);
},
{
closed = 1;
nodes = (
(312,487,o),
(323,498,o),
(323,514,cs),
(323,529,o),
(312,540,o),
(297,540,cs),
(282,540,o),
(271,529,o),
(271,514,cs),
(271,498,o),
(282,487,o),
(297,487,cs)
);
},
{
closed = 1;
nodes = (
(536,265,o),
(546,276,o),
(546,291,cs),
(546,306,o),
(536,317,o),
(521,317,cs),
(505,317,o),
(494,306,o),
(494,291,cs),
(494,276,o),
(505,265,o),
(521,265,cs)
);
},
{
closed = 1;
nodes = (
(398,470,o),
(408,481,o),
(408,496,cs),
(408,512,o),
(398,523,o),
(383,523,cs),
(367,523,o),
(355,512,o),
(355,496,cs),
(355,481,o),
(367,470,o),
(383,470,cs)
);
},
{
closed = 1;
nodes = (
(470,422,o),
(480,433,o),
(480,448,cs),
(480,464,o),
(470,475,o),
(455,475,cs),
(439,475,o),
(428,464,o),
(428,448,cs),
(428,433,o),
(439,422,o),
(455,422,cs)
);
}
);
width = 594;
},
{
anchors = (
{
name = bottom;
pos = (528,0);
},
{
name = top;
pos = (297,536);
},
{
name = topright;
pos = (503,536);
}
);
layerId = "AA55D700-EA4F-438C-81A6-FEFC4FC5520F";
shapes = (
{
closed = 1;
nodes = (
(518,349,o),
(529,360,o),
(529,376,cs),
(529,391,o),
(518,402,o),
(503,402,cs),
(487,402,o),
(476,391,o),
(476,376,cs),
(476,360,o),
(487,349,o),
(502,349,cs)
);
},
{
closed = 1;
nodes = (
(156,107,o),
(167,118,o),
(167,133,cs),
(167,149,o),
(156,160,o),
(140,160,cs),
(125,160,o),
(114,149,o),
(114,133,cs),
(114,118,o),
(125,107,o),
(140,107,cs)
);
},
{
closed = 1;
nodes = (
(107,180,o),
(118,191,o),
(118,206,cs),
(118,222,o),
(107,233,o),
(92,233,cs),
(76,233,o),
(65,222,o),
(65,206,cs),
(65,191,o),
(76,180,o),
(92,180,cs)
);
},
{
closed = 1;
nodes = (
(228,60,o),
(239,71,o),
(239,87,cs),
(239,102,o),
(228,112,o),
(212,112,cs),
(197,112,o),
(186,101,o),
(186,85,cs),
(186,70,o),
(197,60,o),
(212,60,cs)
);
},
{
closed = 1;
nodes = (
(90,265,o),
(101,276,o),
(101,291,cs),
(101,306,o),
(90,317,o),
(75,317,cs),
(59,317,o),
(48,306,o),
(48,291,cs),
(48,276,o),
(59,265,o),
(75,265,cs)
);
},
{
closed = 1;
nodes = (
(312,42,o),
(323,53,o),
(323,69,cs),
(323,84,o),
(312,95,o),
(297,95,cs),
(282,95,o),
(271,84,o),
(271,69,cs),
(271,53,o),
(282,42,o),
(297,42,cs)
);
},
{
closed = 1;
nodes = (
(108,349,o),
(118,360,o),
(118,376,cs),
(118,391,o),
(107,402,o),
(92,402,cs),
(76,402,o),
(65,391,o),
(65,376,cs),
(65,360,o),
(77,349,o),
(93,349,cs)
);
},
{
closed = 1;
nodes = (
(398,60,o),
(408,70,o),
(408,85,cs),
(408,101,o),
(398,112,o),
(383,112,cs),
(367,112,o),
(355,101,o),
(355,85,cs),
(355,70,o),
(367,60,o),
(383,60,cs)
);
},
{
closed = 1;
nodes = (
(470,107,o),
(480,118,o),
(480,133,cs),
(480,149,o),
(470,160,o),
(455,160,cs),
(439,160,o),
(428,149,o),
(428,133,cs),
(428,118,o),
(439,107,o),
(455,107,cs)
);
},
{
closed = 1;
nodes = (
(156,422,o),
(167,433,o),
(167,448,cs),
(167,464,o),
(156,475,o),
(140,475,cs),
(125,475,o),
(114,463,o),
(114,447,cs),
(114,432,o),
(125,422,o),
(140,422,cs)
);
},
{
closed = 1;
nodes = (
(228,470,o),
(239,481,o),
(239,496,cs),
(239,512,o),
(228,523,o),
(212,523,cs),
(197,523,o),
(186,512,o),
(186,496,cs),
(186,481,o),
(197,470,o),
(212,470,cs)
);
},
{
closed = 1;
nodes = (
(518,180,o),
(529,191,o),
(529,206,cs),
(529,222,o),
(518,233,o),
(502,233,cs),
(487,233,o),
(476,222,o),
(476,206,cs),
(476,191,o),
(487,180,o),
(502,180,cs)
);
},
{
closed = 1;
nodes = (
(312,487,o),
(323,498,o),
(323,514,cs),
(323,529,o),
(312,540,o),
(297,540,cs),
(282,540,o),
(271,529,o),
(271,514,cs),
(271,498,o),
(282,487,o),
(297,487,cs)
);
},
{
closed = 1;
nodes = (
(536,265,o),
(546,276,o),
(546,291,cs),
(546,306,o),
(536,317,o),
(521,317,cs),
(505,317,o),
(494,306,o),
(494,291,cs),
(494,276,o),
(505,265,o),
(521,265,cs)
);
},
{
closed = 1;
nodes = (
(398,470,o),
(408,481,o),
(408,496,cs),
(408,512,o),
(398,523,o),
(383,523,cs),
(367,523,o),
(355,512,o),
(355,496,cs),
(355,481,o),
(367,470,o),
(383,470,cs)
);
},
{
closed = 1;
nodes = (
(470,422,o),
(480,433,o),
(480,448,cs),
(480,464,o),
(470,475,o),
(455,475,cs),
(439,475,o),
(428,464,o),
(428,448,cs),
(428,433,o),
(439,422,o),
(455,422,cs)
);
}
);
width = 594;
},
{
anchors = (
{
name = bottom;
pos = (528,0);
},
{
name = top;
pos = (297,536);
},
{
name = topright;
pos = (503,536);
}
);
layerId = "71F2606D-B934-4F95-8EC7-C80FA20C45E9";
shapes = (
{
closed = 1;
nodes = (
(518,349,o),
(529,360,o),
(529,376,cs),
(529,391,o),
(518,402,o),
(503,402,cs),
(487,402,o),
(476,391,o),
(476,376,cs),
(476,360,o),
(487,349,o),
(502,349,cs)
);
},
{
closed = 1;
nodes = (
(156,107,o),
(167,118,o),
(167,133,cs),
(167,149,o),
(156,160,o),
(140,160,cs),
(125,160,o),
(114,149,o),
(114,133,cs),
(114,118,o),
(125,107,o),
(140,107,cs)
);
},
{
closed = 1;
nodes = (
(107,180,o),
(118,191,o),
(118,206,cs),
(118,222,o),
(107,233,o),
(92,233,cs),
(76,233,o),
(65,222,o),
(65,206,cs),
(65,191,o),
(76,180,o),
(92,180,cs)
);
},
{
closed = 1;
nodes = (
(228,60,o),
(239,71,o),
(239,87,cs),
(239,102,o),
(228,112,o),
(212,112,cs),
(197,112,o),
(186,101,o),
(186,85,cs),
(186,70,o),
(197,60,o),
(212,60,cs)
);
},
{
closed = 1;
nodes = (
(90,265,o),
(101,276,o),
(101,291,cs),
(101,306,o),
(90,317,o),
(75,317,cs),
(59,317,o),
(48,306,o),
(48,291,cs),
(48,276,o),
(59,265,o),
(75,265,cs)
);
},
{
closed = 1;
nodes = (
(312,42,o),
(323,53,o),
(323,69,cs),
(323,84,o),
(312,95,o),
(297,95,cs),
(282,95,o),
(271,84,o),
(271,69,cs),
(271,53,o),
(282,42,o),
(297,42,cs)
);
},
{
closed = 1;
nodes = (
(108,349,o),
(118,360,o),
(118,376,cs),
(118,391,o),
(107,402,o),
(92,402,cs),
(76,402,o),
(65,391,o),
(65,376,cs),
(65,360,o),
(77,349,o),
(93,349,cs)
);
},
{
closed = 1;
nodes = (
(398,60,o),
(408,70,o),
(408,85,cs),
(408,101,o),
(398,112,o),
(383,112,cs),
(367,112,o),
(355,101,o),
(355,85,cs),
(355,70,o),
(367,60,o),
(383,60,cs)
);
},
{
closed = 1;
nodes = (
(470,107,o),
(480,118,o),
(480,133,cs),
(480,149,o),
(470,160,o),
(455,160,cs),
(439,160,o),
(428,149,o),
(428,133,cs),
(428,118,o),
(439,107,o),
(455,107,cs)
);
},
{
closed = 1;
nodes = (
(156,422,o),
(167,433,o),
(167,448,cs),
(167,464,o),
(156,475,o),
(140,475,cs),
(125,475,o),
(114,463,o),
(114,447,cs),
(114,432,o),
(125,422,o),
(140,422,cs)
);
},
{
closed = 1;
nodes = (
(228,470,o),
(239,481,o),
(239,496,cs),
(239,512,o),
(228,523,o),
(212,523,cs),
(197,523,o),
(186,512,o),
(186,496,cs),
(186,481,o),
(197,470,o),
(212,470,cs)
);
},
{
closed = 1;
nodes = (
(518,180,o),
(529,191,o),
(529,206,cs),
(529,222,o),
(518,233,o),
(502,233,cs),
(487,233,o),
(476,222,o),
(476,206,cs),
(476,191,o),
(487,180,o),
(502,180,cs)
);
},
{
closed = 1;
nodes = (
(312,487,o),
(323,498,o),
(323,514,cs),
(323,529,o),
(312,540,o),
(297,540,cs),
(282,540,o),
(271,529,o),
(271,514,cs),
(271,498,o),
(282,487,o),
(297,487,cs)
);
},
{
closed = 1;
nodes = (
(536,265,o),
(546,276,o),
(546,291,cs),
(546,306,o),
(536,317,o),
(521,317,cs),
(505,317,o),
(494,306,o),
(494,291,cs),
(494,276,o),
(505,265,o),
(521,265,cs)
);
},
{
closed = 1;
nodes = (
(398,470,o),
(408,481,o),
(408,496,cs),
(408,512,o),
(398,523,o),
(383,523,cs),
(367,523,o),
(355,512,o),
(355,496,cs),
(355,481,o),
(367,470,o),
(383,470,cs)
);
},
{
closed = 1;
nodes = (
(470,422,o),
(480,433,o),
(480,448,cs),
(480,464,o),
(470,475,o),
(455,475,cs),
(439,475,o),
(428,464,o),
(428,448,cs),
(428,433,o),
(439,422,o),
(455,422,cs)
);
}
);
width = 594;
}
);
unicode = 9676;
},
{
glyphname = uni200C;
lastChange = "2023-02-08 18:12:41 +0000";
layers = (
{
layerId = "6449CA81-A7C3-4005-93E5-765657812F1B";
shapes = (
{
closed = 1;
nodes = (
(21,-133,l),
(21,628,l),
(-21,628,l),
(-21,-133,l)
);
}
);
width = 0;
},
{
layerId = "64BC062E-13E4-450B-B24E-D8A474022433";
shapes = (
{
closed = 1;
nodes = (
(21,-133,l),
(21,628,l),
(-21,628,l),
(-21,-133,l)
);
}
);
width = 0;
},
{
layerId = "E5D3352E-10FF-4C03-AD9F-F95B1FD01257";
shapes = (
{
closed = 1;
nodes = (
(21,-133,l),
(21,628,l),
(-21,628,l),
(-21,-133,l)
);
}
);
width = 0;
},
{
layerId = "71F2606D-B934-4F95-8EC7-C80FA20C45E9";
shapes = (
{
closed = 1;
nodes = (
(21,-133,l),
(21,628,l),
(-21,628,l),
(-21,-133,l)
);
}
);
width = 0;
},
{
layerId = "009F2F33-BFE3-455D-BDCF-6F386AA465CF";
shapes = (
{
closed = 1;
nodes = (
(21,-133,l),
(21,628,l),
(-21,628,l),
(-21,-133,l)
);
}
);
width = 0;
},
{
layerId = "AA55D700-EA4F-438C-81A6-FEFC4FC5520F";
shapes = (
{
closed = 1;
nodes = (
(21,-133,l),
(21,628,l),
(-21,628,l),
(-21,-133,l)
);
}
);
width = 0;
}
);
unicode = 8204;
},
{
glyphname = uni200D;
lastChange = "2023-02-08 18:12:41 +0000";
layers = (
{
layerId = "6449CA81-A7C3-4005-93E5-765657812F1B";
shapes = (
{
closed = 1;
nodes = (
(21,-133,l),
(21,535,l),
(83,473,l),
(109,500,l),
(27,582,l),
(109,663,l),
(83,690,l),
(0,607,l),
(-83,690,l),
(-109,663,l),
(-27,582,l),
(-109,500,l),
(-83,473,l),
(-21,535,l),
(-21,-133,l)
);
}
);
width = 0;
},
{
layerId = "64BC062E-13E4-450B-B24E-D8A474022433";
shapes = (
{
closed = 1;
nodes = (
(21,-133,l),
(21,535,l),
(83,473,l),
(109,500,l),
(27,582,l),
(109,663,l),
(83,690,l),
(0,607,l),
(-83,690,l),
(-109,663,l),
(-27,582,l),
(-109,500,l),
(-83,473,l),
(-21,535,l),
(-21,-133,l)
);
}
);
width = 0;
},
{
layerId = "E5D3352E-10FF-4C03-AD9F-F95B1FD01257";
shapes = (
{
closed = 1;
nodes = (
(21,-133,l),
(21,535,l),
(83,473,l),
(109,500,l),
(27,582,l),
(109,663,l),
(83,690,l),
(0,607,l),
(-83,690,l),
(-109,663,l),
(-27,582,l),
(-109,500,l),
(-83,473,l),
(-21,535,l),
(-21,-133,l)
);
}
);
width = 0;
},
{
layerId = "71F2606D-B934-4F95-8EC7-C80FA20C45E9";
shapes = (
{
closed = 1;
nodes = (
(21,-133,l),
(21,535,l),
(83,473,l),
(109,500,l),
(27,582,l),
(109,663,l),
(83,690,l),
(0,607,l),
(-83,690,l),
(-109,663,l),
(-27,582,l),
(-109,500,l),
(-83,473,l),
(-21,535,l),
(-21,-133,l)
);
}
);
width = 0;
},
{
layerId = "009F2F33-BFE3-455D-BDCF-6F386AA465CF";
shapes = (
{
closed = 1;
nodes = (
(21,-133,l),
(21,535,l),
(83,473,l),
(109,500,l),
(27,582,l),
(109,663,l),
(83,690,l),
(0,607,l),
(-83,690,l),
(-109,663,l),
(-27,582,l),
(-109,500,l),
(-83,473,l),
(-21,535,l),
(-21,-133,l)
);
}
);
width = 0;
},
{
layerId = "AA55D700-EA4F-438C-81A6-FEFC4FC5520F";
shapes = (
{
closed = 1;
nodes = (
(21,-133,l),
(21,535,l),
(83,473,l),
(109,500,l),
(27,582,l),
(109,663,l),
(83,690,l),
(0,607,l),
(-83,690,l),
(-109,663,l),
(-27,582,l),
(-109,500,l),
(-83,473,l),
(-21,535,l),
(-21,-133,l)
);
}
);
width = 0;
}
);
unicode = 8205;
},
{
glyphname = "koKai-lao";
lastChange = "2023-03-23 08:26:39 +0000";
layers = (
{
anchors = (
{
name = bottom;
pos = (546,0);
},
{
name = top;
pos = (373,536);
},
{
name = topright;
pos = (536,536);
}
);
layerId = "64BC062E-13E4-450B-B24E-D8A474022433";
shapes = (
{
closed = 1;
nodes = (
(159,-10,o),
(187,19,o),
(187,89,cs),
(187,359,ls),
(187,425,o),
(259,531,o),
(389,531,cs),
(500,531,o),
(520,454,o),
(520,366,cs),
(520,0,l),
(546,0,l),
(546,365,ls),
(546,492,o),
(499,556,o),
(388,556,cs),
(274,556,o),
(214,489,o),
(183,427,c),
(182,427,l),
(172,480,o),
(158,519,o),
(133,556,c),
(113,543,l),
(139,505,o),
(161,449,o),
(161,391,cs),
(161,85,ls),
(161,30,o),
(143,15,o),
(108,15,cs),
(93,15,o),
(83,18,o),
(70,22,c),
(65,-2,l),
(78,-7,o),
(94,-10,o),
(110,-10,cs)
);
}
);
width = 631;
},
{
anchors = (
{
name = bottom;
pos = (532,0);
},
{
name = top;
pos = (338,536);
},
{
name = topright;
pos = (522,536);
}
);
hints = (
{
horizontal = 1;
origin = (0,37);
target = (0,30);
type = Stem;
},
{
horizontal = 1;
origin = (0,10);
target = up;
type = BottomGhost;
},
{
origin = (0,27);
target = (0,2);
type = Stem;
},
{
origin = (0,10);
target = (0,11);
type = Stem;
},
{
horizontal = 1;
origin = (0,15);
target = (0,6);
type = Stem;
},
{
horizontal = 1;
origin = (0,22);
target = down;
type = TopGhost;
}
);
layerId = "6449CA81-A7C3-4005-93E5-765657812F1B";
shapes = (
{
closed = 1;
nodes = (
(157,-10,o),
(195,33,o),
(195,106,cs),
(195,357,ls),
(195,459,o),
(265,485,o),
(326,485,cs),
(411,485,o),
(444,434,o),
(444,347,cs),
(444,0,l),
(532,0,l),
(532,353,ls),
(532,489,o),
(464,558,o),
(343,558,cs),
(278,558,o),
(218,538,o),
(172,477,c),
(169,477,l),
(157,508,o),
(134,542,o),
(116,558,c),
(52,509,l),
(80,482,o),
(107,439,o),
(107,366,cs),
(107,102,ls),
(107,71,o),
(90,60,o),
(67,60,cs),
(57,60,o),
(45,62,o),
(33,66,c),
(20,4,l),
(44,-5,o),
(70,-10,o),
(92,-10,cs)
);
}
);
width = 614;
},
{
anchors = (
{
name = bottom;
pos = (601,0);
},
{
name = top;
pos = (358,536);
},
{
name = topright;
pos = (591,536);
}
);
layerId = "E5D3352E-10FF-4C03-AD9F-F95B1FD01257";
shapes = (
{
closed = 1;
nodes = (
(249,-10,o),
(305,43,o),
(305,139,cs),
(305,351,ls),
(305,399,o),
(327,419,o),
(360,419,cs),
(395,419,o),
(409,395,o),
(409,349,cs),
(409,0,l),
(601,0,l),
(601,371,ls),
(601,479,o),
(547,563,o),
(415,563,cs),
(336,563,o),
(279,533,o),
(241,488,c),
(238,488,l),
(230,511,o),
(192,548,o),
(163,563,c),
(44,459,l),
(97,414,o),
(113,379,o),
(113,309,cs),
(113,160,ls),
(113,142,o),
(106,134,o),
(87,134,cs),
(74,134,o),
(62,138,o),
(52,142,c),
(25,20,l),
(63,0,o),
(120,-10,o),
(159,-10,cs)
);
}
);
width = 646;
},
{
anchors = (
{
name = bottom;
pos = (380,0);
},
{
name = top;
pos = (256,536);
},
{
name = topright;
pos = (373,536);
}
);
layerId = "009F2F33-BFE3-455D-BDCF-6F386AA465CF";
shapes = (
{
closed = 1;
nodes = (
(111,-10,o),
(132,19,o),
(132,89,cs),
(132,378,ls),
(132,444,o),
(178,531,o),
(259,531,cs),
(334,531,o),
(353,455,o),
(353,366,cs),
(353,0,l),
(380,0,l),
(380,365,ls),
(380,494,o),
(340,556,o),
(259,556,cs),
(191,556,o),
(151,511,o),
(126,446,c),
(125,446,l),
(120,499,o),
(109,527,o),
(91,556,c),
(70,543,l),
(89,505,o),
(105,468,o),
(105,410,cs),
(105,85,ls),
(105,30,o),
(92,15,o),
(70,15,cs),
(60,15,o),
(53,18,o),
(44,22,c),
(39,-2,l),
(50,-7,o),
(62,-10,o),
(74,-10,cs)
);
}
);
width = 439;
},
{
anchors = (
{
name = bottom;
pos = (395,0);
},
{
name = top;
pos = (247,536);
},
{
name = topright;
pos = (388,536);
}
);
layerId = "AA55D700-EA4F-438C-81A6-FEFC4FC5520F";
shapes = (
{
closed = 1;
nodes = (
(139,-10,o),
(169,33,o),
(169,104,cs),
(169,357,ls),
(169,455,o),
(204,491,o),
(246,491,cs),
(294,491,o),
(309,442,o),
(309,354,cs),
(309,0,l),
(395,0,l),
(395,360,ls),
(395,496,o),
(355,558,o),
(264,558,cs),
(217,558,o),
(176,541,o),
(146,479,c),
(144,479,l),
(136,513,o),
(119,539,o),
(104,558,c),
(41,513,l),
(68,485,o),
(83,440,o),
(83,369,cs),
(83,100,ls),
(83,65,o),
(74,55,o),
(57,55,cs),
(49,55,o),
(41,57,o),
(33,61,c),
(21,4,l),
(41,-5,o),
(68,-10,o),
(86,-10,cs)
);
}
);
width = 441;
},
{
anchors = (
{
name = bottom;
pos = (501,0);
},
{
name = top;
pos = (303,536);
},
{
name = topright;
pos = (493,536);
}
);
layerId = "71F2606D-B934-4F95-8EC7-C80FA20C45E9";
shapes = (
{
closed = 1;
nodes = (
(221,-10,o),
(267,40,o),
(267,130,cs),
(267,354,ls),
(267,416,o),
(281,439,o),
(303,439,cs),
(329,439,o),
(339,409,o),
(339,349,cs),
(339,0,l),
(501,0,l),
(501,367,ls),
(501,483,o),
(459,563,o),
(352,563,cs),
(288,563,o),
(243,535,o),
(213,486,c),
(211,486,l),
(206,514,o),
(184,543,o),
(153,563,c),
(49,474,l),
(94,435,o),
(105,397,o),
(105,326,cs),
(105,143,ls),
(105,121,o),
(101,113,o),
(85,113,cs),
(75,113,o),
(66,116,o),
(58,120,c),
(35,16,l),
(67,-1,o),
(115,-10,o),
(147,-10,cs)
);
}
);
width = 549;
}
);
unicode = 3713;
},
{
glyphname = "khoKhai-lao";
lastChange = "2023-02-08 19:58:40 +0000";
layers = (
{
anchors = (
{
name = bottom;
pos = (484,0);
},
{
name = top;
pos = (291,536);
},
{
name = topright;
pos = (471,536);
}
);
layerId = "64BC062E-13E4-450B-B24E-D8A474022433";
shapes = (
{
closed = 1;
nodes = (
(274,-10,o),
(319,69,o),
(398,69,cs),
(439,69,o),
(459,48,o),
(459,7,cs),
(459,0,l),
(485,0,l),
(485,8,ls),
(485,71,o),
(442,92,o),
(398,92,cs),
(313,92,o),
(263,15,o),
(174,15,cs),
(122,15,o),
(93,42,o),
(93,97,cs),
(93,178,o),
(155,199,o),
(272,234,cs),
(390,269,o),
(478,297,o),
(478,401,cs),
(478,487,o),
(418,556,o),
(271,556,cs),
(120,556,o),
(65,483,o),
(65,410,cs),
(65,393,o),
(68,368,o),
(75,355,c),
(100,365,l),
(95,377,o),
(93,396,o),
(93,410,cs),
(93,493,o),
(168,531,o),
(272,531,cs),
(378,531,o),
(450,491,o),
(450,401,cs),
(450,317,o),
(388,297,o),
(265,258,cs),
(138,218,o),
(65,194,o),
(65,99,cs),
(65,20,o),
(116,-10,o),
(176,-10,cs)
);
}
);
width = 544;
},
{
anchors = (
{
name = bottom;
pos = (542,0);
},
{
name = top;
pos = (320,536);
},
{
name = topright;
pos = (532,536);
}
);
hints = (
{
horizontal = 1;
origin = (0,51);
target = (0,14);
type = Stem;
},
{
horizontal = 1;
origin = (0,39);
target = (0,26);
type = Stem;
},
{
horizontal = 1;
origin = (0,6);
target = up;
type = BottomGhost;
},
{
origin = (0,48);
target = (0,17);
type = Stem;
},
{
origin = (0,5);
target = (0,8);
type = Stem;
}
);
layerId = "6449CA81-A7C3-4005-93E5-765657812F1B";
shapes = (
{
closed = 1;
nodes = (
(302,-10,o),
(369,59,o),
(421,59,cs),
(442,59,o),
(455,48,o),
(455,22,cs),
(455,0,l),
(542,0,l),
(542,24,ls),
(542,105,o),
(492,132,o),
(440,132,cs),
(354,132,o),
(273,60,o),
(209,60,cs),
(173,60,o),
(153,83,o),
(153,111,cs),
(153,168,o),
(236,189,o),
(315,213,cs),
(422,245,o),
(541,281,o),
(541,392,cs),
(541,480,o),
(467,558,o),
(306,558,cs),
(142,558,o),
(73,477,o),
(73,393,cs),
(73,362,o),
(82,331,o),
(104,312,c),
(174,347,l),
(164,359,o),
(157,371,o),
(157,392,cs),
(157,456,o),
(225,485,o),
(307,485,cs),
(388,485,o),
(456,457,o),
(456,393,cs),
(456,329,o),
(386,311,o),
(292,284,cs),
(186,253,o),
(68,219,o),
(68,109,cs),
(68,27,o),
(134,-10,o),
(205,-10,cs)
);
}
);
width = 615;
},
{
anchors = (
{
name = bottom;
pos = (555,0);
},
{
name = top;
pos = (316,536);
},
{
name = topright;
pos = (545,536);
}
);
layerId = "E5D3352E-10FF-4C03-AD9F-F95B1FD01257";
shapes = (
{
closed = 1;
nodes = (
(277,-10,o),
(336,35,o),
(377,35,cs),
(393,35,o),
(398,28,o),
(398,14,cs),
(398,0,l),
(555,0,l),
(555,57,ls),
(555,139,o),
(528,191,o),
(440,191,cs),
(347,191,o),
(264,134,o),
(226,134,cs),
(219,134,o),
(213,136,o),
(213,142,cs),
(213,160,o),
(278,184,o),
(348,214,cs),
(494,276,o),
(555,312,o),
(555,401,cs),
(555,494,o),
(488,563,o),
(303,563,cs),
(124,563,o),
(35,498,o),
(35,403,cs),
(35,349,o),
(64,304,o),
(97,285,c),
(235,355,l),
(226,365,o),
(221,375,o),
(221,387,cs),
(221,415,o),
(247,431,o),
(299,431,cs),
(350,431,o),
(367,416,o),
(367,394,cs),
(367,365,o),
(339,360,o),
(220,306,cs),
(94,249,o),
(25,209,o),
(25,117,cs),
(25,24,o),
(95,-10,o),
(180,-10,cs)
);
}
);
width = 595;
},
{
anchors = (
{
name = bottom;
pos = (347,0);
},
{
name = top;
pos = (208,536);
},
{
name = topright;
pos = (338,536);
}
);
layerId = "009F2F33-BFE3-455D-BDCF-6F386AA465CF";
shapes = (
{
closed = 1;
nodes = (
(210,-10,o),
(236,69,o),
(285,69,cs),
(311,69,o),
(325,47,o),
(325,7,cs),
(325,0,l),
(352,0,l),
(352,8,ls),
(352,62,o),
(329,92,o),
(288,92,cs),
(223,92,o),
(195,14,o),
(136,14,cs),
(96,14,o),
(71,50,o),
(71,107,cs),
(71,187,o),
(119,208,o),
(197,244,cs),
(279,282,o),
(343,316,o),
(343,412,cs),
(343,491,o),
(299,556,o),
(196,556,cs),
(86,556,o),
(47,481,o),
(47,411,cs),
(47,392,o),
(50,368,o),
(57,355,c),
(80,365,l),
(76,377,o),
(74,395,o),
(74,411,cs),
(74,492,o),
(125,531,o),
(196,531,cs),
(265,531,o),
(316,495,o),
(316,411,cs),
(316,337,o),
(276,310,o),
(189,268,cs),
(113,231,o),
(42,206,o),
(42,107,cs),
(42,31,o),
(84,-10,o),
(137,-10,cs)
);
}
);
width = 391;
},
{
anchors = (
{
name = bottom;
pos = (376,0);
},
{
name = top;
pos = (219,536);
},
{
name = topright;
pos = (369,536);
}
);
layerId = "AA55D700-EA4F-438C-81A6-FEFC4FC5520F";
shapes = (
{
closed = 1;
nodes = (
(202,-10,o),
(241,60,o),
(278,60,cs),
(294,60,o),
(301,48,o),
(301,20,cs),
(301,0,l),
(376,0,l),
(376,22,ls),
(376,98,o),
(350,132,o),
(304,132,cs),
(239,132,o),
(187,62,o),
(149,62,cs),
(128,62,o),
(118,83,o),
(118,112,cs),
(118,174,o),
(164,189,o),
(226,215,cs),
(310,250,o),
(375,287,o),
(375,391,cs),
(375,481,o),
(327,558,o),
(211,558,cs),
(91,558,o),
(38,477,o),
(38,399,cs),
(38,364,o),
(49,338,o),
(67,317,c),
(131,349,l),
(125,361,o),
(122,374,o),
(122,394,cs),
(122,461,o),
(157,491,o),
(207,491,cs),
(258,491,o),
(291,460,o),
(291,398,cs),
(291,337,o),
(260,313,o),
(179,280,cs),
(102,249,o),
(34,220,o),
(34,113,cs),
(34,25,o),
(80,-10,o),
(131,-10,cs)
);
}
);
width = 415;
},
{
anchors = (
{
name = bottom;
pos = (461,0);
},
{
name = top;
pos = (268,536);
},
{
name = topright;
pos = (453,536);
}
);
layerId = "71F2606D-B934-4F95-8EC7-C80FA20C45E9";
shapes = (
{
closed = 1;
nodes = (
(238,-10,o),
(281,42,o),
(314,42,cs),
(326,42,o),
(329,34,o),
(329,16,cs),
(329,0,l),
(461,0,l),
(461,47,ls),
(461,127,o),
(441,174,o),
(369,174,cs),
(287,174,o),
(256,113,o),
(214,113,cs),
(200,113,o),
(191,120,o),
(191,133,cs),
(191,162,o),
(234,183,o),
(296,213,cs),
(412,269,o),
(461,302,o),
(461,395,cs),
(461,492,o),
(408,563,o),
(260,563,cs),
(114,563,o),
(40,493,o),
(40,404,cs),
(40,354,o),
(63,315,o),
(93,294,c),
(208,354,l),
(201,365,o),
(197,375,o),
(197,391,cs),
(197,428,o),
(217,448,o),
(251,448,cs),
(282,448,o),
(302,431,o),
(302,395,cs),
(302,351,o),
(271,343,o),
(185,300,cs),
(81,248,o),
(32,211,o),
(32,120,cs),
(32,24,o),
(87,-10,o),
(155,-10,cs)
);
}
);
width = 505;
}
);
unicode = 3714;
},
{
glyphname = "khoKhuay-lao";
lastChange = "2023-02-09 13:03:37 +0000";
layers = (
{
anchors = (
{
name = bottom;
pos = (484,0);
},
{
name = top;
pos = (293,536);
},
{
name = topright;
pos = (474,536);
}
);
layerId = "64BC062E-13E4-450B-B24E-D8A474022433";
shapes = (
{
closed = 1;
nodes = (
(233,-10,o),
(264,-5,o),
(284,2,c),
(279,27,l),
(265,22,o),
(236,15,o),
(207,15,cs),
(141,15,o),
(92,52,o),
(92,128,cs),
(92,223,o),
(168,253,o),
(228,253,cs),
(267,253,l),
(267,275,l),
(228,275,ls),
(145,275,o),
(95,322,o),
(95,398,cs),
(95,499,o),
(183,531,o),
(274,531,cs),
(372,531,o),
(458,494,o),
(458,377,cs),
(458,0,l),
(484,0,l),
(484,371,ls),
(484,501,o),
(398,556,o),
(273,556,cs),
(150,556,o),
(68,502,o),
(68,397,cs),
(68,312,o),
(122,281,o),
(156,267,c),
(156,263,l),
(124,251,o),
(65,219,o),
(65,129,cs),
(65,39,o),
(123,-10,o),
(206,-10,cs)
);
}
);
width = 569;
},
{
anchors = (
{
name = bottom;
pos = (532,0);
},
{
name = top;
pos = (316,536);
},
{
name = topright;
pos = (522,536);
}
);
hints = (
{
horizontal = 1;
origin = (0,43);
target = (0,6);
type = Stem;
},
{
horizontal = 1;
origin = (0,21);
target = (0,30);
type = Stem;
},
{
horizontal = 1;
origin = (0,25);
target = up;
type = BottomGhost;
},
{
origin = (0,25);
target = (0,26);
type = Stem;
},
{
origin = (0,33);
target = (0,18);
type = Stem;
}
);
layerId = "6449CA81-A7C3-4005-93E5-765657812F1B";
shapes = (
{
closed = 1;
nodes = (
(265,-10,o),
(302,-3,o),
(321,5,c),
(306,74,l),
(291,69,o),
(268,63,o),
(244,63,cs),
(187,63,o),
(156,97,o),
(156,150,cs),
(156,216,o),
(203,240,o),
(275,240,cs),
(295,240,l),
(295,305,l),
(275,305,ls),
(205,305,o),
(156,335,o),
(156,394,cs),
(156,453,o),
(205,485,o),
(299,485,cs),
(405,485,o),
(444,444,o),
(444,369,cs),
(444,0,l),
(532,0,l),
(532,361,ls),
(532,500,o),
(454,558,o),
(305,558,cs),
(151,558,o),
(68,496,o),
(68,397,cs),
(68,332,o),
(104,292,o),
(162,273,c),
(162,270,l),
(98,253,o),
(68,204,o),
(68,142,cs),
(68,66,o),
(113,-10,o),
(230,-10,cs)
);
}
);
width = 614;
},
{
anchors = (
{
name = bottom;
pos = (560,0);
},
{
name = top;
pos = (308,536);
},
{
name = topright;
pos = (550,536);
}
);
layerId = "E5D3352E-10FF-4C03-AD9F-F95B1FD01257";
shapes = (
{
closed = 1;
nodes = (
(254,-10,o),
(297,-3,o),
(332,9,c),
(301,141,l),
(288,137,o),
(270,134,o),
(258,134,cs),
(231,134,o),
(218,148,o),
(218,173,cs),
(218,202,o),
(236,217,o),
(266,217,cs),
(318,217,l),
(318,328,l),
(266,328,ls),
(232,328,o),
(218,349,o),
(218,371,cs),
(218,405,o),
(254,419,o),
(290,419,cs),
(337,419,o),
(368,394,o),
(368,358,cs),
(368,0,l),
(560,0,l),
(560,347,ls),
(560,500,o),
(465,563,o),
(296,563,cs),
(122,563,o),
(30,496,o),
(30,397,cs),
(30,337,o),
(63,295,o),
(117,275,c),
(117,273,l),
(54,246,o),
(30,194,o),
(30,141,cs),
(30,64,o),
(81,-10,o),
(213,-10,cs)
);
}
);
width = 605;
},
{
anchors = (
{
name = bottom;
pos = (346,0);
},
{
name = top;
pos = (208,536);
},
{
name = topright;
pos = (339,536);
}
);
layerId = "009F2F33-BFE3-455D-BDCF-6F386AA465CF";
shapes = (
{
closed = 1;
nodes = (
(168,-10,o),
(190,-5,o),
(204,2,c),
(199,27,l),
(189,22,o),
(169,15,o),
(150,15,cs),
(105,15,o),
(73,52,o),
(73,128,cs),
(73,223,o),
(123,253,o),
(166,253,cs),
(191,253,l),
(191,275,l),
(166,275,ls),
(110,275,o),
(75,322,o),
(75,400,cs),
(75,499,o),
(132,531,o),
(196,531,cs),
(266,531,o),
(319,493,o),
(319,377,cs),
(319,0,l),
(346,0,l),
(346,371,ls),
(346,501,o),
(287,556,o),
(195,556,cs),
(106,556,o),
(48,503,o),
(48,396,cs),
(48,313,o),
(83,281,o),
(110,267,c),
(110,263,l),
(83,251,o),
(46,219,o),
(46,130,cs),
(46,39,o),
(85,-10,o),
(148,-10,cs)
);
}
);
width = 405;
},
{
anchors = (
{
name = bottom;
pos = (375,0);
},
{
name = top;
pos = (216,536);
},
{
name = topright;
pos = (368,536);
}
);
layerId = "AA55D700-EA4F-438C-81A6-FEFC4FC5520F";
shapes = (
{
closed = 1;
nodes = (
(179,-10,o),
(206,-3,o),
(224,5,c),
(210,68,l),
(200,63,o),
(185,57,o),
(171,57,cs),
(139,57,o),
(121,91,o),
(121,147,cs),
(121,217,o),
(148,242,o),
(184,242,cs),
(211,242,l),
(211,301,l),
(184,301,ls),
(145,301,o),
(121,335,o),
(121,392,cs),
(121,461,o),
(156,491,o),
(204,491,cs),
(259,491,o),
(290,450,o),
(290,370,cs),
(290,0,l),
(376,0,l),
(376,362,ls),
(376,500,o),
(315,558,o),
(207,558,cs),
(97,558,o),
(36,497,o),
(36,397,cs),
(36,330,o),
(63,291,o),
(99,272,c),
(99,269,l),
(59,253,o),
(36,205,o),
(36,141,cs),
(36,62,o),
(71,-10,o),
(153,-10,cs)
);
}
);
width = 422;
},
{
anchors = (
{
name = bottom;
pos = (465,0);
},
{
name = top;
pos = (261,536);
},
{
name = topright;
pos = (457,536);
}
);
layerId = "71F2606D-B934-4F95-8EC7-C80FA20C45E9";
shapes = (
{
closed = 1;
nodes = (
(217,-10,o),
(252,-3,o),
(282,8,c),
(255,122,l),
(244,117,o),
(233,114,o),
(225,114,cs),
(206,114,o),
(194,134,o),
(194,168,cs),
(194,204,o),
(207,224,o),
(230,224,cs),
(271,224,l),
(271,321,l),
(227,321,ls),
(203,321,o),
(194,348,o),
(194,375,cs),
(194,415,o),
(213,439,o),
(246,439,cs),
(282,439,o),
(303,412,o),
(303,367,cs),
(303,0,l),
(465,0,l),
(465,352,ls),
(465,501,o),
(388,563,o),
(251,563,cs),
(109,563,o),
(36,497,o),
(36,397,cs),
(36,340,o),
(60,295,o),
(105,274,c),
(105,272,l),
(55,248,o),
(36,196,o),
(36,143,cs),
(36,64,o),
(77,-10,o),
(184,-10,cs)
);
}
);
width = 513;
}
);
unicode = 3716;
},
{
glyphname = "gha-lao";
lastChange = "2023-03-23 08:25:31 +0000";
layers = (
{
anchors = (
{
name = bottom;
pos = (576,0);
},
{
name = top;
pos = (374,536);
},
{
name = topright;
pos = (596,536);
}
);
layerId = "64BC062E-13E4-450B-B24E-D8A474022433";
shapes = (
{
closed = 1;
nodes = (
(278,-10,o),
(318,17,o),
(338,70,c),
(340,70,l),
(360,17,o),
(400,-10,o),
(459,-10,cs),
(547,-10,o),
(591,45,o),
(591,156,cs),
(591,548,l),
(565,548,l),
(565,152,ls),
(565,59,o),
(529,12,o),
(458,12,cs),
(387,12,o),
(351,54,o),
(351,137,cs),
(351,307,l),
(327,307,l),
(327,137,ls),
(327,54,o),
(291,12,o),
(220,12,cs),
(149,12,o),
(113,59,o),
(113,152,cs),
(113,239,ls),
(113,296,o),
(139,327,o),
(174,367,cs),
(212,410,o),
(225,423,o),
(225,487,cs),
(225,548,l),
(206,548,l),
(198,496,l),
(178,475,o),
(160,471,o),
(141,471,cs),
(102,471,o),
(86,487,o),
(86,548,c),
(61,548,l),
(61,528,ls),
(61,473,o),
(92,449,o),
(134,449,cs),
(165,449,o),
(186,462,o),
(198,475,c),
(201,474,l),
(201,438,o),
(192,425,o),
(153,380,cs),
(120,342,o),
(87,303,o),
(87,243,cs),
(87,156,ls),
(87,45,o),
(131,-10,o),
(219,-10,cs)
);
}
);
width = 676;
},
{
anchors = (
{
name = bottom;
pos = (646,0);
},
{
name = top;
pos = (386,536);
},
{
name = topright;
pos = (656,536);
}
);
hints = (
{
horizontal = 1;
origin = (0,62);
target = (0,24);
type = Stem;
},
{
origin = (0,12);
target = (0,9);
type = Stem;
},
{
horizontal = 1;
origin = (0,11);
target = down;
type = TopGhost;
},
{
horizontal = 1;
origin = (0,44);
target = down;
type = TopGhost;
},
{
origin = (0,58);
target = (0,28);
type = Stem;
}
);
layerId = "6449CA81-A7C3-4005-93E5-765657812F1B";
shapes = (
{
closed = 1;
nodes = (
(298,-10,o),
(340,12,o),
(371,58,c),
(375,58,l),
(406,12,o),
(448,-10,o),
(507,-10,cs),
(602,-10,o),
(656,51,o),
(656,157,cs),
(656,548,l),
(568,548,l),
(568,146,ls),
(568,91,o),
(543,63,o),
(494,63,cs),
(442,63,o),
(416,96,o),
(416,162,cs),
(416,329,l),
(330,329,l),
(330,162,ls),
(330,96,o),
(304,63,o),
(252,63,cs),
(203,63,o),
(178,91,o),
(178,146,cs),
(178,234,ls),
(178,304,o),
(205,323,o),
(236,362,cs),
(278,416,o),
(279,444,o),
(279,503,cs),
(279,548,l),
(230,548,l),
(211,507,l),
(198,496,o),
(180,491,o),
(166,491,cs),
(143,491,o),
(134,508,o),
(134,548,c),
(56,548,l),
(56,527,ls),
(56,467,o),
(90,433,o),
(138,433,cs),
(162,433,o),
(181,441,o),
(196,452,c),
(199,450,l),
(197,430,o),
(180,412,o),
(159,389,cs),
(125,350,o),
(90,314,o),
(90,236,cs),
(90,157,ls),
(90,51,o),
(144,-10,o),
(239,-10,cs)
);
}
);
width = 738;
},
{
anchors = (
{
name = bottom;
pos = (677,0);
},
{
name = top;
pos = (416,536);
},
{
name = topright;
pos = (687,536);
}
);
layerId = "E5D3352E-10FF-4C03-AD9F-F95B1FD01257";
shapes = (
{
closed = 1;
nodes = (
(304,-10,o),
(357,11,o),
(382,44,c),
(384,44,l),
(410,11,o),
(463,-10,o),
(523,-10,cs),
(627,-10,o),
(687,56,o),
(687,171,cs),
(687,553,l),
(505,553,l),
(505,171,ls),
(505,146,o),
(497,134,o),
(480,134,cs),
(463,134,o),
(455,146,o),
(455,171,cs),
(455,329,l),
(313,329,l),
(313,171,ls),
(313,146,o),
(301,134,o),
(282,134,cs),
(263,134,o),
(251,146,o),
(251,171,cs),
(251,234,ls),
(251,291,o),
(271,308,o),
(294,344,cs),
(316,379,o),
(323,399,o),
(323,466,cs),
(323,548,l),
(241,548,l),
(225,512,l),
(214,502,o),
(203,499,o),
(194,499,cs),
(175,499,o),
(167,513,o),
(167,548,c),
(39,548,l),
(39,501,ls),
(39,431,o),
(74,392,o),
(125,392,cs),
(136,392,o),
(148,394,o),
(160,398,c),
(163,397,l),
(161,382,o),
(140,362,o),
(131,352,cs),
(85,301,o),
(69,259,o),
(69,208,cs),
(69,171,ls),
(69,56,o),
(133,-10,o),
(245,-10,cs)
);
}
);
width = 737;
},
{
anchors = (
{
name = bottom;
pos = (427,0);
},
{
name = top;
pos = (272,536);
},
{
name = topright;
pos = (434,536);
}
);
layerId = "009F2F33-BFE3-455D-BDCF-6F386AA465CF";
shapes = (
{
closed = 1;
nodes = (
(198,-10,o),
(232,12,o),
(250,70,c),
(251,70,l),
(269,12,o),
(303,-10,o),
(344,-10,cs),
(406,-10,o),
(434,42,o),
(434,144,cs),
(434,548,l),
(407,548,l),
(407,140,ls),
(407,51,o),
(388,12,o),
(341,12,cs),
(287,12,o),
(263,65,o),
(263,137,cs),
(263,307,l),
(238,307,l),
(238,137,ls),
(238,65,o),
(214,12,o),
(160,12,cs),
(113,12,o),
(94,51,o),
(94,140,cs),
(94,239,ls),
(94,296,o),
(111,327,o),
(135,367,cs),
(162,411,o),
(170,423,o),
(170,487,cs),
(170,548,l),
(153,548,l),
(146,496,l),
(133,475,o),
(120,471,o),
(108,471,cs),
(83,471,o),
(72,487,o),
(72,548,c),
(48,548,l),
(48,528,ls),
(48,473,o),
(70,449,o),
(100,449,cs),
(121,449,o),
(135,462,o),
(144,475,c),
(146,474,l),
(146,438,o),
(138,425,o),
(113,380,cs),
(91,341,o),
(67,303,o),
(67,243,cs),
(67,144,ls),
(67,42,o),
(95,-10,o),
(157,-10,cs)
);
}
);
width = 493;
},
{
anchors = (
{
name = bottom;
pos = (456,0);
},
{
name = top;
pos = (288,536);
},
{
name = topright;
pos = (463,536);
}
);
layerId = "AA55D700-EA4F-438C-81A6-FEFC4FC5520F";
shapes = (
{
closed = 1;
nodes = (
(212,-10,o),
(243,15,o),
(261,60,c),
(263,60,l),
(281,15,o),
(312,-10,o),
(357,-10,cs),
(430,-10,o),
(463,54,o),
(463,157,cs),
(463,548,l),
(380,548,l),
(380,147,ls),
(380,85,o),
(367,57,o),
(339,57,cs),
(308,57,o),
(297,94,o),
(297,159,cs),
(297,326,l),
(227,326,l),
(227,159,ls),
(227,93,o),
(216,57,o),
(184,57,cs),
(156,57,o),
(144,86,o),
(144,147,cs),
(144,234,ls),
(144,305,o),
(161,324,o),
(181,363,cs),
(209,418,o),
(210,446,o),
(210,506,cs),
(210,548,l),
(166,548,l),
(153,507,l),
(144,496,o),
(133,490,o),
(124,490,cs),
(109,490,o),
(102,508,o),
(102,548,c),
(38,548,l),
(38,529,ls),
(38,469,o),
(62,436,o),
(97,436,cs),
(111,436,o),
(123,443,o),
(133,455,c),
(135,453,l),
(134,432,o),
(122,415,o),
(108,392,cs),
(83,352,o),
(61,317,o),
(61,238,cs),
(61,157,ls),
(61,54,o),
(97,-10,o),
(168,-10,cs)
);
}
);
width = 511;
},
{
anchors = (
{
name = bottom;
pos = (553,0);
},
{
name = top;
pos = (394,536);
},
{
name = topright;
pos = (563,536);
}
);
layerId = "71F2606D-B934-4F95-8EC7-C80FA20C45E9";
shapes = (
{
closed = 1;
nodes = (
(244,-10,o),
(291,13,o),
(309,48,c),
(313,48,l),
(331,13,o),
(378,-10,o),
(427,-10,cs),
(513,-10,o),
(563,60,o),
(563,172,cs),
(563,553,l),
(410,553,l),
(410,149,ls),
(410,126,o),
(403,114,o),
(390,114,cs),
(378,114,o),
(370,125,o),
(370,149,cs),
(370,329,l),
(252,329,l),
(252,149,ls),
(252,125,o),
(244,114,o),
(232,114,cs),
(219,114,o),
(212,126,o),
(212,149,cs),
(212,234,ls),
(212,295,o),
(226,314,o),
(242,350,cs),
(260,390,o),
(272,413,o),
(272,478,cs),
(272,549,l),
(197,549,l),
(185,512,l),
(177,502,o),
(169,498,o),
(162,498,cs),
(148,498,o),
(142,513,o),
(142,549,c),
(37,549,l),
(37,510,ls),
(37,443,o),
(65,405,o),
(105,405,cs),
(112,405,o),
(121,409,o),
(130,415,c),
(132,414,l),
(130,397,o),
(114,378,o),
(106,365,cs),
(75,314,o),
(59,275,o),
(59,216,cs),
(59,172,ls),
(59,60,o),
(109,-10,o),
(195,-10,cs)
);
}
);
width = 615;
}
);
metricLeft = "=dda-lao";
metricRight = "=foFon-lao";
unicode = 3718;
},
{
glyphname = "ngoNgu-lao";
lastChange = "2023-02-08 18:12:41 +0000";
layers = (
{
anchors = (
{
name = bottom;
pos = (283,-147);
},
{
name = top;
pos = (172,536);
},
{
name = topright;
pos = (293,536);
}
);
layerId = "64BC062E-13E4-450B-B24E-D8A474022433";
shapes = (
{
closed = 1;
nodes = (
(236,-147,o),
(293,-99,o),
(293,8,cs),
(293,455,ls),
(293,518,o),
(247,556,o),
(173,556,cs),
(135,556,o),
(93,546,o),
(56,525,c),
(66,502,l),
(98,522,o),
(136,531,o),
(170,531,cs),
(231,531,o),
(267,503,o),
(267,456,cs),
(267,15,ls),
(267,-76,o),
(235,-122,o),
(139,-122,cs),
(104,-122,o),
(60,-116,o),
(25,-102,c),
(25,-128,l),
(53,-139,o),
(104,-147,o),
(142,-147,cs)
);
}
);
width = 378;
},
{
anchors = (
{
name = bottom;
pos = (277,-174);
},
{
name = top;
pos = (157,536);
},
{
name = topright;
pos = (287,536);
}
);
hints = (
{
horizontal = 1;
origin = (0,27);
target = (0,20);
type = Stem;
},
{
horizontal = 1;
origin = (0,13);
target = (0,6);
type = Stem;
},
{
origin = (0,17);
target = (0,2);
type = Stem;
}
);
layerId = "6449CA81-A7C3-4005-93E5-765657812F1B";
shapes = (
{
closed = 1;
nodes = (
(223,-174,o),
(287,-121,o),
(287,-7,cs),
(287,449,ls),
(287,518,o),
(233,558,o),
(147,558,cs),
(106,558,o),
(64,549,o),
(28,533,c),
(47,469,l),
(69,479,o),
(97,485,o),
(123,485,cs),
(171,485,o),
(199,463,o),
(199,425,cs),
(199,0,ls),
(199,-66,o),
(171,-101,o),
(99,-101,cs),
(53,-101,o),
(11,-87,o),
(-28,-66,c),
(-28,-144,l),
(0,-157,o),
(51,-174,o),
(113,-174,cs)
);
}
);
width = 369;
},
{
anchors = (
{
name = bottom;
pos = (359,-191);
},
{
name = top;
pos = (198,536);
},
{
name = topright;
pos = (369,536);
}
);
layerId = "E5D3352E-10FF-4C03-AD9F-F95B1FD01257";
shapes = (
{
closed = 1;
nodes = (
(284,-191,o),
(369,-122,o),
(369,-6,cs),
(369,411,ls),
(369,514,o),
(279,563,o),
(176,563,cs),
(123,563,o),
(65,550,o),
(16,521,c),
(45,405,l),
(62,412,o),
(85,419,o),
(108,419,cs),
(144,419,o),
(177,403,o),
(177,369,cs),
(177,7,ls),
(177,-28,o),
(148,-48,o),
(104,-48,cs),
(73,-48,o),
(31,-38,o),
(-15,-20,c),
(-15,-156,l),
(34,-178,o),
(95,-191,o),
(152,-191,cs)
);
}
);
width = 414;
},
{
anchors = (
{
name = bottom;
pos = (197,-147);
},
{
name = top;
pos = (118,536);
},
{
name = topright;
pos = (204,536);
}
);
layerId = "009F2F33-BFE3-455D-BDCF-6F386AA465CF";
shapes = (
{
closed = 1;
nodes = (
(163,-147,o),
(204,-104,o),
(204,4,cs),
(204,455,ls),
(204,518,o),
(170,556,o),
(117,556,cs),
(90,556,o),
(61,546,o),
(35,525,c),
(43,502,l),
(64,522,o),
(90,531,o),
(112,531,cs),
(153,531,o),
(177,503,o),
(177,456,cs),
(177,11,ls),
(177,-81,o),
(155,-122,o),
(91,-122,cs),
(66,-122,o),
(35,-116,o),
(10,-102,c),
(10,-128,l),
(30,-139,o),
(65,-147,o),
(94,-147,cs)
);
}
);
width = 263;
},
{
anchors = (
{
name = bottom;
pos = (220,-171);
},
{
name = top;
pos = (124,536);
},
{
name = topright;
pos = (227,536);
}
);
layerId = "AA55D700-EA4F-438C-81A6-FEFC4FC5520F";
shapes = (
{
closed = 1;
nodes = (
(175,-171,o),
(227,-118,o),
(227,-5,cs),
(227,450,ls),
(227,518,o),
(179,558,o),
(114,558,cs),
(83,558,o),
(49,549,o),
(19,532,c),
(35,473,l),
(50,484,o),
(69,489,o),
(87,489,cs),
(125,489,o),
(141,468,o),
(141,429,cs),
(141,2,ls),
(141,-73,o),
(122,-104,o),
(78,-104,cs),
(49,-104,o),
(20,-91,o),
(-9,-71,c),
(-9,-142,l),
(17,-155,o),
(55,-171,o),
(98,-171,cs)
);
}
);
width = 273;
},
{
anchors = (
{
name = bottom;
pos = (309,-186);
},
{
name = top;
pos = (177,536);
},
{
name = topright;
pos = (317,536);
}
);
layerId = "71F2606D-B934-4F95-8EC7-C80FA20C45E9";
shapes = (
{
closed = 1;
nodes = (
(247,-186,o),
(317,-122,o),
(317,-6,cs),
(317,423,ls),
(317,516,o),
(242,563,o),
(158,563,cs),
(115,563,o),
(67,551,o),
(27,525,c),
(51,424,l),
(64,432,o),
(82,439,o),
(100,439,cs),
(128,439,o),
(155,421,o),
(155,386,cs),
(155,5,ls),
(155,-39,o),
(131,-63,o),
(99,-63,cs),
(75,-63,o),
(41,-52,o),
(4,-33,c),
(4,-153,l),
(45,-172,o),
(95,-186,o),
(140,-186,cs)
);
}
);
width = 365;
}
);
unicode = 3719;
},
{
glyphname = "coCok-lao";
kernRight = "coCok-lao";
lastChange = "2023-02-08 18:12:41 +0000";
layers = (
{
anchors = (
{
name = bottom;
pos = (450,0);
},
{
name = top;
pos = (272,536);
},
{
name = topright;
pos = (450,536);
}
);
layerId = "64BC062E-13E4-450B-B24E-D8A474022433";
shapes = (
{
closed = 1;
nodes = (
(259,0,ls),
(425,0,o),
(480,91,o),
(480,267,cs),
(480,465,o),
(411,556,o),
(238,556,cs),
(168,556,o),
(105,541,o),
(65,523,c),
(65,497,l),
(114,518,o),
(171,531,o),
(237,531,cs),
(397,531,o),
(453,453,o),
(453,272,cs),
(453,91,o),
(397,22,o),
(249,22,c),
(216,229,ls),
(208,280,o),
(182,304,o),
(139,304,cs),
(119,304,o),
(100,299,o),
(89,294,c),
(93,272,l),
(103,276,o),
(120,279,o),
(136,279,cs),
(174,279,o),
(185,261,o),
(192,219,cs),
(227,0,l)
);
}
);
width = 545;
},
{
anchors = (
{
name = bottom;
pos = (474,0);
},
{
name = top;
pos = (260,536);
},
{
name = topright;
pos = (474,536);
}
);
hints = (
{
horizontal = 1;
origin = (0,34);
target = (0,19);
type = Stem;
},
{
horizontal = 1;
origin = (0,13);
target = (0,6);
type = Stem;
},
{
origin = (0,16);
target = (0,3);
type = Stem;
}
);
layerId = "6449CA81-A7C3-4005-93E5-765657812F1B";
shapes = (
{
closed = 1;
nodes = (
(257,0,ls),
(432,0,o),
(494,103,o),
(494,273,cs),
(494,458,o),
(421,558,o),
(241,558,cs),
(158,558,o),
(88,537,o),
(50,517,c),
(50,439,l),
(105,471,o),
(167,485,o),
(229,485,cs),
(355,485,o),
(406,427,o),
(406,275,cs),
(406,131,o),
(360,73,o),
(272,73,c),
(249,220,ls),
(236,304,o),
(198,325,o),
(144,325,cs),
(121,325,o),
(95,321,o),
(71,311,c),
(85,247,l),
(95,250,o),
(109,252,o),
(121,252,cs),
(148,252,o),
(163,242,o),
(168,210,cs),
(201,0,l)
);
}
);
width = 566;
},
{
anchors = (
{
name = bottom;
pos = (522,0);
},
{
name = top;
pos = (278,536);
},
{
name = topright;
pos = (522,536);
}
);
layerId = "E5D3352E-10FF-4C03-AD9F-F95B1FD01257";
shapes = (
{
closed = 1;
nodes = (
(263,0,ls),
(444,0,o),
(538,94,o),
(538,280,cs),
(538,467,o),
(443,563,o),
(243,563,cs),
(167,563,o),
(90,549,o),
(25,521,c),
(25,383,l),
(87,409,o),
(160,419,o),
(206,419,cs),
(304,419,o),
(346,374,o),
(346,279,cs),
(346,229,o),
(334,167,o),
(311,134,c),
(299,210,ls),
(286,293,o),
(239,337,o),
(162,337,cs),
(124,337,o),
(77,326,o),
(39,302,c),
(65,188,l),
(77,193,o),
(91,195,o),
(100,195,cs),
(119,195,o),
(132,186,o),
(137,159,cs),
(168,0,l)
);
}
);
width = 566;
},
{
anchors = (
{
name = bottom;
pos = (318,0);
},
{
name = top;
pos = (188,536);
},
{
name = topright;
pos = (318,536);
}
);
layerId = "009F2F33-BFE3-455D-BDCF-6F386AA465CF";
shapes = (
{
closed = 1;
nodes = (
(181,0,ls),
(298,0,o),
(338,90,o),
(338,268,cs),
(338,465,o),
(289,556,o),
(166,556,cs),
(116,556,o),
(71,541,o),
(43,523,c),
(43,497,l),
(78,518,o),
(119,531,o),
(164,531,cs),
(272,531,o),
(310,453,o),
(310,272,cs),
(310,91,o),
(272,22,o),
(177,22,c),
(155,237,ls),
(150,285,o),
(134,304,o),
(100,304,cs),
(86,304,o),
(74,301,o),
(59,294,c),
(64,272,l),
(74,277,o),
(83,279,o),
(92,279,cs),
(114,279,o),
(127,267,o),
(131,227,cs),
(155,0,l)
);
}
);
width = 384;
},
{
anchors = (
{
name = bottom;
pos = (354,0);
},
{
name = top;
pos = (200,536);
},
{
name = topright;
pos = (354,536);
}
);
layerId = "AA55D700-EA4F-438C-81A6-FEFC4FC5520F";
shapes = (
{
closed = 1;
nodes = (
(193,0,ls),
(317,0,o),
(368,102,o),
(368,274,cs),
(368,460,o),
(309,558,o),
(182,558,cs),
(124,558,o),
(75,538,o),
(40,518,c),
(40,446,l),
(80,477,o),
(125,491,o),
(166,491,cs),
(251,491,o),
(282,430,o),
(282,269,cs),
(282,127,o),
(258,67,o),
(211,67,c),
(196,221,ls),
(188,301,o),
(160,322,o),
(115,322,cs),
(96,322,o),
(72,318,o),
(53,309,c),
(65,250,l),
(73,253,o),
(83,255,o),
(91,255,cs),
(109,255,o),
(118,244,o),
(122,211,cs),
(145,0,l)
);
}
);
width = 404;
},
{
anchors = (
{
name = bottom;
pos = (436,0);
},
{
name = top;
pos = (239,536);
},
{
name = topright;
pos = (436,536);
}
);
layerId = "71F2606D-B934-4F95-8EC7-C80FA20C45E9";
shapes = (
{
closed = 1;
nodes = (
(226,0,ls),
(371,0,o),
(449,97,o),
(449,278,cs),
(449,465,o),
(371,563,o),
(210,563,cs),
(149,563,o),
(87,547,o),
(33,521,c),
(33,400,l),
(83,428,o),
(141,439,o),
(181,439,cs),
(254,439,o),
(287,390,o),
(287,278,cs),
(287,201,o),
(280,140,o),
(267,117,c),
(258,213,ls),
(250,297,o),
(210,334,o),
(146,334,cs),
(114,334,o),
(75,325,o),
(44,305,c),
(65,205,l),
(75,209,o),
(86,211,o),
(93,211,cs),
(108,211,o),
(118,202,o),
(122,174,cs),
(147,0,l)
);
}
);
width = 483;
}
);
unicode = 3720;
},
{
glyphname = "cha-lao";
kernRight = "coCok-lao";
lastChange = "2023-03-23 08:14:58 +0000";
layers = (
{
anchors = (
{
name = bottom;
pos = (477,0);
},
{
name = top;
pos = (279,536);
},
{
name = topright;
pos = (477,536);
}
);
layerId = "64BC062E-13E4-450B-B24E-D8A474022433";
shapes = (
{
closed = 1;
nodes = (
(172,-10,o),
(194,22,o),
(194,92,cs),
(194,127,l),
(176,77,l),
(195,77,l),
(220,19,o),
(263,-10,o),
(326,-10,cs),
(452,-10,o),
(507,77,o),
(507,278,cs),
(507,472,o),
(429,556,o),
(249,556,cs),
(177,556,o),
(113,541,o),
(72,523,c),
(72,497,l),
(122,518,o),
(180,531,o),
(248,531,cs),
(410,531,o),
(480,458,o),
(480,278,cs),
(480,91,o),
(433,12,o),
(325,12,cs),
(242,12,o),
(194,74,o),
(194,181,cs),
(194,307,l),
(168,307,l),
(168,85,ls),
(168,30,o),
(150,14,o),
(115,14,cs),
(100,14,o),
(90,17,o),
(77,21,c),
(72,-2,l),
(85,-7,o),
(101,-10,o),
(117,-10,cs)
);
}
);
width = 572;
},
{
anchors = (
{
name = bottom;
pos = (503,0);
},
{
name = top;
pos = (265,536);
},
{
name = topright;
pos = (503,536);
}
);
hints = (
{
horizontal = 1;
origin = (0,43);
target = (0,36);
type = Stem;
},
{
horizontal = 1;
origin = (0,21);
target = (0,14);
type = Stem;
},
{
horizontal = 1;
origin = (0,8);
target = (0,27);
type = Stem;
},
{
origin = (0,24);
target = (0,11);
type = Stem;
},
{
origin = (0,32);
target = (0,31);
type = Stem;
}
);
layerId = "6449CA81-A7C3-4005-93E5-765657812F1B";
shapes = (
{
closed = 1;
nodes = (
(191,-10,o),
(226,17,o),
(226,68,cs),
(226,87,l),
(191,49,l),
(228,49,l),
(255,10,o),
(296,-10,o),
(349,-10,cs),
(464,-10,o),
(523,85,o),
(523,274,cs),
(523,463,o),
(433,558,o),
(253,558,cs),
(169,558,o),
(98,537,o),
(59,517,c),
(59,439,l),
(115,471,o),
(178,485,o),
(241,485,cs),
(376,485,o),
(435,420,o),
(435,272,cs),
(435,126,o),
(403,63,o),
(330,63,cs),
(272,63,o),
(237,104,o),
(237,176,cs),
(237,329,l),
(151,329,l),
(151,107,ls),
(151,77,o),
(136,60,o),
(102,60,cs),
(92,60,o),
(81,63,o),
(72,66,c),
(59,4,l),
(81,-5,o),
(107,-10,o),
(129,-10,cs)
);
}
);
width = 595;
},
{
anchors = (
{
name = bottom;
pos = (552,0);
},
{
name = top;
pos = (288,536);
},
{
name = topright;
pos = (552,536);
}
);
layerId = "E5D3352E-10FF-4C03-AD9F-F95B1FD01257";
shapes = (
{
closed = 1;
nodes = (
(204,-10,o),
(245,22,o),
(245,77,cs),
(245,96,l),
(209,55,l),
(245,55,l),
(275,12,o),
(320,-10,o),
(379,-10,cs),
(505,-10,o),
(568,86,o),
(568,276,cs),
(568,467,o),
(463,563,o),
(254,563,cs),
(178,563,o),
(100,549,o),
(35,521,c),
(35,383,l),
(97,409,o),
(164,419,o),
(216,419,cs),
(328,419,o),
(376,371,o),
(376,269,cs),
(376,175,o),
(357,134,o),
(312,134,cs),
(282,134,o),
(265,153,o),
(265,187,cs),
(265,329,l),
(123,329,l),
(123,160,ls),
(123,142,o),
(116,134,o),
(97,134,cs),
(84,134,o),
(72,138,o),
(62,142,c),
(35,20,l),
(64,1,o),
(101,-10,o),
(139,-10,cs)
);
}
);
width = 596;
},
{
anchors = (
{
name = bottom;
pos = (350,0);
},
{
name = top;
pos = (199,536);
},
{
name = topright;
pos = (350,536);
}
);
layerId = "009F2F33-BFE3-455D-BDCF-6F386AA465CF";
shapes = (
{
closed = 1;
nodes = (
(134,-10,o),
(152,21,o),
(152,92,cs),
(152,127,l),
(137,77,l),
(153,77,l),
(165,19,o),
(195,-10,o),
(242,-10,cs),
(331,-10,o),
(370,76,o),
(370,273,cs),
(370,470,o),
(313,556,o),
(183,556,cs),
(128,556,o),
(84,541,o),
(55,523,c),
(55,497,l),
(91,518,o),
(134,531,o),
(181,531,cs),
(293,531,o),
(342,455,o),
(342,273,cs),
(342,91,o),
(312,12,o),
(242,12,cs),
(186,12,o),
(154,74,o),
(154,181,cs),
(154,307,l),
(127,307,l),
(127,85,ls),
(127,30,o),
(113,14,o),
(88,14,cs),
(77,14,o),
(69,17,o),
(60,21,c),
(55,-2,l),
(66,-7,o),
(79,-10,o),
(92,-10,cs)
);
}
);
width = 416;
},
{
anchors = (
{
name = bottom;
pos = (374,0);
},
{
name = top;
pos = (204,536);
},
{
name = topright;
pos = (374,536);
}
);
layerId = "AA55D700-EA4F-438C-81A6-FEFC4FC5520F";
shapes = (
{
closed = 1;
nodes = (
(138,-10,o),
(163,15,o),
(163,62,cs),
(163,68,l),
(147,49,l),
(165,49,l),
(183,10,o),
(212,-10,o),
(253,-10,cs),
(343,-10,o),
(388,85,o),
(388,274,cs),
(388,463,o),
(320,558,o),
(185,558,cs),
(123,558,o),
(76,538,o),
(40,518,c),
(40,446,l),
(81,477,o),
(127,491,o),
(169,491,cs),
(262,491,o),
(302,424,o),
(302,272,cs),
(302,126,o),
(281,63,o),
(232,63,cs),
(195,63,o),
(173,104,o),
(173,176,cs),
(173,326,l),
(103,326,l),
(103,102,ls),
(103,71,o),
(90,60,o),
(77,60,cs),
(71,60,o),
(61,62,o),
(53,66,c),
(40,4,l),
(58,-4,o),
(79,-10,o),
(98,-10,cs)
);
}
);
width = 424;
},
{
anchors = (
{
name = bottom;
pos = (462,0);
},
{
name = top;
pos = (245,536);
},
{
name = topright;
pos = (462,536);
}
);
layerId = "71F2606D-B934-4F95-8EC7-C80FA20C45E9";
shapes = (
{
closed = 1;
nodes = (
(178,-10,o),
(212,20,o),
(212,72,cs),
(212,92,l),
(184,60,l),
(213,60,l),
(237,13,o),
(274,-10,o),
(323,-10,cs),
(424,-10,o),
(475,86,o),
(475,276,cs),
(475,467,o),
(388,563,o),
(217,563,cs),
(151,563,o),
(93,547,o),
(39,521,c),
(39,400,l),
(89,428,o),
(147,439,o),
(187,439,cs),
(275,439,o),
(313,388,o),
(313,269,cs),
(313,161,o),
(299,114,o),
(266,114,cs),
(241,114,o),
(227,140,o),
(227,184,cs),
(227,329,l),
(109,329,l),
(109,143,ls),
(109,121,o),
(105,112,o),
(90,112,cs),
(79,112,o),
(70,116,o),
(62,120,c),
(39,15,l),
(63,-1,o),
(94,-10,o),
(125,-10,cs)
);
}
);
width = 509;
}
);
metricRight = "=coCok-lao";
unicode = 3721;
},
{
glyphname = "jha-lao";
lastChange = "2023-03-23 08:27:10 +0000";
layers = (
{
anchors = (
{
name = bottom;
pos = (403,0);
},
{
name = top;
pos = (292,536);
},
{
name = topright;
pos = (512,536);
}
);
layerId = "64BC062E-13E4-450B-B24E-D8A474022433";
shapes = (
{
closed = 1;
nodes = (
(507,-147,l),
(507,22,ls),
(507,72,o),
(480,92,o),
(439,92,cs),
(356,92,o),
(284,15,o),
(192,15,cs),
(131,15,o),
(97,42,o),
(97,98,cs),
(97,173,o),
(170,197,o),
(303,235,cs),
(436,273,o),
(519,317,o),
(519,427,cs),
(519,513,o),
(480,556,o),
(401,556,cs),
(348,556,o),
(310,529,o),
(293,480,c),
(291,480,l),
(274,529,o),
(237,556,o),
(184,556,cs),
(104,556,o),
(65,511,o),
(65,423,cs),
(65,402,o),
(68,371,o),
(75,355,c),
(100,365,l),
(94,381,o),
(92,404,o),
(92,422,cs),
(92,497,o),
(122,534,o),
(186,534,cs),
(245,534,o),
(280,491,o),
(280,416,cs),
(280,403,l),
(304,403,l),
(304,416,ls),
(304,491,o),
(339,534,o),
(399,534,cs),
(463,534,o),
(493,499,o),
(493,427,cs),
(493,330,o),
(420,295,o),
(288,257,cs),
(156,219,o),
(71,186,o),
(71,100,cs),
(71,20,o),
(128,-10,o),
(194,-10,cs),
(293,-10,o),
(362,67,o),
(439,67,cs),
(471,67,o),
(481,53,o),
(481,21,cs),
(481,-147,l)
);
}
);
width = 584;
},
{
anchors = (
{
name = bottom;
pos = (419,0);
},
{
name = top;
pos = (323,536);
},
{
name = topright;
pos = (560,536);
}
);
hints = (
{
horizontal = 1;
origin = (0,39);
target = (0,26);
type = Stem;
},
{
horizontal = 1;
origin = (0,67);
target = up;
type = BottomGhost;
},
{
horizontal = 1;
origin = (0,60);
target = (0,7);
type = Stem;
},
{
origin = (0,29);
target = (0,36);
type = Stem;
},
{
origin = (0,51);
target = (0,16);
type = Stem;
}
);
layerId = "6449CA81-A7C3-4005-93E5-765657812F1B";
shapes = (
{
closed = 1;
nodes = (
(566,-174,l),
(566,24,ls),
(566,105,o),
(516,132,o),
(464,132,cs),
(377,132,o),
(286,60,o),
(221,60,cs),
(182,60,o),
(159,78,o),
(159,109,cs),
(159,153,o),
(220,178,o),
(347,214,cs),
(474,250,o),
(578,293,o),
(578,415,cs),
(578,505,o),
(529,558,o),
(442,558,cs),
(390,558,o),
(352,536,o),
(325,490,c),
(321,490,l),
(296,536,o),
(257,558,o),
(204,558,cs),
(117,558,o),
(68,507,o),
(68,417,cs),
(68,377,o),
(77,337,o),
(99,312,c),
(169,347,l),
(160,365,o),
(153,383,o),
(153,415,cs),
(153,461,o),
(175,485,o),
(220,485,cs),
(262,485,o),
(285,457,o),
(285,403,cs),
(285,380,l),
(361,380,l),
(361,403,ls),
(361,457,o),
(385,485,o),
(426,485,cs),
(471,485,o),
(493,462,o),
(493,415,cs),
(493,346,o),
(441,316,o),
(314,282,cs),
(187,248,o),
(74,213,o),
(74,107,cs),
(74,33,o),
(124,-10,o),
(211,-10,cs),
(312,-10,o),
(391,59,o),
(445,59,cs),
(466,59,o),
(479,48,o),
(479,22,cs),
(479,-174,l)
);
}
);
width = 646;
},
{
anchors = (
{
name = bottom;
pos = (387,0);
},
{
name = top;
pos = (315,536);
},
{
name = topright;
pos = (596,536);
}
);
layerId = "E5D3352E-10FF-4C03-AD9F-F95B1FD01257";
shapes = (
{
closed = 1;
nodes = (
(594,-191,l),
(594,57,ls),
(594,139,o),
(567,191,o),
(479,191,cs),
(375,191,o),
(282,134,o),
(240,134,cs),
(230,134,o),
(222,138,o),
(222,149,cs),
(222,170,o),
(257,179,o),
(404,211,cs),
(551,243,o),
(606,315,o),
(606,410,cs),
(606,509,o),
(550,563,o),
(445,563,cs),
(389,563,o),
(341,543,o),
(317,509,c),
(315,509,l),
(292,542,o),
(242,563,o),
(187,563,cs),
(86,563,o),
(28,506,o),
(28,410,cs),
(28,353,o),
(57,305,o),
(90,285,c),
(224,355,l),
(212,367,o),
(204,378,o),
(204,392,cs),
(204,412,o),
(211,419,o),
(230,419,cs),
(244,419,o),
(252,410,o),
(252,392,cs),
(252,353,l),
(378,353,l),
(378,392,ls),
(378,409,o),
(386,419,o),
(400,419,cs),
(417,419,o),
(426,410,o),
(426,392,cs),
(426,349,o),
(383,328,o),
(236,298,cs),
(89,268,o),
(34,217,o),
(34,132,cs),
(34,46,o),
(98,-10,o),
(194,-10,cs),
(302,-10,o),
(372,33,o),
(415,33,cs),
(430,33,o),
(437,26,o),
(437,12,cs),
(437,-191,l)
);
}
);
width = 634;
},
{
anchors = (
{
name = bottom;
pos = (267,0);
},
{
name = top;
pos = (204,536);
},
{
name = topright;
pos = (343,536);
}
);
layerId = "009F2F33-BFE3-455D-BDCF-6F386AA465CF";
shapes = (
{
closed = 1;
nodes = (
(354,-147,l),
(354,8,ls),
(354,62,o),
(331,92,o),
(290,92,cs),
(225,92,o),
(198,15,o),
(141,15,cs),
(101,15,o),
(74,51,o),
(74,108,cs),
(74,189,o),
(124,204,o),
(211,246,cs),
(298,288,o),
(366,333,o),
(366,435,cs),
(366,517,o),
(338,556,o),
(279,556,cs),
(242,556,o),
(213,530,o),
(205,476,c),
(203,476,l),
(195,530,o),
(166,556,o),
(129,556,cs),
(71,556,o),
(42,514,o),
(42,427,cs),
(42,403,o),
(45,371,o),
(52,355,c),
(74,365,l),
(70,381,o),
(68,405,o),
(68,426,cs),
(68,498,o),
(89,534,o),
(130,534,cs),
(172,534,o),
(192,493,o),
(192,411,cs),
(192,384,l),
(216,384,l),
(216,411,ls),
(216,493,o),
(236,534,o),
(278,534,cs),
(319,534,o),
(340,499,o),
(340,434,cs),
(340,350,o),
(290,312,o),
(203,270,cs),
(116,228,o),
(48,206,o),
(48,107,cs),
(48,31,o),
(90,-10,o),
(142,-10,cs),
(213,-10,o),
(238,69,o),
(287,69,cs),
(313,69,o),
(327,47,o),
(327,7,cs),
(327,-147,l)
);
}
);
width = 408;
},
{
anchors = (
{
name = bottom;
pos = (274,0);
},
{
name = top;
pos = (220,536);
},
{
name = topright;
pos = (397,536);
}
);
layerId = "AA55D700-EA4F-438C-81A6-FEFC4FC5520F";
shapes = (
{
closed = 1;
nodes = (
(394,-171,l),
(394,24,ls),
(394,99,o),
(367,127,o),
(324,127,cs),
(254,127,o),
(200,54,o),
(162,54,cs),
(136,54,o),
(124,79,o),
(124,110,cs),
(124,170,o),
(177,189,o),
(262,221,cs),
(347,253,o),
(406,298,o),
(406,416,cs),
(406,505,o),
(371,558,o),
(309,558,cs),
(266,558,o),
(238,532,o),
(221,489,c),
(219,489,l),
(203,532,o),
(174,558,o),
(132,558,cs),
(69,558,o),
(34,505,o),
(34,416,cs),
(34,374,o),
(45,342,o),
(63,317,c),
(127,349,l),
(122,367,o),
(119,386,o),
(119,416,cs),
(119,466,o),
(129,491,o),
(153,491,cs),
(177,491,o),
(189,461,o),
(189,409,cs),
(189,388,l),
(251,388,l),
(251,409,ls),
(251,461,o),
(263,491,o),
(287,491,cs),
(310,491,o),
(321,465,o),
(321,416,cs),
(321,337,o),
(288,316,o),
(204,282,cs),
(120,248,o),
(40,207,o),
(40,110,cs),
(40,24,o),
(89,-10,o),
(143,-10,cs),
(217,-10,o),
(260,58,o),
(298,58,cs),
(312,58,o),
(319,47,o),
(319,20,cs),
(319,-171,l)
);
}
);
width = 440;
},
{
anchors = (
{
name = bottom;
pos = (310,0);
},
{
name = top;
pos = (274,536);
},
{
name = topright;
pos = (459,536);
}
);
layerId = "71F2606D-B934-4F95-8EC7-C80FA20C45E9";
shapes = (
{
closed = 1;
nodes = (
(482,-186,l),
(482,47,ls),
(482,127,o),
(461,174,o),
(385,174,cs),
(312,174,o),
(269,113,o),
(225,113,cs),
(208,113,o),
(197,121,o),
(197,136,cs),
(197,164,o),
(222,174,o),
(325,207,cs),
(428,240,o),
(494,313,o),
(494,409,cs),
(494,507,o),
(449,563,o),
(370,563,cs),
(322,563,o),
(284,540,o),
(265,505,c),
(261,505,l),
(243,540,o),
(205,563,o),
(156,563,cs),
(78,563,o),
(32,507,o),
(32,409,cs),
(32,356,o),
(55,317,o),
(79,298,c),
(197,361,l),
(191,370,o),
(187,385,o),
(187,407,cs),
(187,426,o),
(195,439,o),
(210,439,cs),
(224,439,o),
(232,426,o),
(232,400,cs),
(232,378,l),
(295,378,l),
(295,400,ls),
(295,426,o),
(303,439,o),
(317,439,cs),
(331,439,o),
(339,426,o),
(339,407,cs),
(339,351,o),
(286,324,o),
(183,293,cs),
(80,262,o),
(38,204,o),
(38,125,cs),
(38,40,o),
(85,-10,o),
(166,-10,cs),
(254,-10,o),
(300,42,o),
(335,42,cs),
(347,42,o),
(350,34,o),
(350,16,cs),
(350,-186,l)
);
}
);
width = 526;
}
);
unicode = 3724;
},
{
glyphname = "nya-lao";
lastChange = "2023-03-23 08:27:15 +0000";
layers = (
{
anchors = (
{
name = bottom;
pos = (814,0);
},
{
name = top;
pos = (640,536);
},
{
name = topright;
pos = (824,536);
}
);
layerId = "64BC062E-13E4-450B-B24E-D8A474022433";
shapes = (
{
closed = 1;
nodes = (
(233,-10,o),
(264,-5,o),
(284,2,c),
(279,27,l),
(265,22,o),
(236,15,o),
(207,15,cs),
(141,15,o),
(92,52,o),
(92,128,cs),
(92,223,o),
(168,253,o),
(228,253,cs),
(267,253,l),
(267,275,l),
(228,275,ls),
(145,275,o),
(95,322,o),
(95,398,cs),
(95,499,o),
(183,531,o),
(273,531,cs),
(370,531,o),
(456,494,o),
(456,377,cs),
(456,174,ls),
(456,67,o),
(514,-10,o),
(640,-10,cs),
(766,-10,o),
(824,67,o),
(824,174,cs),
(824,548,l),
(798,548,l),
(798,174,ls),
(798,73,o),
(745,15,o),
(640,15,cs),
(535,15,o),
(482,73,o),
(482,174,cs),
(482,371,ls),
(482,501,o),
(396,556,o),
(272,556,cs),
(150,556,o),
(68,502,o),
(68,397,cs),
(68,312,o),
(122,281,o),
(156,267,c),
(156,263,l),
(124,251,o),
(65,219,o),
(65,129,cs),
(65,39,o),
(123,-10,o),
(206,-10,cs)
);
}
);
width = 909;
},
{
anchors = (
{
name = bottom;
pos = (856,0);
},
{
name = top;
pos = (655,536);
},
{
name = topright;
pos = (866,536);
}
);
hints = (
{
horizontal = 1;
origin = (0,57);
target = (0,6);
type = Stem;
},
{
horizontal = 1;
origin = (0,21);
target = (0,44);
type = Stem;
},
{
horizontal = 1;
origin = (0,33);
target = down;
type = TopGhost;
},
{
origin = (0,25);
target = (0,40);
type = Stem;
},
{
origin = (0,34);
target = (0,31);
type = Stem;
},
{
origin = (0,47);
target = (0,18);
type = Stem;
}
);
layerId = "6449CA81-A7C3-4005-93E5-765657812F1B";
shapes = (
{
closed = 1;
nodes = (
(265,-10,o),
(302,-3,o),
(321,5,c),
(306,74,l),
(291,69,o),
(268,63,o),
(244,63,cs),
(187,63,o),
(156,97,o),
(156,150,cs),
(156,216,o),
(203,240,o),
(275,240,cs),
(295,240,l),
(295,305,l),
(275,305,ls),
(205,305,o),
(156,335,o),
(156,394,cs),
(156,453,o),
(205,485,o),
(298,485,cs),
(403,485,o),
(442,444,o),
(442,369,cs),
(442,208,ls),
(442,72,o),
(504,-10,o),
(654,-10,cs),
(804,-10,o),
(866,72,o),
(866,208,cs),
(866,548,l),
(778,548,l),
(778,201,ls),
(778,114,o),
(742,63,o),
(654,63,cs),
(567,63,o),
(530,114,o),
(530,201,cs),
(530,361,ls),
(530,500,o),
(452,558,o),
(304,558,cs),
(151,558,o),
(68,496,o),
(68,397,cs),
(68,332,o),
(104,292,o),
(162,273,c),
(162,270,l),
(98,253,o),
(68,204,o),
(68,142,cs),
(68,66,o),
(113,-10,o),
(230,-10,cs)
);
}
);
width = 946;
},
{
anchors = (
{
name = bottom;
pos = (858,0);
},
{
name = top;
pos = (616,536);
},
{
name = topright;
pos = (868,536);
}
);
layerId = "E5D3352E-10FF-4C03-AD9F-F95B1FD01257";
shapes = (
{
closed = 1;
nodes = (
(254,-10,o),
(297,-3,o),
(332,9,c),
(301,141,l),
(288,137,o),
(270,134,o),
(258,134,cs),
(231,134,o),
(218,148,o),
(218,173,cs),
(218,202,o),
(236,217,o),
(266,217,cs),
(318,217,l),
(318,328,l),
(266,328,ls),
(232,328,o),
(218,349,o),
(218,371,cs),
(218,405,o),
(253,419,o),
(288,419,cs),
(334,419,o),
(364,394,o),
(364,358,cs),
(364,233,ls),
(364,73,o),
(450,-10,o),
(616,-10,cs),
(782,-10,o),
(868,73,o),
(868,233,cs),
(868,553,l),
(676,553,l),
(676,212,ls),
(676,161,o),
(656,134,o),
(616,134,cs),
(576,134,o),
(556,161,o),
(556,212,cs),
(556,347,ls),
(556,500,o),
(462,563,o),
(294,563,cs),
(122,563,o),
(30,496,o),
(30,397,cs),
(30,337,o),
(63,295,o),
(117,275,c),
(117,273,l),
(54,246,o),
(30,194,o),
(30,141,cs),
(30,64,o),
(81,-10,o),
(213,-10,cs)
);
}
);
width = 913;
},
{
anchors = (
{
name = bottom;
pos = (572,0);
},
{
name = top;
pos = (448,536);
},
{
name = topright;
pos = (579,536);
}
);
layerId = "009F2F33-BFE3-455D-BDCF-6F386AA465CF";
shapes = (
{
closed = 1;
nodes = (
(168,-10,o),
(190,-5,o),
(204,2,c),
(199,27,l),
(189,22,o),
(169,15,o),
(150,15,cs),
(105,15,o),
(73,52,o),
(73,128,cs),
(73,223,o),
(123,253,o),
(166,253,cs),
(191,253,l),
(191,275,l),
(166,275,ls),
(110,275,o),
(75,322,o),
(75,400,cs),
(75,499,o),
(131,531,o),
(195,531,cs),
(264,531,o),
(317,493,o),
(317,377,cs),
(317,174,ls),
(317,67,o),
(357,-10,o),
(448,-10,cs),
(539,-10,o),
(579,67,o),
(579,174,cs),
(579,548,l),
(552,548,l),
(552,174,ls),
(552,73,o),
(518,15,o),
(448,15,cs),
(378,15,o),
(344,73,o),
(344,174,cs),
(344,371,ls),
(344,501,o),
(285,556,o),
(194,556,cs),
(105,556,o),
(48,503,o),
(48,396,cs),
(48,313,o),
(83,281,o),
(110,267,c),
(110,263,l),
(83,251,o),
(46,219,o),
(46,130,cs),
(46,39,o),
(85,-10,o),
(148,-10,cs)
);
}
);
width = 638;
},
{
anchors = (
{
name = bottom;
pos = (584,0);
},
{
name = top;
pos = (436,536);
},
{
name = topright;
pos = (591,536);
}
);
layerId = "AA55D700-EA4F-438C-81A6-FEFC4FC5520F";
shapes = (
{
closed = 1;
nodes = (
(179,-10,o),
(206,-3,o),
(224,5,c),
(210,68,l),
(200,63,o),
(185,57,o),
(171,57,cs),
(139,57,o),
(121,91,o),
(121,147,cs),
(121,217,o),
(148,242,o),
(184,242,cs),
(211,242,l),
(211,301,l),
(184,301,ls),
(145,301,o),
(121,335,o),
(121,392,cs),
(121,461,o),
(153,491,o),
(197,491,cs),
(250,491,o),
(280,450,o),
(280,370,cs),
(280,194,ls),
(280,57,o),
(332,-10,o),
(436,-10,cs),
(540,-10,o),
(592,57,o),
(592,194,cs),
(592,548,l),
(506,548,l),
(506,188,ls),
(506,100,o),
(482,57,o),
(436,57,cs),
(390,57,o),
(366,100,o),
(366,188,cs),
(366,362,ls),
(366,500,o),
(306,558,o),
(200,558,cs),
(95,558,o),
(36,497,o),
(36,397,cs),
(36,330,o),
(63,291,o),
(99,272,c),
(99,269,l),
(59,253,o),
(36,205,o),
(36,141,cs),
(36,62,o),
(71,-10,o),
(153,-10,cs)
);
}
);
width = 637;
},
{
anchors = (
{
name = bottom;
pos = (681,0);
},
{
name = top;
pos = (491,536);
},
{
name = topright;
pos = (689,536);
}
);
layerId = "71F2606D-B934-4F95-8EC7-C80FA20C45E9";
shapes = (
{
closed = 1;
nodes = (
(217,-10,o),
(252,-3,o),
(282,8,c),
(255,122,l),
(244,117,o),
(233,114,o),
(225,114,cs),
(206,114,o),
(194,134,o),
(194,168,cs),
(194,204,o),
(207,224,o),
(230,224,cs),
(261,224,l),
(261,321,l),
(227,321,ls),
(203,321,o),
(194,348,o),
(194,375,cs),
(194,415,o),
(211,439,o),
(241,439,cs),
(274,439,o),
(293,412,o),
(293,367,cs),
(293,226,ls),
(293,73,o),
(362,-10,o),
(491,-10,cs),
(621,-10,o),
(689,73,o),
(689,226,cs),
(689,553,l),
(527,553,l),
(527,209,ls),
(527,147,o),
(515,114,o),
(491,114,cs),
(468,114,o),
(455,147,o),
(455,209,cs),
(455,352,ls),
(455,501,o),
(380,563,o),
(246,563,cs),
(108,563,o),
(36,497,o),
(36,397,cs),
(36,340,o),
(60,295,o),
(105,274,c),
(105,272,l),
(55,248,o),
(36,196,o),
(36,143,cs),
(36,64,o),
(77,-10,o),
(184,-10,cs)
);
}
);
width = 737;
}
);
metricLeft = "=khoKhuay-lao";
metricRight = "=boBae-lao";
unicode = 3726;
},
{
glyphname = "tta-lao";
lastChange = "2023-03-23 08:27:19 +0000";
layers = (
{
anchors = (
{
name = bottom;
pos = (520,0);
},
{
name = top;
pos = (311,536);
},
{
name = topright;
pos = (530,536);
}
);
layerId = "64BC062E-13E4-450B-B24E-D8A474022433";
shapes = (
{
closed = 1;
nodes = (
(243,-10,o),
(281,17,o),
(298,66,c),
(300,66,l),
(317,17,o),
(356,-10,o),
(410,-10,cs),
(490,-10,o),
(530,39,o),
(530,137,cs),
(530,548,l),
(504,548,l),
(504,137,ls),
(504,53,o),
(473,12,o),
(408,12,cs),
(347,12,o),
(311,55,o),
(311,130,cs),
(311,143,l),
(287,143,l),
(287,130,ls),
(287,55,o),
(251,12,o),
(191,12,cs),
(126,12,o),
(95,55,o),
(95,144,cs),
(95,231,o),
(146,279,o),
(228,279,cs),
(267,279,l),
(267,301,l),
(228,301,ls),
(167,301,o),
(92,332,o),
(92,422,cs),
(92,495,o),
(141,531,o),
(207,531,cs),
(236,531,o),
(260,524,o),
(279,520,c),
(284,544,l),
(264,551,o),
(233,556,o),
(206,556,cs),
(123,556,o),
(65,508,o),
(65,422,cs),
(65,338,o),
(120,305,o),
(156,291,c),
(156,287,l),
(122,272,o),
(68,239,o),
(68,143,cs),
(68,41,o),
(108,-10,o),
(189,-10,cs)
);
}
);
width = 615;
},
{
anchors = (
{
name = bottom;
pos = (576,0);
},
{
name = top;
pos = (343,536);
},
{
name = topright;
pos = (586,536);
}
);
hints = (
{
horizontal = 1;
origin = (0,59);
target = (0,24);
type = Stem;
},
{
horizontal = 1;
origin = (0,39);
target = (0,46);
type = Stem;
},
{
horizontal = 1;
origin = (0,11);
target = down;
type = TopGhost;
},
{
origin = (0,12);
target = (0,9);
type = Stem;
},
{
origin = (0,49);
target = (0,36);
type = Stem;
}
);
layerId = "6449CA81-A7C3-4005-93E5-765657812F1B";
shapes = (
{
closed = 1;
nodes = (
(260,-10,o),
(300,12,o),
(325,58,c),
(329,58,l),
(356,12,o),
(395,-10,o),
(448,-10,cs),
(536,-10,o),
(586,51,o),
(586,157,cs),
(586,548,l),
(498,548,l),
(498,151,ls),
(498,92,o),
(476,63,o),
(432,63,cs),
(390,63,o),
(365,91,o),
(365,145,cs),
(365,168,l),
(289,168,l),
(289,145,ls),
(289,91,o),
(265,63,o),
(222,63,cs),
(178,63,o),
(156,93,o),
(156,153,cs),
(156,229,o),
(197,263,o),
(275,263,cs),
(314,263,l),
(314,328,l),
(275,328,ls),
(217,328,o),
(156,344,o),
(156,411,cs),
(156,458,o),
(185,485,o),
(240,485,cs),
(266,485,o),
(291,479,o),
(306,474,c),
(321,542,l),
(301,551,o),
(265,558,o),
(228,558,cs),
(113,558,o),
(68,490,o),
(68,420,cs),
(68,344,o),
(121,308,o),
(162,296,c),
(162,292,l),
(116,284,o),
(68,245,o),
(68,151,cs),
(68,49,o),
(118,-10,o),
(206,-10,cs)
);
}
);
width = 668;
},
{
anchors = (
{
name = bottom;
pos = (601,0);
},
{
name = top;
pos = (325,536);
},
{
name = topright;
pos = (611,536);
}
);
layerId = "E5D3352E-10FF-4C03-AD9F-F95B1FD01257";
shapes = (
{
closed = 1;
nodes = (
(240,-10,o),
(292,11,o),
(316,44,c),
(318,44,l),
(343,10,o),
(393,-10,o),
(452,-10,cs),
(555,-10,o),
(611,54,o),
(611,171,cs),
(611,553,l),
(419,553,l),
(419,161,ls),
(419,143,o),
(412,134,o),
(399,134,cs),
(386,134,o),
(379,144,o),
(379,161,cs),
(379,200,l),
(253,200,l),
(253,161,ls),
(253,143,o),
(246,134,o),
(233,134,cs),
(218,134,o),
(213,145,o),
(213,178,cs),
(213,205,o),
(227,231,o),
(261,231,cs),
(303,231,l),
(303,342,l),
(261,342,ls),
(231,342,o),
(213,356,o),
(213,384,cs),
(213,406,o),
(226,419,o),
(253,419,cs),
(265,419,o),
(283,416,o),
(296,412,c),
(327,544,l),
(292,556,o),
(249,563,o),
(208,563,cs),
(76,563,o),
(25,491,o),
(25,416,cs),
(25,364,o),
(49,313,o),
(112,286,c),
(112,284,l),
(58,261,o),
(25,213,o),
(25,145,cs),
(25,48,o),
(83,-10,o),
(182,-10,cs)
);
}
);
width = 656;
},
{
anchors = (
{
name = bottom;
pos = (373,0);
},
{
name = top;
pos = (220,536);
},
{
name = topright;
pos = (380,536);
}
);
layerId = "009F2F33-BFE3-455D-BDCF-6F386AA465CF";
shapes = (
{
closed = 1;
nodes = (
(175,-10,o),
(205,16,o),
(213,70,c),
(215,70,l),
(223,16,o),
(253,-10,o),
(291,-10,cs),
(352,-10,o),
(380,36,o),
(380,136,cs),
(380,548,l),
(353,548,l),
(353,137,ls),
(353,54,o),
(332,12,o),
(290,12,cs),
(247,12,o),
(226,54,o),
(226,137,cs),
(226,162,l),
(202,162,l),
(202,137,ls),
(202,54,o),
(181,12,o),
(138,12,cs),
(96,12,o),
(75,55,o),
(75,140,cs),
(75,229,o),
(109,279,o),
(166,279,cs),
(189,279,l),
(189,301,l),
(166,301,ls),
(124,301,o),
(73,332,o),
(73,423,cs),
(73,495,o),
(105,531,o),
(149,531,cs),
(170,531,o),
(189,523,o),
(199,520,c),
(204,544,l),
(190,551,o),
(168,556,o),
(147,556,cs),
(85,556,o),
(46,508,o),
(46,422,cs),
(46,338,o),
(84,305,o),
(110,291,c),
(110,287,l),
(85,271,o),
(48,238,o),
(48,139,cs),
(48,39,o),
(77,-10,o),
(137,-10,cs)
);
}
);
width = 439;
},
{
anchors = (
{
name = bottom;
pos = (406,0);
},
{
name = top;
pos = (225,536);
},
{
name = topright;
pos = (413,536);
}
);
layerId = "AA55D700-EA4F-438C-81A6-FEFC4FC5520F";
shapes = (
{
closed = 1;
nodes = (
(177,-10,o),
(207,16,o),
(223,59,c),
(225,59,l),
(242,16,o),
(271,-10,o),
(315,-10,cs),
(379,-10,o),
(414,51,o),
(414,156,cs),
(414,548,l),
(328,548,l),
(328,150,ls),
(328,89,o),
(317,57,o),
(293,57,cs),
(268,57,o),
(255,87,o),
(255,139,cs),
(255,160,l),
(193,160,l),
(193,139,ls),
(193,87,o),
(180,57,o),
(155,57,cs),
(131,57,o),
(120,91,o),
(120,158,cs),
(120,227,o),
(142,265,o),
(182,265,cs),
(208,265,l),
(208,325,l),
(182,325,ls),
(150,325,o),
(119,343,o),
(119,412,cs),
(119,463,o),
(136,491,o),
(168,491,cs),
(182,491,o),
(198,485,o),
(208,480,c),
(222,542,l),
(203,551,o),
(177,558,o),
(150,558,cs),
(69,558,o),
(34,494,o),
(34,416,cs),
(34,349,o),
(60,308,o),
(97,295,c),
(97,291,l),
(65,284,o),
(34,241,o),
(34,152,cs),
(34,50,o),
(70,-10,o),
(134,-10,cs)
);
}
);
width = 460;
},
{
anchors = (
{
name = bottom;
pos = (494,0);
},
{
name = top;
pos = (274,536);
},
{
name = topright;
pos = (502,536);
}
);
layerId = "71F2606D-B934-4F95-8EC7-C80FA20C45E9";
shapes = (
{
closed = 1;
nodes = (
(208,-10,o),
(247,13,o),
(265,48,c),
(269,48,l),
(288,13,o),
(327,-10,o),
(376,-10,cs),
(456,-10,o),
(502,49,o),
(502,152,cs),
(502,553,l),
(340,553,l),
(340,155,ls),
(340,128,o),
(333,114,o),
(320,114,cs),
(307,114,o),
(299,127,o),
(299,153,cs),
(299,175,l),
(236,175,l),
(236,153,ls),
(236,127,o),
(228,114,o),
(215,114,cs),
(201,114,o),
(194,135,o),
(194,175,cs),
(194,210,o),
(202,243,o),
(234,243,cs),
(259,243,l),
(259,340,l),
(237,340,ls),
(203,340,o),
(190,359,o),
(190,388,cs),
(190,424,o),
(209,439,o),
(230,439,cs),
(237,439,o),
(247,437,o),
(254,433,c),
(278,545,l),
(248,556,o),
(213,563,o),
(180,563,cs),
(73,563,o),
(32,490,o),
(32,413,cs),
(32,361,o),
(51,315,o),
(101,292,c),
(101,290,l),
(56,267,o),
(32,214,o),
(32,152,cs),
(32,49,o),
(78,-10,o),
(158,-10,cs)
);
}
);
width = 550;
}
);
metricLeft = "=nyoNyung-lao";
metricRight = "=nyoNyung-lao";
unicode = 3727;
},
{
glyphname = "ttha-lao";
lastChange = "2023-03-23 08:27:25 +0000";
layers = (
{
anchors = (
{
name = bottom;
pos = (442,0);
},
{
name = top;
pos = (373,536);
},
{
name = topright;
pos = (536,536);
}
);
layerId = "64BC062E-13E4-450B-B24E-D8A474022433";
shapes = (
{
closed = 1;
nodes = (
(159,-10,o),
(187,19,o),
(187,89,cs),
(187,359,ls),
(187,425,o),
(259,531,o),
(389,531,cs),
(500,531,o),
(520,454,o),
(520,366,cs),
(520,-147,l),
(546,-147,l),
(546,365,ls),
(546,492,o),
(499,556,o),
(388,556,cs),
(274,556,o),
(214,489,o),
(183,427,c),
(182,427,l),
(172,480,o),
(158,519,o),
(133,556,c),
(113,543,l),
(139,505,o),
(161,449,o),
(161,391,cs),
(161,85,ls),
(161,30,o),
(143,15,o),
(108,15,cs),
(93,15,o),
(83,18,o),
(70,22,c),
(65,-2,l),
(78,-7,o),
(94,-10,o),
(110,-10,cs)
);
}
);
width = 631;
},
{
anchors = (
{
name = bottom;
pos = (384,0);
},
{
name = top;
pos = (338,536);
},
{
name = topright;
pos = (522,536);
}
);
hints = (
{
horizontal = 1;
origin = (0,37);
target = (0,30);
type = Stem;
},
{
horizontal = 1;
origin = (0,6);
target = (0,22);
type = Stem;
},
{
origin = (0,10);
target = (0,11);
type = Stem;
},
{
horizontal = 1;
origin = (0,10);
target = up;
type = BottomGhost;
},
{
origin = (0,26);
target = (0,3);
type = Stem;
},
{
horizontal = 1;
origin = (0,22);
target = down;
type = TopGhost;
}
);
layerId = "6449CA81-A7C3-4005-93E5-765657812F1B";
shapes = (
{
closed = 1;
nodes = (
(157,-10,o),
(195,33,o),
(195,106,cs),
(195,357,ls),
(195,459,o),
(265,485,o),
(326,485,cs),
(411,485,o),
(444,434,o),
(444,347,cs),
(444,-174,l),
(532,-174,l),
(532,353,ls),
(532,489,o),
(464,558,o),
(343,558,cs),
(278,558,o),
(218,538,o),
(172,477,c),
(169,477,l),
(157,508,o),
(134,542,o),
(116,558,c),
(52,509,l),
(80,482,o),
(107,439,o),
(107,366,cs),
(107,102,ls),
(107,71,o),
(90,60,o),
(67,60,cs),
(57,60,o),
(45,62,o),
(33,66,c),
(20,4,l),
(44,-5,o),
(70,-10,o),
(92,-10,cs)
);
}
);
width = 614;
},
{
anchors = (
{
name = bottom;
pos = (359,0);
},
{
name = top;
pos = (358,536);
},
{
name = topright;
pos = (591,536);
}
);
layerId = "E5D3352E-10FF-4C03-AD9F-F95B1FD01257";
shapes = (
{
closed = 1;
nodes = (
(249,-10,o),
(305,43,o),
(305,139,cs),
(305,351,ls),
(305,399,o),
(327,419,o),
(360,419,cs),
(395,419,o),
(409,395,o),
(409,349,cs),
(409,-191,l),
(601,-191,l),
(601,371,ls),
(601,479,o),
(547,563,o),
(415,563,cs),
(336,563,o),
(279,533,o),
(241,488,c),
(238,488,l),
(230,511,o),
(192,548,o),
(163,563,c),
(44,459,l),
(97,414,o),
(113,379,o),
(113,309,cs),
(113,160,ls),
(113,142,o),
(106,134,o),
(87,134,cs),
(74,134,o),
(62,138,o),
(52,142,c),
(25,20,l),
(63,0,o),
(120,-10,o),
(159,-10,cs)
);
}
);
width = 646;
},
{
anchors = (
{
name = bottom;
pos = (293,0);
},
{
name = top;
pos = (256,536);
},
{
name = topright;
pos = (373,536);
}
);
layerId = "009F2F33-BFE3-455D-BDCF-6F386AA465CF";
shapes = (
{
closed = 1;
nodes = (
(111,-10,o),
(132,19,o),
(132,89,cs),
(132,378,ls),
(132,444,o),
(178,531,o),
(259,531,cs),
(334,531,o),
(353,455,o),
(353,366,cs),
(353,-147,l),
(380,-147,l),
(380,365,ls),
(380,494,o),
(340,556,o),
(259,556,cs),
(191,556,o),
(151,511,o),
(126,446,c),
(125,446,l),
(120,499,o),
(109,527,o),
(91,556,c),
(70,543,l),
(89,505,o),
(105,468,o),
(105,410,cs),
(105,85,ls),
(105,30,o),
(92,15,o),
(70,15,cs),
(60,15,o),
(53,18,o),
(44,22,c),
(39,-2,l),
(50,-7,o),
(62,-10,o),
(74,-10,cs)
);
}
);
width = 439;
},
{
anchors = (
{
name = bottom;
pos = (264,0);
},
{
name = top;
pos = (247,536);
},
{
name = topright;
pos = (388,536);
}
);
layerId = "AA55D700-EA4F-438C-81A6-FEFC4FC5520F";
shapes = (
{
closed = 1;
nodes = (
(139,-10,o),
(169,33,o),
(169,104,cs),
(169,357,ls),
(169,455,o),
(204,491,o),
(246,491,cs),
(294,491,o),
(309,442,o),
(309,354,cs),
(309,-171,l),
(395,-171,l),
(395,360,ls),
(395,496,o),
(355,558,o),
(264,558,cs),
(217,558,o),
(176,541,o),
(146,479,c),
(144,479,l),
(136,513,o),
(119,539,o),
(104,558,c),
(41,513,l),
(68,485,o),
(83,440,o),
(83,369,cs),
(83,100,ls),
(83,65,o),
(74,55,o),
(57,55,cs),
(49,55,o),
(41,57,o),
(33,61,c),
(21,4,l),
(41,-5,o),
(68,-10,o),
(86,-10,cs)
);
}
);
width = 441;
},
{
anchors = (
{
name = bottom;
pos = (299,0);
},
{
name = top;
pos = (303,536);
},
{
name = topright;
pos = (493,536);
}
);
layerId = "71F2606D-B934-4F95-8EC7-C80FA20C45E9";
shapes = (
{
closed = 1;
nodes = (
(221,-10,o),
(267,40,o),
(267,130,cs),
(267,354,ls),
(267,416,o),
(281,439,o),
(303,439,cs),
(329,439,o),
(339,409,o),
(339,349,cs),
(339,-186,l),
(501,-186,l),
(501,367,ls),
(501,483,o),
(459,563,o),
(352,563,cs),
(288,563,o),
(243,535,o),
(213,486,c),
(211,486,l),
(206,514,o),
(184,543,o),
(153,563,c),
(49,474,l),
(94,435,o),
(105,397,o),
(105,326,cs),
(105,143,ls),
(105,121,o),
(101,113,o),
(85,113,cs),
(75,113,o),
(66,116,o),
(58,120,c),
(35,16,l),
(67,-1,o),
(115,-10,o),
(147,-10,cs)
);
}
);
width = 549;
}
);
metricLeft = "=koKai-lao";
metricRight = "=koKai-lao";
unicode = 3728;
},
{
glyphname = "dda-lao";
lastChange = "2023-03-23 08:27:36 +0000";
layers = (
{
anchors = (
{
name = bottom;
pos = (591,0);
},
{
name = top;
pos = (379,536);
},
{
name = topright;
pos = (581,536);
}
);
layerId = "64BC062E-13E4-450B-B24E-D8A474022433";
shapes = (
{
closed = 1;
nodes = (
(304,-10,o),
(352,44,o),
(352,142,cs),
(352,402,ls),
(352,491,o),
(387,534,o),
(459,534,cs),
(530,534,o),
(565,491,o),
(565,403,cs),
(565,0,l),
(591,0,l),
(591,404,ls),
(591,502,o),
(544,556,o),
(459,556,cs),
(374,556,o),
(326,502,o),
(326,404,cs),
(326,143,ls),
(326,55,o),
(291,12,o),
(219,12,cs),
(148,12,o),
(113,55,o),
(113,143,cs),
(113,239,ls),
(113,296,o),
(139,327,o),
(174,367,cs),
(212,410,o),
(225,423,o),
(225,487,cs),
(225,548,l),
(206,548,l),
(198,496,l),
(178,475,o),
(160,471,o),
(141,471,cs),
(102,471,o),
(86,487,o),
(86,548,c),
(61,548,l),
(61,528,ls),
(61,473,o),
(92,449,o),
(134,449,cs),
(165,449,o),
(186,462,o),
(198,475,c),
(201,474,l),
(201,438,o),
(192,425,o),
(153,380,cs),
(120,342,o),
(87,303,o),
(87,243,cs),
(87,142,ls),
(87,44,o),
(134,-10,o),
(219,-10,cs)
);
}
);
width = 676;
},
{
anchors = (
{
name = bottom;
pos = (656,0);
},
{
name = top;
pos = (386,536);
},
{
name = topright;
pos = (646,536);
}
);
hints = (
{
horizontal = 1;
origin = (0,60);
target = (0,22);
type = Stem;
},
{
horizontal = 1;
origin = (0,6);
target = (0,15);
type = Stem;
},
{
horizontal = 1;
origin = (0,10);
target = up;
type = BottomGhost;
},
{
origin = (0,10);
target = (0,11);
type = Stem;
},
{
horizontal = 1;
origin = (0,42);
target = down;
type = TopGhost;
},
{
horizontal = 1;
origin = (0,33);
target = down;
type = TopGhost;
},
{
origin = (0,56);
target = (0,26);
type = Stem;
}
);
layerId = "6449CA81-A7C3-4005-93E5-765657812F1B";
shapes = (
{
closed = 1;
nodes = (
(362,-10,o),
(416,50,o),
(416,168,cs),
(416,383,ls),
(416,454,o),
(439,485,o),
(492,485,cs),
(545,485,o),
(568,454,o),
(568,383,cs),
(568,0,l),
(656,0,l),
(656,380,ls),
(656,498,o),
(602,558,o),
(493,558,cs),
(384,558,o),
(330,498,o),
(330,380,cs),
(330,165,ls),
(330,97,o),
(305,63,o),
(254,63,cs),
(204,63,o),
(178,97,o),
(178,165,cs),
(178,234,ls),
(178,304,o),
(205,323,o),
(236,362,cs),
(278,416,o),
(279,444,o),
(279,503,cs),
(279,548,l),
(230,548,l),
(211,507,l),
(198,496,o),
(180,491,o),
(166,491,cs),
(143,491,o),
(134,508,o),
(134,548,c),
(56,548,l),
(56,527,ls),
(56,467,o),
(90,433,o),
(138,433,cs),
(162,433,o),
(181,441,o),
(196,452,c),
(199,450,l),
(197,430,o),
(180,412,o),
(159,389,cs),
(125,350,o),
(90,314,o),
(90,236,cs),
(90,168,ls),
(90,50,o),
(145,-10,o),
(254,-10,cs)
);
}
);
width = 738;
},
{
anchors = (
{
name = bottom;
pos = (752,0);
},
{
name = top;
pos = (481,536);
},
{
name = topright;
pos = (742,536);
}
);
layerId = "E5D3352E-10FF-4C03-AD9F-F95B1FD01257";
shapes = (
{
closed = 1;
nodes = (
(445,-10,o),
(518,52,o),
(518,181,cs),
(518,390,ls),
(518,409,o),
(526,419,o),
(543,419,cs),
(560,419,o),
(568,409,o),
(568,390,cs),
(568,0,l),
(752,0,l),
(752,372,ls),
(752,499,o),
(685,563,o),
(552,563,cs),
(420,563,o),
(353,499,o),
(353,372,cs),
(353,187,ls),
(353,153,o),
(335,133,o),
(303,133,cs),
(271,133,o),
(251,153,o),
(251,187,cs),
(251,234,ls),
(251,291,o),
(271,308,o),
(294,344,cs),
(316,379,o),
(323,399,o),
(323,466,cs),
(323,548,l),
(241,548,l),
(225,512,l),
(214,502,o),
(203,499,o),
(194,499,cs),
(175,499,o),
(167,513,o),
(167,548,c),
(39,548,l),
(39,501,ls),
(39,431,o),
(74,392,o),
(125,392,cs),
(136,392,o),
(148,394,o),
(160,398,c),
(163,397,l),
(161,382,o),
(140,362,o),
(131,352,cs),
(85,301,o),
(69,259,o),
(69,208,cs),
(69,181,ls),
(69,57,o),
(147,-10,o),
(293,-10,cs)
);
}
);
width = 797;
},
{
anchors = (
{
name = bottom;
pos = (428,0);
},
{
name = top;
pos = (272,536);
},
{
name = topright;
pos = (421,536);
}
);
layerId = "009F2F33-BFE3-455D-BDCF-6F386AA465CF";
shapes = (
{
closed = 1;
nodes = (
(229,-10,o),
(261,40,o),
(261,142,cs),
(261,402,ls),
(261,491,o),
(284,534,o),
(332,534,cs),
(378,534,o),
(401,491,o),
(401,403,cs),
(401,0,l),
(428,0,l),
(428,404,ls),
(428,506,o),
(397,556,o),
(332,556,cs),
(266,556,o),
(234,506,o),
(234,404,cs),
(234,143,ls),
(234,55,o),
(211,12,o),
(164,12,cs),
(117,12,o),
(94,55,o),
(94,143,cs),
(94,239,ls),
(94,296,o),
(111,327,o),
(135,367,cs),
(162,411,o),
(170,423,o),
(170,487,cs),
(170,548,l),
(153,548,l),
(146,496,l),
(133,475,o),
(120,471,o),
(108,471,cs),
(83,471,o),
(72,487,o),
(72,548,c),
(48,548,l),
(48,528,ls),
(48,473,o),
(70,449,o),
(100,449,cs),
(121,449,o),
(135,462,o),
(144,475,c),
(146,474,l),
(146,438,o),
(138,425,o),
(113,380,cs),
(91,341,o),
(67,303,o),
(67,243,cs),
(67,142,ls),
(67,40,o),
(99,-10,o),
(164,-10,cs)
);
}
);
width = 487;
},
{
anchors = (
{
name = bottom;
pos = (470,0);
},
{
name = top;
pos = (288,536);
},
{
name = topright;
pos = (463,536);
}
);
layerId = "AA55D700-EA4F-438C-81A6-FEFC4FC5520F";
shapes = (
{
closed = 1;
nodes = (
(264,-10,o),
(304,42,o),
(304,152,cs),
(304,401,ls),
(304,464,o),
(316,491,o),
(345,491,cs),
(374,491,o),
(387,464,o),
(387,402,cs),
(387,0,l),
(470,0,l),
(470,396,ls),
(470,505,o),
(430,558,o),
(347,558,cs),
(265,558,o),
(227,507,o),
(227,396,cs),
(227,146,ls),
(227,84,o),
(214,57,o),
(185,57,cs),
(156,57,o),
(144,84,o),
(144,146,cs),
(144,234,ls),
(144,305,o),
(161,324,o),
(181,363,cs),
(209,418,o),
(210,446,o),
(210,506,cs),
(210,548,l),
(166,548,l),
(153,507,l),
(144,496,o),
(133,490,o),
(124,490,cs),
(109,490,o),
(102,508,o),
(102,548,c),
(38,548,l),
(38,529,ls),
(38,469,o),
(62,436,o),
(97,436,cs),
(111,436,o),
(123,443,o),
(133,455,c),
(135,453,l),
(134,432,o),
(122,415,o),
(108,392,cs),
(83,352,o),
(61,317,o),
(61,238,cs),
(61,152,ls),
(61,42,o),
(100,-10,o),
(182,-10,cs)
);
}
);
width = 516;
},
{
anchors = (
{
name = bottom;
pos = (611,0);
},
{
name = top;
pos = (394,536);
},
{
name = topright;
pos = (603,536);
}
);
layerId = "71F2606D-B934-4F95-8EC7-C80FA20C45E9";
shapes = (
{
closed = 1;
nodes = (
(367,-10,o),
(430,51,o),
(430,173,cs),
(430,395,ls),
(430,422,o),
(438,438,o),
(450,438,cs),
(463,438,o),
(470,422,o),
(470,395,cs),
(470,0,l),
(623,0,l),
(623,375,ls),
(623,494,o),
(559,563,o),
(454,563,cs),
(352,563,o),
(292,499,o),
(292,380,cs),
(292,166,ls),
(292,133,o),
(277,114,o),
(252,114,cs),
(227,114,o),
(212,133,o),
(212,166,cs),
(212,234,ls),
(212,295,o),
(226,318,o),
(242,354,cs),
(260,394,o),
(272,417,o),
(272,482,cs),
(272,553,l),
(197,553,l),
(185,516,l),
(177,506,o),
(169,502,o),
(162,502,cs),
(148,502,o),
(142,517,o),
(142,553,c),
(37,553,l),
(37,514,ls),
(37,447,o),
(65,409,o),
(105,409,cs),
(112,409,o),
(121,413,o),
(130,419,c),
(132,418,l),
(130,401,o),
(114,382,o),
(106,369,cs),
(75,318,o),
(59,275,o),
(59,216,cs),
(59,173,ls),
(59,51,o),
(121,-10,o),
(244,-10,cs)
);
}
);
width = 671;
}
);
metricRight = "=thoThung-lao";
unicode = 3729;
},
{
glyphname = "ddha-lao";
lastChange = "2023-03-23 08:27:43 +0000";
layers = (
{
anchors = (
{
name = bottom;
pos = (855,0);
},
{
name = top;
pos = (685,536);
},
{
name = topright;
pos = (865,536);
}
);
layerId = "64BC062E-13E4-450B-B24E-D8A474022433";
shapes = (
{
closed = 1;
nodes = (
(289,-10,o),
(313,-5,o),
(326,1,c),
(322,23,l),
(307,19,o),
(289,15,o),
(262,15,cs),
(130,15,o),
(91,107,o),
(91,282,cs),
(91,461,o),
(132,533,o),
(208,533,cs),
(253,533,o),
(285,508,o),
(293,460,c),
(315,460,l),
(326,504,o),
(347,533,o),
(404,533,cs),
(464,533,o),
(495,501,o),
(495,429,cs),
(495,155,ls),
(495,97,o),
(473,41,o),
(447,3,c),
(467,-10,l),
(492,27,o),
(504,62,o),
(514,109,c),
(515,109,l),
(548,36,o),
(620,-10,o),
(701,-10,cs),
(801,-10,o),
(865,60,o),
(865,169,cs),
(865,548,l),
(839,548,l),
(839,170,ls),
(839,71,o),
(787,12,o),
(699,12,cs),
(598,12,o),
(521,92,o),
(521,196,cs),
(521,427,ls),
(521,511,o),
(483,556,o),
(409,556,cs),
(348,556,o),
(318,526,o),
(305,492,c),
(303,492,l),
(292,528,o),
(261,556,o),
(206,556,cs),
(124,556,o),
(65,492,o),
(65,282,cs),
(65,96,o),
(111,-10,o),
(257,-10,cs)
);
}
);
width = 950;
},
{
anchors = (
{
name = bottom;
pos = (881,0);
},
{
name = top;
pos = (680,536);
},
{
name = topright;
pos = (891,536);
}
);
hints = (
{
horizontal = 1;
origin = (0,63);
target = (0,6);
type = Stem;
},
{
horizontal = 1;
origin = (0,12);
target = (0,57);
type = Stem;
},
{
horizontal = 1;
origin = (0,39);
target = down;
type = TopGhost;
},
{
origin = (0,40);
target = (0,37);
type = Stem;
},
{
origin = (0,22);
target = (0,47);
type = Stem;
},
{
horizontal = 1;
origin = (0,27);
target = up;
type = BottomGhost;
},
{
origin = (0,60);
target = (0,9);
type = Stem;
},
{
horizontal = 1;
origin = (0,34);
target = (0,43);
type = Stem;
}
);
layerId = "6449CA81-A7C3-4005-93E5-765657812F1B";
shapes = (
{
closed = 1;
nodes = (
(297,-10,o),
(324,-6,o),
(345,2,c),
(334,68,l),
(318,63,o),
(301,60,o),
(282,60,cs),
(188,60,o),
(148,133,o),
(148,275,cs),
(148,421,o),
(190,485,o),
(240,485,cs),
(275,485,o),
(292,453,o),
(297,407,c),
(355,407,l),
(360,450,o),
(379,485,o),
(418,485,cs),
(459,485,o),
(476,446,o),
(476,383,cs),
(476,182,ls),
(476,123,o),
(456,74,o),
(419,39,c),
(483,-10,l),
(503,7,o),
(519,33,o),
(530,67,c),
(533,67,l),
(567,16,o),
(623,-10,o),
(699,-10,cs),
(824,-10,o),
(891,61,o),
(891,195,cs),
(891,548,l),
(803,548,l),
(803,201,ls),
(803,110,o),
(763,63,o),
(684,63,cs),
(607,63,o),
(564,109,o),
(564,191,cs),
(564,390,ls),
(564,494,o),
(520,558,o),
(435,558,cs),
(378,558,o),
(343,530,o),
(328,491,c),
(324,491,l),
(310,528,o),
(283,558,o),
(227,558,cs),
(134,558,o),
(60,476,o),
(60,279,cs),
(60,99,o),
(122,-10,o),
(269,-10,cs)
);
}
);
width = 973;
},
{
anchors = (
{
name = bottom;
pos = (878,0);
},
{
name = top;
pos = (642,536);
},
{
name = topright;
pos = (888,536);
}
);
layerId = "E5D3352E-10FF-4C03-AD9F-F95B1FD01257";
shapes = (
{
closed = 1;
nodes = (
(281,-10,o),
(314,-4,o),
(347,9,c),
(324,141,l),
(310,136,o),
(293,134,o),
(281,134,cs),
(235,134,o),
(217,165,o),
(217,286,cs),
(217,381,o),
(228,419,o),
(256,419,cs),
(271,419,o),
(282,407,o),
(284,381,c),
(349,381,l),
(352,407,o),
(361,419,o),
(377,419,cs),
(393,419,o),
(400,408,o),
(400,380,cs),
(400,239,ls),
(400,169,o),
(384,114,o),
(352,77,c),
(473,-10,l),
(496,11,o),
(513,37,o),
(524,65,c),
(527,65,l),
(569,16,o),
(627,-10,o),
(696,-10,cs),
(815,-10,o),
(888,66,o),
(888,189,cs),
(888,553,l),
(696,553,l),
(696,204,ls),
(696,157,o),
(679,134,o),
(644,134,cs),
(609,134,o),
(592,157,o),
(592,204,cs),
(592,382,ls),
(592,494,o),
(553,563,o),
(447,563,cs),
(395,563,o),
(345,546,o),
(318,510,c),
(316,510,l),
(298,546,o),
(252,563,o),
(207,563,cs),
(100,563,o),
(25,467,o),
(25,267,cs),
(25,98,o),
(79,-10,o),
(243,-10,cs)
);
}
);
width = 933;
},
{
anchors = (
{
name = bottom;
pos = (625,0);
},
{
name = top;
pos = (489,536);
},
{
name = topright;
pos = (632,536);
}
);
layerId = "009F2F33-BFE3-455D-BDCF-6F386AA465CF";
shapes = (
{
closed = 1;
nodes = (
(204,-10,o),
(221,-5,o),
(231,1,c),
(227,23,l),
(217,19,o),
(204,15,o),
(186,15,cs),
(99,15,o),
(72,107,o),
(72,281,cs),
(72,462,o),
(101,533,o),
(150,533,cs),
(180,533,o),
(200,507,o),
(205,459,c),
(227,459,l),
(234,503,o),
(248,533,o),
(285,533,cs),
(324,533,o),
(344,501,o),
(344,429,cs),
(344,155,ls),
(344,97,o),
(329,41,o),
(309,3,c),
(329,-10,l),
(346,27,o),
(355,62,o),
(363,107,c),
(364,107,l),
(379,48,o),
(427,-10,o),
(501,-10,cs),
(582,-10,o),
(632,60,o),
(632,169,cs),
(632,548,l),
(605,548,l),
(605,170,ls),
(605,71,o),
(564,12,o),
(499,12,cs),
(418,12,o),
(371,91,o),
(371,196,cs),
(371,427,ls),
(371,511,o),
(343,556,o),
(290,556,cs),
(248,556,o),
(226,526,o),
(217,492,c),
(215,492,l),
(207,528,o),
(186,556,o),
(147,556,cs),
(88,556,o),
(45,492,o),
(45,282,cs),
(45,96,o),
(79,-10,o),
(182,-10,cs)
);
}
);
width = 691;
},
{
anchors = (
{
name = bottom;
pos = (632,0);
},
{
name = top;
pos = (481,536);
},
{
name = topright;
pos = (639,536);
}
);
layerId = "AA55D700-EA4F-438C-81A6-FEFC4FC5520F";
shapes = (
{
closed = 1;
nodes = (
(202,-10,o),
(223,-6,o),
(241,2,c),
(230,62,l),
(220,58,o),
(208,54,o),
(196,54,cs),
(140,54,o),
(119,129,o),
(119,278,cs),
(119,424,o),
(139,491,o),
(170,491,cs),
(190,491,o),
(202,460,o),
(205,414,c),
(243,414,l),
(246,457,o),
(257,491,o),
(279,491,cs),
(303,491,o),
(313,453,o),
(313,389,cs),
(313,179,ls),
(313,120,o),
(300,70,o),
(277,35,c),
(334,-10,l),
(349,10,o),
(360,37,o),
(367,72,c),
(369,72,l),
(398,18,o),
(434,-10,o),
(492,-10,cs),
(584,-10,o),
(639,59,o),
(639,195,cs),
(639,548,l),
(553,548,l),
(553,197,ls),
(553,107,o),
(522,63,o),
(475,63,cs),
(438,63,o),
(398,89,o),
(398,191,cs),
(399,395,ls),
(399,496,o),
(370,558,o),
(308,558,cs),
(266,558,o),
(239,530,o),
(225,491,c),
(223,491,l),
(212,528,o),
(188,558,o),
(148,558,cs),
(83,558,o),
(33,477,o),
(33,276,cs),
(33,99,o),
(72,-10,o),
(181,-10,cs)
);
}
);
width = 685;
},
{
anchors = (
{
name = bottom;
pos = (711,0);
},
{
name = top;
pos = (523,536);
},
{
name = topright;
pos = (719,536);
}
);
layerId = "71F2606D-B934-4F95-8EC7-C80FA20C45E9";
shapes = (
{
closed = 1;
nodes = (
(238,-10,o),
(265,-5,o),
(293,7,c),
(273,120,l),
(262,115,o),
(249,113,o),
(240,113,cs),
(207,113,o),
(194,156,o),
(194,283,cs),
(194,394,o),
(200,439,o),
(221,439,cs),
(231,439,o),
(240,421,o),
(241,390,c),
(294,390,l),
(296,420,o),
(302,439,o),
(313,439,cs),
(324,439,o),
(329,420,o),
(329,382,cs),
(329,223,ls),
(329,156,o),
(317,102,o),
(292,66,c),
(393,-10,l),
(412,10,o),
(425,36,o),
(434,66,c),
(437,66,l),
(466,16,o),
(509,-10,o),
(568,-10,cs),
(674,-10,o),
(719,74,o),
(719,191,cs),
(719,553,l),
(557,553,l),
(557,188,ls),
(557,139,o),
(546,114,o),
(524,114,cs),
(502,114,o),
(491,139,o),
(491,188,cs),
(491,385,ls),
(491,495,o),
(460,563,o),
(373,563,cs),
(332,563,o),
(291,542,o),
(268,506,c),
(267,506,l),
(252,542,o),
(214,563,o),
(179,563,cs),
(92,563,o),
(32,471,o),
(32,270,cs),
(32,98,o),
(75,-10,o),
(207,-10,cs)
);
}
);
width = 767;
}
);
metricLeft = "toTa-lao";
metricRight = "moMa-lao";
unicode = 3730;
},
{
glyphname = "nna-lao";
lastChange = "2023-03-23 08:27:57 +0000";
layers = (
{
anchors = (
{
name = bottom;
pos = (609,0);
},
{
name = top;
pos = (348,536);
},
{
name = topright;
pos = (609,536);
}
);
layerId = "64BC062E-13E4-450B-B24E-D8A474022433";
shapes = (
{
closed = 1;
nodes = (
(228,-10,o),
(244,-7,o),
(256,-1,c),
(250,22,l),
(242,18,o),
(228,15,o),
(210,15,cs),
(132,15,o),
(93,102,o),
(93,273,cs),
(93,446,o),
(138,534,o),
(229,534,cs),
(299,534,o),
(334,477,o),
(334,397,cs),
(334,0,l),
(360,0,l),
(360,397,ls),
(360,477,o),
(399,534,o),
(478,534,cs),
(543,534,o),
(583,494,o),
(583,403,cs),
(583,0,l),
(609,0,l),
(609,399,ls),
(609,505,o),
(560,556,o),
(478,556,cs),
(405,556,o),
(369,516,o),
(348,463,c),
(346,463,l),
(331,516,o),
(294,556,o),
(228,556,cs),
(119,556,o),
(65,461,o),
(65,273,cs),
(65,85,o),
(113,-10,o),
(208,-10,cs)
);
}
);
width = 694;
},
{
anchors = (
{
name = bottom;
pos = (678,0);
},
{
name = top;
pos = (392,536);
},
{
name = topright;
pos = (678,536);
}
);
hints = (
{
horizontal = 1;
origin = (0,43);
target = (0,6);
type = Stem;
},
{
horizontal = 1;
origin = (0,12);
target = (0,37);
type = Stem;
},
{
horizontal = 1;
origin = (0,16);
target = up;
type = BottomGhost;
},
{
origin = (0,25);
target = (0,26);
type = Stem;
},
{
origin = (0,40);
target = (0,9);
type = Stem;
}
);
layerId = "6449CA81-A7C3-4005-93E5-765657812F1B";
shapes = (
{
closed = 1;
nodes = (
(253,-10,o),
(277,-6,o),
(295,2,c),
(284,68,l),
(271,63,o),
(257,60,o),
(242,60,cs),
(176,60,o),
(148,125,o),
(148,273,cs),
(148,421,o),
(183,485,o),
(265,485,cs),
(321,485,o),
(349,453,o),
(349,388,cs),
(349,0,l),
(435,0,l),
(435,388,ls),
(435,453,o),
(462,485,o),
(515,485,cs),
(564,485,o),
(590,457,o),
(590,391,cs),
(590,0,l),
(678,0,l),
(678,390,ls),
(678,503,o),
(622,558,o),
(532,558,cs),
(465,558,o),
(416,527,o),
(395,486,c),
(389,486,l),
(369,527,o),
(322,558,o),
(258,558,cs),
(126,558,o),
(60,463,o),
(60,273,cs),
(60,85,o),
(117,-10,o),
(229,-10,cs)
);
}
);
width = 758;
},
{
anchors = (
{
name = bottom;
pos = (723,0);
},
{
name = top;
pos = (410,536);
},
{
name = topright;
pos = (723,536);
}
);
layerId = "E5D3352E-10FF-4C03-AD9F-F95B1FD01257";
shapes = (
{
closed = 1;
nodes = (
(263,-10,o),
(291,-5,o),
(317,5,c),
(294,137,l),
(288,135,o),
(279,134,o),
(272,134,cs),
(234,134,o),
(217,177,o),
(217,276,cs),
(217,376,o),
(239,419,o),
(291,419,cs),
(320,419,o),
(338,399,o),
(338,374,cs),
(338,0,l),
(482,0,l),
(482,394,ls),
(482,408,o),
(493,419,o),
(512,419,cs),
(530,419,o),
(541,408,o),
(541,394,cs),
(541,0,l),
(723,0,l),
(723,371,ls),
(723,499,o),
(649,563,o),
(551,563,cs),
(480,563,o),
(436,530,o),
(413,498,c),
(407,498,l),
(382,530,o),
(333,563,o),
(255,563,cs),
(102,563,o),
(25,467,o),
(25,276,cs),
(25,86,o),
(95,-10,o),
(233,-10,cs)
);
}
);
width = 768;
},
{
anchors = (
{
name = bottom;
pos = (431,0);
},
{
name = top;
pos = (245,536);
},
{
name = topright;
pos = (431,536);
}
);
layerId = "009F2F33-BFE3-455D-BDCF-6F386AA465CF";
shapes = (
{
closed = 1;
nodes = (
(164,-10,o),
(176,-7,o),
(185,-1,c),
(181,22,l),
(174,18,o),
(164,15,o),
(151,15,cs),
(96,15,o),
(72,93,o),
(72,273,cs),
(72,455,o),
(100,534,o),
(163,534,cs),
(208,534,o),
(232,477,o),
(232,397,cs),
(232,0,l),
(258,0,l),
(258,397,ls),
(258,477,o),
(286,534,o),
(340,534,cs),
(382,534,o),
(404,499,o),
(404,420,cs),
(404,0,l),
(431,0,l),
(431,417,ls),
(431,514,o),
(401,556,o),
(341,556,cs),
(286,556,o),
(260,521,o),
(246,469,c),
(244,469,l),
(232,521,o),
(209,556,o),
(162,556,cs),
(80,556,o),
(45,470,o),
(45,273,cs),
(45,76,o),
(76,-10,o),
(149,-10,cs)
);
}
);
width = 491;
},
{
anchors = (
{
name = bottom;
pos = (488,0);
},
{
name = top;
pos = (282,536);
},
{
name = topright;
pos = (487,536);
}
);
layerId = "AA55D700-EA4F-438C-81A6-FEFC4FC5520F";
shapes = (
{
closed = 1;
nodes = (
(181,-10,o),
(197,-8,o),
(210,-3,c),
(199,57,l),
(194,55,o),
(187,54,o),
(181,54,cs),
(138,54,o),
(119,117,o),
(119,261,cs),
(119,421,o),
(142,491,o),
(194,491,cs),
(229,491,o),
(246,456,o),
(246,389,cs),
(246,0,l),
(318,0,l),
(318,389,ls),
(318,456,o),
(333,491,o),
(363,491,cs),
(390,491,o),
(405,462,o),
(405,393,cs),
(405,0,l),
(488,0,l),
(488,391,ls),
(488,503,o),
(444,558,o),
(380,558,cs),
(331,558,o),
(300,526,o),
(284,483,c),
(280,483,l),
(264,526,o),
(233,558,o),
(183,558,cs),
(83,558,o),
(33,458,o),
(33,258,cs),
(33,80,o),
(77,-10,o),
(166,-10,cs)
);
}
);
width = 534;
},
{
anchors = (
{
name = bottom;
pos = (627,0);
},
{
name = top;
pos = (358,536);
},
{
name = topright;
pos = (627,536);
}
);
layerId = "71F2606D-B934-4F95-8EC7-C80FA20C45E9";
shapes = (
{
closed = 1;
nodes = (
(227,-10,o),
(251,-6,o),
(273,2,c),
(253,115,l),
(249,113,o),
(244,113,o),
(242,113,cs),
(209,113,o),
(194,162,o),
(194,276,cs),
(194,390,o),
(213,439,o),
(257,439,cs),
(281,439,o),
(294,424,o),
(294,398,cs),
(294,0,l),
(424,0,l),
(424,398,ls),
(424,424,o),
(433,439,o),
(449,439,cs),
(465,439,o),
(474,424,o),
(474,398,cs),
(474,0,l),
(627,0,l),
(627,378,ls),
(627,502,o),
(568,563,o),
(484,563,cs),
(426,563,o),
(380,534,o),
(361,496,c),
(357,496,l),
(338,534,o),
(290,563,o),
(231,563,cs),
(99,563,o),
(32,467,o),
(32,276,cs),
(32,86,o),
(89,-10,o),
(204,-10,cs)
);
}
);
width = 675;
}
);
metricLeft = "doDek-lao";
metricRight = "=phoPhu-lao";
unicode = 3731;
},
{
glyphname = "soSang-lao";
lastChange = "2023-02-08 20:02:32 +0000";
layers = (
{
anchors = (
{
name = bottom;
pos = (375,0);
},
{
name = top;
pos = (291,536);
},
{
name = topright;
pos = (471,536);
}
);
layerId = "64BC062E-13E4-450B-B24E-D8A474022433";
shapes = (
{
closed = 1;
nodes = (
(479,-147,l),
(479,22,ls),
(479,72,o),
(452,92,o),
(411,92,cs),
(331,92,o),
(262,15,o),
(174,15,cs),
(122,15,o),
(93,42,o),
(93,97,cs),
(93,179,o),
(158,199,o),
(272,233,cs),
(390,268,o),
(478,298,o),
(478,402,cs),
(478,487,o),
(418,556,o),
(271,556,cs),
(120,556,o),
(65,483,o),
(65,410,cs),
(65,393,o),
(68,368,o),
(75,355,c),
(100,365,l),
(95,377,o),
(93,396,o),
(93,410,cs),
(93,493,o),
(168,531,o),
(272,531,cs),
(378,531,o),
(450,491,o),
(450,401,cs),
(450,317,o),
(388,296,o),
(265,257,cs),
(135,216,o),
(65,193,o),
(65,99,cs),
(65,20,o),
(116,-10,o),
(176,-10,cs),
(271,-10,o),
(337,67,o),
(411,67,cs),
(443,67,o),
(453,53,o),
(453,21,cs),
(453,-147,l)
);
}
);
width = 544;
},
{
anchors = (
{
name = bottom;
pos = (395,0);
},
{
name = top;
pos = (320,536);
},
{
name = topright;
pos = (523,536);
}
);
hints = (
{
horizontal = 1;
origin = (0,44);
target = (0,7);
type = Stem;
},
{
horizontal = 1;
origin = (0,32);
target = (0,19);
type = Stem;
},
{
horizontal = 1;
origin = (0,51);
target = up;
type = BottomGhost;
},
{
origin = (0,41);
target = (0,10);
type = Stem;
},
{
origin = (0,50);
target = (0,1);
type = Stem;
}
);
layerId = "6449CA81-A7C3-4005-93E5-765657812F1B";
shapes = (
{
closed = 1;
nodes = (
(542,-174,l),
(542,24,ls),
(542,105,o),
(492,132,o),
(440,132,cs),
(354,132,o),
(273,60,o),
(209,60,cs),
(173,60,o),
(153,83,o),
(153,111,cs),
(153,168,o),
(236,189,o),
(315,213,cs),
(422,245,o),
(541,281,o),
(541,392,cs),
(541,480,o),
(467,558,o),
(306,558,cs),
(142,558,o),
(73,477,o),
(73,393,cs),
(73,362,o),
(82,331,o),
(104,312,c),
(174,347,l),
(164,359,o),
(157,371,o),
(157,392,cs),
(157,456,o),
(225,485,o),
(307,485,cs),
(388,485,o),
(456,457,o),
(456,393,cs),
(456,329,o),
(386,311,o),
(292,284,cs),
(186,253,o),
(68,219,o),
(68,109,cs),
(68,27,o),
(134,-10,o),
(205,-10,cs),
(302,-10,o),
(369,59,o),
(421,59,cs),
(442,59,o),
(455,48,o),
(455,22,cs),
(455,-174,l)
);
}
);
width = 615;
},
{
anchors = (
{
name = bottom;
pos = (348,0);
},
{
name = top;
pos = (316,536);
},
{
name = topright;
pos = (545,536);
}
);
layerId = "E5D3352E-10FF-4C03-AD9F-F95B1FD01257";
shapes = (
{
closed = 1;
nodes = (
(555,-191,l),
(555,57,ls),
(555,139,o),
(528,191,o),
(440,191,cs),
(347,191,o),
(264,134,o),
(226,134,cs),
(219,134,o),
(213,136,o),
(213,142,cs),
(213,159,o),
(270,180,o),
(348,213,cs),
(494,275,o),
(555,312,o),
(555,401,cs),
(555,494,o),
(488,563,o),
(303,563,cs),
(124,563,o),
(35,498,o),
(35,403,cs),
(35,349,o),
(64,304,o),
(97,285,c),
(235,355,l),
(226,365,o),
(221,375,o),
(221,387,cs),
(221,415,o),
(247,431,o),
(299,431,cs),
(349,431,o),
(367,416,o),
(367,395,cs),
(367,369,o),
(339,361,o),
(220,307,cs),
(95,250,o),
(25,210,o),
(25,117,cs),
(25,24,o),
(95,-10,o),
(180,-10,cs),
(276,-10,o),
(338,33,o),
(376,33,cs),
(391,33,o),
(398,26,o),
(398,12,cs),
(398,-191,l)
);
}
);
width = 595;
},
{
anchors = (
{
name = bottom;
pos = (261,0);
},
{
name = top;
pos = (208,536);
},
{
name = topright;
pos = (337,536);
}
);
layerId = "009F2F33-BFE3-455D-BDCF-6F386AA465CF";
shapes = (
{
closed = 1;
nodes = (
(348,-147,l),
(348,8,ls),
(348,62,o),
(325,92,o),
(284,92,cs),
(219,92,o),
(192,15,o),
(135,15,cs),
(96,15,o),
(70,51,o),
(70,108,cs),
(70,189,o),
(124,210,o),
(197,244,cs),
(277,281,o),
(343,315,o),
(343,412,cs),
(343,491,o),
(299,556,o),
(196,556,cs),
(86,556,o),
(47,481,o),
(47,411,cs),
(47,392,o),
(50,368,o),
(57,355,c),
(80,365,l),
(76,377,o),
(74,395,o),
(74,411,cs),
(74,492,o),
(125,531,o),
(196,531,cs),
(265,531,o),
(316,495,o),
(316,411,cs),
(316,337,o),
(276,310,o),
(189,268,cs),
(113,231,o),
(42,206,o),
(42,107,cs),
(42,31,o),
(84,-10,o),
(136,-10,cs),
(207,-10,o),
(232,69,o),
(281,69,cs),
(307,69,o),
(321,47,o),
(321,7,cs),
(321,-147,l)
);
}
);
width = 391;
},
{
anchors = (
{
name = bottom;
pos = (256,0);
},
{
name = top;
pos = (219,536);
},
{
name = topright;
pos = (366,536);
}
);
layerId = "AA55D700-EA4F-438C-81A6-FEFC4FC5520F";
shapes = (
{
closed = 1;
nodes = (
(376,-171,l),
(376,24,ls),
(376,99,o),
(350,127,o),
(308,127,cs),
(240,127,o),
(187,54,o),
(150,54,cs),
(128,54,o),
(118,78,o),
(118,108,cs),
(118,169,o),
(161,188,o),
(226,215,cs),
(316,253,o),
(375,285,o),
(375,389,cs),
(375,482,o),
(327,558,o),
(211,558,cs),
(91,558,o),
(38,477,o),
(38,399,cs),
(38,364,o),
(49,338,o),
(67,317,c),
(131,349,l),
(125,361,o),
(122,374,o),
(122,394,cs),
(122,461,o),
(157,491,o),
(208,491,cs),
(258,491,o),
(291,461,o),
(291,394,cs),
(291,326,o),
(257,311,o),
(179,280,cs),
(103,250,o),
(34,220,o),
(34,113,cs),
(34,25,o),
(80,-10,o),
(131,-10,cs),
(202,-10,o),
(244,60,o),
(280,60,cs),
(294,60,o),
(301,49,o),
(301,22,cs),
(301,-171,l)
);
}
);
width = 416;
},
{
anchors = (
{
name = bottom;
pos = (289,0);
},
{
name = top;
pos = (268,536);
},
{
name = topright;
pos = (453,536);
}
);
layerId = "71F2606D-B934-4F95-8EC7-C80FA20C45E9";
shapes = (
{
closed = 1;
nodes = (
(461,-186,l),
(461,47,ls),
(461,127,o),
(441,174,o),
(369,174,cs),
(287,174,o),
(256,113,o),
(214,113,cs),
(200,113,o),
(191,120,o),
(191,133,cs),
(191,162,o),
(234,183,o),
(296,213,cs),
(412,269,o),
(461,302,o),
(461,395,cs),
(461,492,o),
(408,563,o),
(260,563,cs),
(114,563,o),
(40,493,o),
(40,404,cs),
(40,354,o),
(63,315,o),
(93,293,c),
(208,354,l),
(201,365,o),
(197,375,o),
(197,391,cs),
(197,428,o),
(217,448,o),
(251,448,cs),
(282,448,o),
(302,431,o),
(302,395,cs),
(302,351,o),
(271,343,o),
(185,300,cs),
(81,248,o),
(32,211,o),
(32,120,cs),
(32,24,o),
(87,-10,o),
(155,-10,cs),
(238,-10,o),
(281,42,o),
(314,42,cs),
(326,42,o),
(329,34,o),
(329,16,cs),
(329,-186,l)
);
}
);
width = 505;
}
);
unicode = 3722;
},
{
glyphname = "nyoNyung-lao";
lastChange = "2023-03-23 08:28:09 +0000";
layers = (
{
anchors = (
{
name = bottom;
pos = (466,0);
},
{
name = top;
pos = (311,536);
},
{
name = topright;
pos = (476,536);
}
);
layerId = "64BC062E-13E4-450B-B24E-D8A474022433";
shapes = (
{
closed = 1;
nodes = (
(390,-10,o),
(476,45,o),
(476,175,cs),
(476,548,l),
(450,548,l),
(450,169,ls),
(450,52,o),
(364,15,o),
(272,15,cs),
(178,15,o),
(95,53,o),
(95,154,cs),
(95,234,o),
(146,279,o),
(228,279,cs),
(267,279,l),
(267,301,l),
(228,301,ls),
(167,301,o),
(92,332,o),
(92,422,cs),
(92,495,o),
(141,531,o),
(207,531,cs),
(236,531,o),
(260,524,o),
(279,520,c),
(284,544,l),
(264,551,o),
(233,556,o),
(206,556,cs),
(123,556,o),
(65,508,o),
(65,422,cs),
(65,338,o),
(120,305,o),
(156,291,c),
(156,287,l),
(122,273,o),
(68,243,o),
(68,155,cs),
(68,50,o),
(145,-10,o),
(270,-10,cs)
);
}
);
width = 561;
},
{
anchors = (
{
name = bottom;
pos = (522,0);
},
{
name = top;
pos = (326,536);
},
{
name = topright;
pos = (532,536);
}
);
hints = (
{
horizontal = 1;
origin = (0,43);
target = (0,8);
type = Stem;
},
{
horizontal = 1;
origin = (0,23);
target = (0,30);
type = Stem;
},
{
horizontal = 1;
origin = (0,4);
target = down;
type = TopGhost;
},
{
origin = (0,5);
target = (0,2);
type = Stem;
},
{
origin = (0,33);
target = (0,20);
type = Stem;
}
);
layerId = "6449CA81-A7C3-4005-93E5-765657812F1B";
shapes = (
{
closed = 1;
nodes = (
(452,-10,o),
(532,50,o),
(532,189,cs),
(532,548,l),
(444,548,l),
(444,179,ls),
(444,97,o),
(401,63,o),
(303,63,cs),
(199,63,o),
(156,102,o),
(156,169,cs),
(156,234,o),
(197,263,o),
(275,263,cs),
(324,263,l),
(324,328,l),
(275,328,ls),
(217,328,o),
(156,344,o),
(156,411,cs),
(156,458,o),
(185,485,o),
(240,485,cs),
(266,485,o),
(291,479,o),
(306,474,c),
(321,542,l),
(301,551,o),
(265,558,o),
(228,558,cs),
(113,558,o),
(68,490,o),
(68,420,cs),
(68,344,o),
(121,308,o),
(162,296,c),
(162,292,l),
(116,285,o),
(68,248,o),
(68,163,cs),
(68,54,o),
(147,-10,o),
(302,-10,cs)
);
}
);
width = 614;
},
{
anchors = (
{
name = bottom;
pos = (545,0);
},
{
name = top;
pos = (323,536);
},
{
name = topright;
pos = (555,536);
}
);
layerId = "E5D3352E-10FF-4C03-AD9F-F95B1FD01257";
shapes = (
{
closed = 1;
nodes = (
(460,-10,o),
(555,53,o),
(555,206,cs),
(555,553,l),
(363,553,l),
(363,195,ls),
(363,159,o),
(332,134,o),
(285,134,cs),
(249,134,o),
(213,148,o),
(213,182,cs),
(213,204,o),
(227,225,o),
(261,225,cs),
(313,225,l),
(313,336,l),
(261,336,ls),
(231,336,o),
(213,351,o),
(213,380,cs),
(213,405,o),
(226,419,o),
(253,419,cs),
(265,419,o),
(283,416,o),
(296,412,c),
(327,544,l),
(292,556,o),
(249,563,o),
(208,563,cs),
(76,563,o),
(25,489,o),
(25,412,cs),
(25,359,o),
(49,307,o),
(112,280,c),
(112,278,l),
(58,258,o),
(25,216,o),
(25,156,cs),
(25,57,o),
(117,-10,o),
(291,-10,cs)
);
}
);
width = 600;
},
{
anchors = (
{
name = bottom;
pos = (334,0);
},
{
name = top;
pos = (220,536);
},
{
name = topright;
pos = (341,536);
}
);
layerId = "009F2F33-BFE3-455D-BDCF-6F386AA465CF";
shapes = (
{
closed = 1;
nodes = (
(282,-10,o),
(341,45,o),
(341,175,cs),
(341,548,l),
(314,548,l),
(314,169,ls),
(314,52,o),
(260,15,o),
(195,15,cs),
(128,15,o),
(75,53,o),
(75,154,cs),
(75,234,o),
(109,279,o),
(166,279,cs),
(195,279,l),
(195,301,l),
(166,301,ls),
(124,301,o),
(73,332,o),
(73,423,cs),
(73,495,o),
(105,531,o),
(149,531,cs),
(170,531,o),
(189,523,o),
(199,520,c),
(204,544,l),
(190,551,o),
(168,556,o),
(147,556,cs),
(85,556,o),
(46,508,o),
(46,422,cs),
(46,338,o),
(84,305,o),
(110,291,c),
(110,287,l),
(85,273,o),
(48,243,o),
(48,155,cs),
(48,50,o),
(102,-10,o),
(194,-10,cs)
);
}
);
width = 400;
},
{
anchors = (
{
name = bottom;
pos = (365,0);
},
{
name = top;
pos = (225,536);
},
{
name = topright;
pos = (372,536);
}
);
layerId = "AA55D700-EA4F-438C-81A6-FEFC4FC5520F";
shapes = (
{
closed = 1;
nodes = (
(311,-10,o),
(373,49,o),
(373,187,cs),
(373,548,l),
(287,548,l),
(287,178,ls),
(287,90,o),
(254,57,o),
(204,57,cs),
(152,57,o),
(119,94,o),
(119,170,cs),
(119,232,o),
(141,265,o),
(182,265,cs),
(216,265,l),
(216,325,l),
(182,325,ls),
(150,325,o),
(119,343,o),
(119,412,cs),
(119,463,o),
(136,491,o),
(168,491,cs),
(182,491,o),
(198,485,o),
(208,480,c),
(222,542,l),
(203,551,o),
(177,558,o),
(150,558,cs),
(69,558,o),
(34,494,o),
(34,416,cs),
(34,349,o),
(60,308,o),
(97,295,c),
(97,291,l),
(65,285,o),
(34,246,o),
(34,165,cs),
(34,53,o),
(93,-10,o),
(204,-10,cs)
);
}
);
width = 419;
},
{
anchors = (
{
name = bottom;
pos = (453,0);
},
{
name = top;
pos = (274,536);
},
{
name = topright;
pos = (461,536);
}
);
layerId = "71F2606D-B934-4F95-8EC7-C80FA20C45E9";
shapes = (
{
closed = 1;
nodes = (
(384,-10,o),
(461,53,o),
(461,202,cs),
(461,553,l),
(299,553,l),
(299,187,ls),
(299,142,o),
(278,114,o),
(242,114,cs),
(209,114,o),
(190,138,o),
(190,181,cs),
(190,210,o),
(199,237,o),
(223,237,cs),
(267,237,l),
(267,334,l),
(226,334,ls),
(203,334,o),
(190,354,o),
(190,385,cs),
(190,423,o),
(209,439,o),
(230,439,cs),
(237,439,o),
(247,437,o),
(254,433,c),
(278,545,l),
(248,556,o),
(213,563,o),
(180,563,cs),
(73,563,o),
(32,489,o),
(32,410,cs),
(32,357,o),
(51,310,o),
(101,286,c),
(101,284,l),
(56,263,o),
(32,214,o),
(32,157,cs),
(32,57,o),
(105,-10,o),
(247,-10,cs)
);
}
);
width = 509;
}
);
unicode = 3725;
},
{
glyphname = "doDek-lao";
lastChange = "2023-02-09 12:42:18 +0000";
layers = (
{
anchors = (
{
name = bottom;
pos = (507,0);
},
{
name = top;
pos = (317,536);
},
{
name = topright;
pos = (497,536);
}
);
layerId = "64BC062E-13E4-450B-B24E-D8A474022433";
shapes = (
{
closed = 1;
nodes = (
(282,-10,o),
(301,-7,o),
(316,-1,c),
(310,22,l),
(300,18,o),
(282,15,o),
(260,15,cs),
(128,15,o),
(93,127,o),
(93,257,cs),
(93,433,o),
(158,531,o),
(306,531,cs),
(421,531,o),
(481,472,o),
(481,379,cs),
(481,0,l),
(507,0,l),
(507,382,ls),
(507,498,o),
(424,556,o),
(305,556,cs),
(151,556,o),
(65,460,o),
(65,256,cs),
(65,93,o),
(120,-10,o),
(258,-10,cs)
);
}
);
width = 592;
},
{
anchors = (
{
name = bottom;
pos = (554,0);
},
{
name = top;
pos = (332,536);
},
{
name = topright;
pos = (544,536);
}
);
hints = (
{
horizontal = 1;
origin = (0,27);
target = (0,6);
type = Stem;
},
{
horizontal = 1;
origin = (0,21);
target = (0,12);
type = Stem;
},
{
horizontal = 1;
origin = (0,16);
target = up;
type = BottomGhost;
},
{
origin = (0,24);
target = (0,9);
type = Stem;
},
{
origin = (0,16);
target = (0,17);
type = Stem;
}
);
layerId = "6449CA81-A7C3-4005-93E5-765657812F1B";
shapes = (
{
closed = 1;
nodes = (
(297,-10,o),
(324,-6,o),
(345,2,c),
(334,68,l),
(318,63,o),
(301,60,o),
(282,60,cs),
(190,60,o),
(148,128,o),
(148,263,cs),
(148,411,o),
(198,485,o),
(319,485,cs),
(419,485,o),
(466,434,o),
(466,347,cs),
(466,0,l),
(554,0,l),
(554,349,ls),
(554,485,o),
(462,558,o),
(319,558,cs),
(161,558,o),
(60,468,o),
(60,262,cs),
(60,100,o),
(122,-10,o),
(269,-10,cs)
);
}
);
width = 636;
},
{
anchors = (
{
name = bottom;
pos = (573,0);
},
{
name = top;
pos = (313,536);
},
{
name = topright;
pos = (563,536);
}
);
layerId = "E5D3352E-10FF-4C03-AD9F-F95B1FD01257";
shapes = (
{
closed = 1;
nodes = (
(280,-10,o),
(314,-4,o),
(347,9,c),
(324,141,l),
(310,136,o),
(292,134,o),
(282,134,cs),
(240,134,o),
(217,173,o),
(217,269,cs),
(217,399,o),
(259,419,o),
(305,419,cs),
(359,419,o),
(381,391,o),
(381,342,cs),
(381,0,l),
(573,0,l),
(573,335,ls),
(573,484,o),
(480,563,o),
(309,563,cs),
(145,563,o),
(25,489,o),
(25,262,cs),
(25,108,o),
(80,-10,o),
(243,-10,cs)
);
}
);
width = 618;
},
{
anchors = (
{
name = bottom;
pos = (362,0);
},
{
name = top;
pos = (224,536);
},
{
name = topright;
pos = (355,536);
}
);
layerId = "009F2F33-BFE3-455D-BDCF-6F386AA465CF";
shapes = (
{
closed = 1;
nodes = (
(200,-10,o),
(214,-7,o),
(225,-1,c),
(221,22,l),
(213,18,o),
(200,15,o),
(185,15,cs),
(96,15,o),
(72,129,o),
(72,266,cs),
(72,455,o),
(121,531,o),
(213,531,cs),
(295,531,o),
(335,475,o),
(335,379,cs),
(335,0,l),
(362,0,l),
(362,382,ls),
(362,491,o),
(311,556,o),
(214,556,cs),
(103,556,o),
(45,467,o),
(45,262,cs),
(45,91,o),
(84,-10,o),
(183,-10,cs)
);
}
);
width = 421;
},
{
anchors = (
{
name = bottom;
pos = (389,0);
},
{
name = top;
pos = (226,536);
},
{
name = topright;
pos = (382,536);
}
);
layerId = "AA55D700-EA4F-438C-81A6-FEFC4FC5520F";
shapes = (
{
closed = 1;
nodes = (
(202,-10,o),
(222,-6,o),
(240,2,c),
(229,62,l),
(219,57,o),
(207,54,o),
(196,54,cs),
(142,54,o),
(119,127,o),
(119,261,cs),
(119,418,o),
(151,491,o),
(219,491,cs),
(276,491,o),
(303,440,o),
(303,351,cs),
(303,0,l),
(389,0,l),
(389,353,ls),
(389,487,o),
(325,558,o),
(221,558,cs),
(106,558,o),
(33,472,o),
(33,258,cs),
(33,100,o),
(73,-10,o),
(181,-10,cs)
);
}
);
width = 435;
},
{
anchors = (
{
name = bottom;
pos = (475,0);
},
{
name = top;
pos = (264,536);
},
{
name = topright;
pos = (467,536);
}
);
layerId = "71F2606D-B934-4F95-8EC7-C80FA20C45E9";
shapes = (
{
closed = 1;
nodes = (
(236,-10,o),
(265,-5,o),
(293,7,c),
(273,120,l),
(262,115,o),
(248,113,o),
(242,113,cs),
(211,113,o),
(194,160,o),
(194,263,cs),
(194,402,o),
(225,439,o),
(261,439,cs),
(296,439,o),
(313,403,o),
(313,343,cs),
(313,0,l),
(475,0,l),
(475,339,ls),
(475,484,o),
(399,563,o),
(264,563,cs),
(129,563,o),
(32,485,o),
(32,258,cs),
(32,107,o),
(75,-10,o),
(208,-10,cs)
);
}
);
width = 523;
}
);
unicode = 3732;
},
{
glyphname = "toTa-lao";
lastChange = "2023-02-09 12:45:56 +0000";
layers = (
{
anchors = (
{
name = bottom;
pos = (521,0);
},
{
name = top;
pos = (311,536);
},
{
name = topright;
pos = (511,536);
}
);
layerId = "64BC062E-13E4-450B-B24E-D8A474022433";
shapes = (
{
closed = 1;
nodes = (
(289,-10,o),
(313,-5,o),
(326,1,c),
(322,23,l),
(307,19,o),
(289,15,o),
(262,15,cs),
(130,15,o),
(91,107,o),
(91,282,cs),
(91,461,o),
(132,533,o),
(208,533,cs),
(253,533,o),
(285,508,o),
(293,460,c),
(315,460,l),
(326,504,o),
(347,533,o),
(404,533,cs),
(464,533,o),
(495,501,o),
(495,429,cs),
(495,0,l),
(521,0,l),
(521,427,ls),
(521,511,o),
(483,556,o),
(409,556,cs),
(348,556,o),
(318,526,o),
(305,492,c),
(303,492,l),
(292,528,o),
(261,556,o),
(206,556,cs),
(124,556,o),
(65,492,o),
(65,282,cs),
(65,96,o),
(111,-10,o),
(257,-10,cs)
);
}
);
width = 606;
},
{
anchors = (
{
name = bottom;
pos = (564,0);
},
{
name = top;
pos = (339,536);
},
{
name = topright;
pos = (554,536);
}
);
hints = (
{
horizontal = 1;
origin = (0,41);
target = (0,6);
type = Stem;
},
{
horizontal = 1;
origin = (0,35);
target = (0,12);
type = Stem;
},
{
horizontal = 1;
origin = (0,23);
target = up;
type = BottomGhost;
},
{
origin = (0,38);
target = (0,9);
type = Stem;
},
{
origin = (0,23);
target = (0,24);
type = Stem;
}
);
layerId = "6449CA81-A7C3-4005-93E5-765657812F1B";
shapes = (
{
closed = 1;
nodes = (
(297,-10,o),
(324,-6,o),
(345,2,c),
(334,68,l),
(318,63,o),
(301,60,o),
(282,60,cs),
(188,60,o),
(148,133,o),
(148,275,cs),
(148,421,o),
(190,485,o),
(240,485,cs),
(275,485,o),
(292,453,o),
(297,407,c),
(355,407,l),
(360,450,o),
(379,485,o),
(418,485,cs),
(459,485,o),
(476,446,o),
(476,383,cs),
(476,0,l),
(564,0,l),
(564,390,ls),
(564,494,o),
(520,558,o),
(435,558,cs),
(378,558,o),
(343,530,o),
(328,491,c),
(324,491,l),
(310,528,o),
(283,558,o),
(227,558,cs),
(134,558,o),
(60,476,o),
(60,279,cs),
(60,99,o),
(122,-10,o),
(269,-10,cs)
);
}
);
width = 646;
},
{
anchors = (
{
name = bottom;
pos = (592,0);
},
{
name = top;
pos = (324,536);
},
{
name = topright;
pos = (582,536);
}
);
layerId = "E5D3352E-10FF-4C03-AD9F-F95B1FD01257";
shapes = (
{
closed = 1;
nodes = (
(281,-10,o),
(314,-4,o),
(347,9,c),
(324,141,l),
(310,136,o),
(293,134,o),
(281,134,cs),
(235,134,o),
(217,165,o),
(217,286,cs),
(217,381,o),
(228,419,o),
(256,419,cs),
(271,419,o),
(282,407,o),
(284,381,c),
(349,381,l),
(352,407,o),
(361,419,o),
(377,419,cs),
(393,419,o),
(400,408,o),
(400,380,cs),
(400,0,l),
(592,0,l),
(592,382,ls),
(592,494,o),
(553,563,o),
(447,563,cs),
(395,563,o),
(345,546,o),
(318,510,c),
(316,510,l),
(298,546,o),
(252,563,o),
(207,563,cs),
(100,563,o),
(25,467,o),
(25,267,cs),
(25,98,o),
(79,-10,o),
(243,-10,cs)
);
}
);
width = 637;
},
{
anchors = (
{
name = bottom;
pos = (371,0);
},
{
name = top;
pos = (222,536);
},
{
name = topright;
pos = (364,536);
}
);
layerId = "009F2F33-BFE3-455D-BDCF-6F386AA465CF";
shapes = (
{
closed = 1;
nodes = (
(204,-10,o),
(221,-5,o),
(231,1,c),
(227,23,l),
(217,19,o),
(204,15,o),
(186,15,cs),
(99,15,o),
(72,107,o),
(72,281,cs),
(72,462,o),
(101,533,o),
(150,533,cs),
(180,533,o),
(200,507,o),
(205,459,c),
(227,459,l),
(234,503,o),
(248,533,o),
(285,533,cs),
(324,533,o),
(344,501,o),
(344,429,cs),
(344,0,l),
(371,0,l),
(371,427,ls),
(371,511,o),
(343,556,o),
(290,556,cs),
(248,556,o),
(226,526,o),
(217,492,c),
(215,492,l),
(207,528,o),
(186,556,o),
(147,556,cs),
(88,556,o),
(45,492,o),
(45,282,cs),
(45,96,o),
(79,-10,o),
(182,-10,cs)
);
}
);
width = 430;
},
{
anchors = (
{
name = bottom;
pos = (399,0);
},
{
name = top;
pos = (230,536);
},
{
name = topright;
pos = (392,536);
}
);
layerId = "AA55D700-EA4F-438C-81A6-FEFC4FC5520F";
shapes = (
{
closed = 1;
nodes = (
(202,-10,o),
(223,-6,o),
(241,2,c),
(230,62,l),
(220,58,o),
(208,54,o),
(196,54,cs),
(140,54,o),
(119,129,o),
(119,278,cs),
(119,424,o),
(139,491,o),
(170,491,cs),
(190,491,o),
(202,460,o),
(205,414,c),
(243,414,l),
(246,457,o),
(257,491,o),
(279,491,cs),
(303,491,o),
(313,453,o),
(313,389,cs),
(313,0,l),
(399,0,l),
(399,395,ls),
(399,496,o),
(370,558,o),
(308,558,cs),
(266,558,o),
(239,530,o),
(225,491,c),
(223,491,l),
(212,528,o),
(188,558,o),
(148,558,cs),
(83,558,o),
(33,477,o),
(33,276,cs),
(33,99,o),
(72,-10,o),
(181,-10,cs)
);
}
);
width = 445;
},
{
anchors = (
{
name = bottom;
pos = (491,0);
},
{
name = top;
pos = (273,536);
},
{
name = topright;
pos = (483,536);
}
);
layerId = "71F2606D-B934-4F95-8EC7-C80FA20C45E9";
shapes = (
{
closed = 1;
nodes = (
(238,-10,o),
(265,-5,o),
(293,7,c),
(273,120,l),
(262,115,o),
(249,113,o),
(240,113,cs),
(207,113,o),
(194,156,o),
(194,283,cs),
(194,394,o),
(200,439,o),
(221,439,cs),
(231,439,o),
(240,421,o),
(241,390,c),
(294,390,l),
(296,420,o),
(302,439,o),
(313,439,cs),
(324,439,o),
(329,420,o),
(329,382,cs),
(329,0,l),
(491,0,l),
(491,385,ls),
(491,495,o),
(460,563,o),
(373,563,cs),
(332,563,o),
(291,542,o),
(268,506,c),
(267,506,l),
(252,542,o),
(214,563,o),
(179,563,cs),
(92,563,o),
(32,471,o),
(32,270,cs),
(32,98,o),
(75,-10,o),
(207,-10,cs)
);
}
);
width = 539;
}
);
unicode = 3733;
},
{
glyphname = "thoThong-lao";
lastChange = "2023-03-23 08:05:36 +0000";
layers = (
{
anchors = (
{
name = bottom;
pos = (398,0);
},
{
name = top;
pos = (324,536);
},
{
name = topright;
pos = (492,536);
}
);
layerId = "64BC062E-13E4-450B-B24E-D8A474022433";
shapes = (
{
closed = 1;
nodes = (
(502,-147,l),
(502,365,ls),
(502,498,o),
(440,556,o),
(339,556,cs),
(233,556,o),
(167,492,o),
(135,427,c),
(134,427,l),
(124,480,o),
(110,519,o),
(85,556,c),
(65,543,l),
(91,505,o),
(113,449,o),
(113,391,cs),
(113,89,ls),
(113,19,o),
(141,-10,o),
(190,-10,cs),
(206,-10,o),
(222,-7,o),
(235,-2,c),
(230,22,l),
(217,18,o),
(207,15,o),
(192,15,cs),
(157,15,o),
(139,30,o),
(139,85,cs),
(139,359,ls),
(139,425,o),
(213,531,o),
(342,531,cs),
(450,531,o),
(476,456,o),
(476,366,cs),
(476,-147,l)
);
}
);
width = 587;
},
{
anchors = (
{
name = bottom;
pos = (389,0);
},
{
name = top;
pos = (335,536);
},
{
name = topright;
pos = (527,536);
}
);
hints = (
{
horizontal = 1;
origin = (0,19);
target = (0,26);
type = Stem;
},
{
horizontal = 1;
origin = (0,33);
target = (0,11);
type = Stem;
},
{
origin = (0,37);
target = (0,0);
type = Stem;
},
{
horizontal = 1;
origin = (0,37);
target = up;
type = BottomGhost;
},
{
origin = (0,15);
target = (0,30);
type = Stem;
},
{
horizontal = 1;
origin = (0,11);
target = down;
type = TopGhost;
}
);
layerId = "6449CA81-A7C3-4005-93E5-765657812F1B";
shapes = (
{
closed = 1;
nodes = (
(537,-174,l),
(537,353,ls),
(537,489,o),
(461,558,o),
(341,558,cs),
(281,558,o),
(220,541,o),
(172,477,c),
(169,477,l),
(157,508,o),
(134,542,o),
(116,558,c),
(52,509,l),
(80,482,o),
(107,439,o),
(107,366,cs),
(107,110,ls),
(107,36,o),
(146,-6,o),
(212,-6,cs),
(235,-6,o),
(260,-1,o),
(283,8,c),
(270,70,l),
(258,66,o),
(246,64,o),
(235,64,cs),
(207,64,o),
(195,77,o),
(195,106,cs),
(195,357,ls),
(195,459,o),
(262,485,o),
(322,485,cs),
(407,485,o),
(449,434,o),
(449,347,cs),
(449,-174,l)
);
}
);
width = 619;
},
{
anchors = (
{
name = bottom;
pos = (338,0);
},
{
name = top;
pos = (338,536);
},
{
name = topright;
pos = (570,536);
}
);
layerId = "E5D3352E-10FF-4C03-AD9F-F95B1FD01257";
shapes = (
{
closed = 1;
nodes = (
(580,-191,l),
(580,371,ls),
(580,478,o),
(517,563,o),
(385,563,cs),
(306,563,o),
(240,533,o),
(202,488,c),
(199,488,l),
(191,511,o),
(153,548,o),
(124,563,c),
(5,459,l),
(58,414,o),
(74,379,o),
(74,309,cs),
(74,139,ls),
(74,43,o),
(125,-10,o),
(216,-10,cs),
(259,-10,o),
(317,2,o),
(355,19,c),
(328,141,l),
(318,137,o),
(307,134,o),
(296,134,cs),
(274,134,o),
(266,145,o),
(266,164,cs),
(266,351,ls),
(266,399,o),
(297,419,o),
(330,419,cs),
(365,419,o),
(388,397,o),
(388,351,cs),
(388,-191,l)
);
}
);
width = 625;
},
{
anchors = (
{
name = bottom;
pos = (270,0);
},
{
name = top;
pos = (229,536);
},
{
name = topright;
pos = (350,536);
}
);
layerId = "009F2F33-BFE3-455D-BDCF-6F386AA465CF";
shapes = (
{
closed = 1;
nodes = (
(357,-147,l),
(357,365,ls),
(357,494,o),
(316,556,o),
(235,556,cs),
(167,556,o),
(125,511,o),
(100,446,c),
(99,446,l),
(94,499,o),
(83,527,o),
(65,556,c),
(44,543,l),
(63,505,o),
(78,468,o),
(78,410,cs),
(78,89,ls),
(78,19,o),
(100,-10,o),
(137,-10,cs),
(149,-10,o),
(161,-7,o),
(171,-2,c),
(167,22,l),
(158,18,o),
(151,15,o),
(141,15,cs),
(117,15,o),
(105,30,o),
(105,85,cs),
(105,378,ls),
(105,444,o),
(154,531,o),
(235,531,cs),
(310,531,o),
(330,455,o),
(330,366,cs),
(330,-147,l)
);
}
);
width = 416;
},
{
anchors = (
{
name = bottom;
pos = (260,0);
},
{
name = top;
pos = (234,536);
},
{
name = topright;
pos = (378,536);
}
);
layerId = "AA55D700-EA4F-438C-81A6-FEFC4FC5520F";
shapes = (
{
closed = 1;
nodes = (
(391,-171,l),
(391,360,ls),
(391,495,o),
(351,558,o),
(255,558,cs),
(200,558,o),
(157,537,o),
(129,479,c),
(127,479,l),
(119,513,o),
(102,539,o),
(87,558,c),
(24,513,l),
(51,485,o),
(66,440,o),
(66,369,cs),
(66,104,ls),
(66,30,o),
(95,-10,o),
(149,-10,cs),
(168,-10,o),
(195,-5,o),
(215,3,c),
(202,61,l),
(194,57,o),
(187,54,o),
(178,54,cs),
(160,54,o),
(152,68,o),
(152,100,cs),
(152,357,ls),
(152,453,o),
(190,491,o),
(236,491,cs),
(290,491,o),
(305,439,o),
(305,354,cs),
(305,-171,l)
);
}
);
width = 439;
},
{
anchors = (
{
name = bottom;
pos = (286,0);
},
{
name = top;
pos = (285,536);
},
{
name = topright;
pos = (481,536);
}
);
layerId = "71F2606D-B934-4F95-8EC7-C80FA20C45E9";
shapes = (
{
closed = 1;
nodes = (
(488,-186,l),
(488,367,ls),
(488,482,o),
(439,563,o),
(329,563,cs),
(265,563,o),
(208,536,o),
(179,486,c),
(176,486,l),
(169,514,o),
(153,542,o),
(132,563,c),
(15,474,l),
(59,435,o),
(71,397,o),
(71,326,cs),
(71,129,ls),
(71,40,o),
(113,-10,o),
(188,-10,cs),
(224,-10,o),
(273,0,o),
(305,15,c),
(282,119,l),
(274,115,o),
(265,113,o),
(257,113,cs),
(239,113,o),
(233,124,o),
(233,146,cs),
(233,354,ls),
(233,417,o),
(258,439,o),
(282,439,cs),
(309,439,o),
(326,409,o),
(326,351,cs),
(326,-186,l)
);
}
);
width = 536;
}
);
unicode = 3734;
},
{
glyphname = "thoThung-lao";
lastChange = "2023-02-08 18:12:41 +0000";
layers = (
{
anchors = (
{
name = bottom;
pos = (589,0);
},
{
name = top;
pos = (377,536);
},
{
name = topright;
pos = (579,536);
}
);
layerId = "64BC062E-13E4-450B-B24E-D8A474022433";
shapes = (
{
closed = 1;
nodes = (
(310,-10,o),
(350,53,o),
(350,142,cs),
(350,402,ls),
(350,489,o),
(384,534,o),
(457,534,cs),
(530,534,o),
(563,489,o),
(563,403,cs),
(563,0,l),
(589,0,l),
(589,404,ls),
(589,493,o),
(550,556,o),
(457,556,cs),
(364,556,o),
(324,493,o),
(324,404,cs),
(324,143,ls),
(324,57,o),
(290,12,o),
(217,12,cs),
(144,12,o),
(111,57,o),
(111,143,cs),
(111,548,l),
(85,548,l),
(85,142,ls),
(85,53,o),
(124,-10,o),
(217,-10,cs)
);
}
);
width = 674;
},
{
anchors = (
{
name = bottom;
pos = (644,0);
},
{
name = top;
pos = (374,536);
},
{
name = topright;
pos = (634,536);
}
);
hints = (
{
horizontal = 1;
origin = (0,31);
target = (0,22);
type = Stem;
},
{
horizontal = 1;
origin = (0,6);
target = (0,15);
type = Stem;
},
{
horizontal = 1;
origin = (0,10);
target = up;
type = BottomGhost;
},
{
horizontal = 1;
origin = (0,27);
target = down;
type = TopGhost;
},
{
origin = (0,10);
target = (0,11);
type = Stem;
},
{
origin = (0,27);
target = (0,26);
type = Stem;
}
);
layerId = "6449CA81-A7C3-4005-93E5-765657812F1B";
shapes = (
{
closed = 1;
nodes = (
(360,-10,o),
(404,63,o),
(404,168,cs),
(404,383,ls),
(404,447,o),
(422,485,o),
(480,485,cs),
(537,485,o),
(556,447,o),
(556,383,cs),
(556,0,l),
(644,0,l),
(644,380,ls),
(644,485,o),
(599,558,o),
(480,558,cs),
(361,558,o),
(318,485,o),
(318,380,cs),
(318,165,ls),
(318,101,o),
(299,63,o),
(242,63,cs),
(184,63,o),
(166,101,o),
(166,165,cs),
(166,548,l),
(78,548,l),
(78,168,ls),
(78,63,o),
(123,-10,o),
(242,-10,cs)
);
}
);
width = 726;
},
{
anchors = (
{
name = bottom;
pos = (678,0);
},
{
name = top;
pos = (407,536);
},
{
name = topright;
pos = (668,536);
}
);
layerId = "E5D3352E-10FF-4C03-AD9F-F95B1FD01257";
shapes = (
{
closed = 1;
nodes = (
(397,-10,o),
(444,67,o),
(444,181,cs),
(444,390,ls),
(444,410,o),
(457,419,o),
(469,419,cs),
(481,419,o),
(494,410,o),
(494,390,cs),
(494,0,l),
(678,0,l),
(678,372,ls),
(678,486,o),
(617,563,o),
(471,563,cs),
(325,563,o),
(279,486,o),
(279,372,cs),
(279,163,ls),
(279,143,o),
(266,134,o),
(254,134,cs),
(242,134,o),
(229,143,o),
(229,163,cs),
(229,553,l),
(45,553,l),
(45,181,ls),
(45,67,o),
(106,-10,o),
(251,-10,cs)
);
}
);
width = 723;
},
{
anchors = (
{
name = bottom;
pos = (420,0);
},
{
name = top;
pos = (264,536);
},
{
name = topright;
pos = (413,536);
}
);
layerId = "009F2F33-BFE3-455D-BDCF-6F386AA465CF";
shapes = (
{
closed = 1;
nodes = (
(221,-10,o),
(253,40,o),
(253,142,cs),
(253,402,ls),
(253,490,o),
(276,534,o),
(324,534,cs),
(370,534,o),
(393,492,o),
(393,403,cs),
(393,0,l),
(420,0,l),
(420,404,ls),
(420,507,o),
(388,556,o),
(324,556,cs),
(258,556,o),
(226,505,o),
(226,404,cs),
(226,143,ls),
(226,55,o),
(203,12,o),
(156,12,cs),
(109,12,o),
(86,55,o),
(86,143,cs),
(86,548,l),
(59,548,l),
(59,142,ls),
(59,40,o),
(91,-10,o),
(156,-10,cs)
);
}
);
width = 479;
},
{
anchors = (
{
name = bottom;
pos = (454,0);
},
{
name = top;
pos = (272,536);
},
{
name = topright;
pos = (447,536);
}
);
layerId = "AA55D700-EA4F-438C-81A6-FEFC4FC5520F";
shapes = (
{
closed = 1;
nodes = (
(249,-10,o),
(288,40,o),
(288,152,cs),
(288,401,ls),
(288,465,o),
(301,491,o),
(329,491,cs),
(357,491,o),
(371,466,o),
(371,402,cs),
(371,0,l),
(454,0,l),
(454,396,ls),
(454,506,o),
(413,558,o),
(331,558,cs),
(250,558,o),
(211,508,o),
(211,396,cs),
(211,146,ls),
(211,82,o),
(198,57,o),
(170,57,cs),
(142,57,o),
(128,82,o),
(128,146,cs),
(128,548,l),
(45,548,l),
(45,152,ls),
(45,42,o),
(86,-10,o),
(168,-10,cs)
);
}
);
width = 500;
},
{
anchors = (
{
name = bottom;
pos = (560,0);
},
{
name = top;
pos = (343,536);
},
{
name = topright;
pos = (552,536);
}
);
layerId = "71F2606D-B934-4F95-8EC7-C80FA20C45E9";
shapes = (
{
closed = 1;
nodes = (
(327,-10,o),
(379,45,o),
(379,171,cs),
(379,395,ls),
(379,422,o),
(387,438,o),
(399,438,cs),
(412,438,o),
(419,422,o),
(419,395,cs),
(419,0,l),
(572,0,l),
(572,375,ls),
(572,494,o),
(508,563,o),
(403,563,cs),
(301,563,o),
(241,499,o),
(241,380,cs),
(241,154,ls),
(241,129,o),
(233,114,o),
(221,114,cs),
(209,114,o),
(201,129,o),
(201,154,cs),
(201,553,l),
(48,553,l),
(48,177,ls),
(48,50,o),
(107,-10,o),
(219,-10,cs)
);
}
);
width = 620;
}
);
unicode = 3735;
},
{
glyphname = "dha-lao";
lastChange = "2023-03-23 08:28:58 +0000";
layers = (
{
anchors = (
{
name = bottom;
pos = (468,0);
},
{
name = top;
pos = (291,536);
},
{
name = topright;
pos = (488,536);
}
);
layerId = "64BC062E-13E4-450B-B24E-D8A474022433";
shapes = (
{
closed = 1;
nodes = (
(235,-10,o),
(273,17,o),
(290,66,c),
(292,66,l),
(309,17,o),
(348,-10,o),
(402,-10,cs),
(482,-10,o),
(522,38,o),
(522,134,cs),
(522,257,o),
(408,306,o),
(277,333,cs),
(145,360,o),
(86,374,o),
(86,449,cs),
(86,501,o),
(124,531,o),
(191,531,cs),
(290,531,o),
(346,479,o),
(424,479,cs),
(467,479,o),
(502,501,o),
(502,539,cs),
(502,548,l),
(476,548,l),
(476,539,ls),
(476,518,o),
(458,504,o),
(426,504,cs),
(356,504,o),
(295,556,o),
(191,556,cs),
(108,556,o),
(60,517,o),
(60,449,cs),
(60,352,o),
(136,336,o),
(266,309,cs),
(396,282,o),
(496,243,o),
(496,134,cs),
(496,52,o),
(465,12,o),
(400,12,cs),
(339,12,o),
(303,55,o),
(303,130,cs),
(303,143,l),
(279,143,l),
(279,130,ls),
(279,55,o),
(243,12,o),
(183,12,cs),
(117,12,o),
(86,49,o),
(86,124,cs),
(86,149,o),
(90,169,o),
(96,183,c),
(72,193,l),
(64,174,o),
(60,150,o),
(60,123,cs),
(60,35,o),
(100,-10,o),
(181,-10,cs)
);
}
);
width = 582;
},
{
anchors = (
{
name = bottom;
pos = (561,0);
},
{
name = top;
pos = (322,536);
},
{
name = topright;
pos = (542,536);
}
);
hints = (
{
horizontal = 1;
origin = (0,67);
target = (0,54);
type = Stem;
},
{
horizontal = 1;
origin = (0,18);
target = (0,33);
type = Stem;
},
{
horizontal = 1;
origin = (0,26);
target = down;
type = TopGhost;
},
{
horizontal = 1;
origin = (0,26);
target = down;
type = TopGhost;
},
{
origin = (0,64);
target = (0,57);
type = Stem;
},
{
origin = (0,42);
target = (0,9);
type = Stem;
}
);
layerId = "6449CA81-A7C3-4005-93E5-765657812F1B";
shapes = (
{
closed = 1;
nodes = (
(255,-10,o),
(295,12,o),
(320,58,c),
(324,58,l),
(351,12,o),
(390,-10,o),
(443,-10,cs),
(531,-10,o),
(581,45,o),
(581,140,cs),
(581,270,o),
(457,306,o),
(329,340,cs),
(201,374,o),
(168,391,o),
(168,437,cs),
(168,467,o),
(191,485,o),
(231,485,cs),
(303,485,o),
(375,416,o),
(459,416,cs),
(511,416,o),
(561,442,o),
(561,523,cs),
(561,548,l),
(474,548,l),
(474,524,ls),
(474,501,o),
(466,489,o),
(443,489,cs),
(386,489,o),
(326,558,o),
(221,558,cs),
(133,558,o),
(83,514,o),
(83,437,cs),
(83,336,o),
(168,304,o),
(296,272,cs),
(424,240,o),
(496,217,o),
(496,140,cs),
(496,88,o),
(473,63,o),
(427,63,cs),
(385,63,o),
(360,91,o),
(360,145,cs),
(360,168,l),
(284,168,l),
(284,145,ls),
(284,91,o),
(260,63,o),
(217,63,cs),
(171,63,o),
(148,89,o),
(148,140,cs),
(148,163,o),
(155,181,o),
(167,198,c),
(97,232,l),
(80,214,o),
(63,186,o),
(63,138,cs),
(63,44,o),
(113,-10,o),
(201,-10,cs)
);
}
);
width = 644;
},
{
anchors = (
{
name = bottom;
pos = (576,0);
},
{
name = top;
pos = (311,536);
},
{
name = topright;
pos = (556,536);
}
);
layerId = "E5D3352E-10FF-4C03-AD9F-F95B1FD01257";
shapes = (
{
closed = 1;
nodes = (
(235,-10,o),
(287,11,o),
(311,44,c),
(313,44,l),
(338,10,o),
(388,-10,o),
(447,-10,cs),
(550,-10,o),
(606,47,o),
(606,150,cs),
(606,236,o),
(554,305,o),
(408,339,cs),
(262,373,o),
(228,382,o),
(228,403,cs),
(228,413,o),
(237,419,o),
(252,419,cs),
(304,419,o),
(374,377,o),
(460,377,cs),
(542,377,o),
(586,422,o),
(586,522,cs),
(586,553,l),
(417,553,l),
(417,540,ls),
(417,528,o),
(411,521,o),
(397,521,cs),
(357,521,o),
(291,563,o),
(200,563,cs),
(99,563,o),
(40,502,o),
(40,421,cs),
(40,332,o),
(92,284,o),
(238,252,cs),
(384,220,o),
(422,199,o),
(422,161,cs),
(422,143,o),
(413,134,o),
(398,134,cs),
(383,134,o),
(374,144,o),
(374,161,cs),
(374,200,l),
(248,200,l),
(248,161,ls),
(248,143,o),
(239,134,o),
(224,134,cs),
(207,134,o),
(200,141,o),
(200,161,cs),
(200,174,o),
(205,186,o),
(215,194,c),
(76,265,l),
(47,245,o),
(20,201,o),
(20,145,cs),
(20,48,o),
(78,-10,o),
(177,-10,cs)
);
}
);
width = 626;
},
{
anchors = (
{
name = bottom;
pos = (339,0);
},
{
name = top;
pos = (206,536);
},
{
name = topright;
pos = (342,536);
}
);
layerId = "009F2F33-BFE3-455D-BDCF-6F386AA465CF";
shapes = (
{
closed = 1;
nodes = (
(167,-10,o),
(197,16,o),
(205,70,c),
(207,70,l),
(215,16,o),
(245,-10,o),
(283,-10,cs),
(344,-10,o),
(372,34,o),
(372,131,cs),
(372,273,o),
(281,301,o),
(199,329,cs),
(116,357,o),
(86,386,o),
(86,450,cs),
(86,502,o),
(112,531,o),
(157,531,cs),
(211,531,o),
(247,479,o),
(294,479,cs),
(326,479,o),
(352,501,o),
(352,539,cs),
(352,548,l),
(325,548,l),
(325,539,ls),
(325,518,o),
(314,504,o),
(293,504,cs),
(254,504,o),
(217,556,o),
(157,556,cs),
(95,556,o),
(60,517,o),
(60,448,cs),
(60,365,o),
(107,333,o),
(189,305,cs),
(271,277,o),
(346,248,o),
(346,132,cs),
(346,52,o),
(325,12,o),
(282,12,cs),
(239,12,o),
(218,54,o),
(218,137,cs),
(218,162,l),
(194,162,l),
(194,137,ls),
(194,54,o),
(173,12,o),
(130,12,cs),
(87,12,o),
(66,50,o),
(66,125,cs),
(66,149,o),
(68,169,o),
(74,183,c),
(51,193,l),
(44,175,o),
(40,152,o),
(40,124,cs),
(40,34,o),
(69,-10,o),
(129,-10,cs)
);
}
);
width = 412;
},
{
anchors = (
{
name = bottom;
pos = (394,0);
},
{
name = top;
pos = (226,536);
},
{
name = topright;
pos = (370,536);
}
);
layerId = "AA55D700-EA4F-438C-81A6-FEFC4FC5520F";
shapes = (
{
closed = 1;
nodes = (
(179,-10,o),
(209,16,o),
(225,59,c),
(227,59,l),
(244,16,o),
(273,-10,o),
(317,-10,cs),
(381,-10,o),
(416,44,o),
(416,136,cs),
(416,263,o),
(347,300,o),
(262,332,cs),
(177,364,o),
(140,387,o),
(140,437,cs),
(140,471,o),
(158,491,o),
(188,491,cs),
(235,491,o),
(255,424,o),
(320,424,cs),
(362,424,o),
(396,449,o),
(396,525,cs),
(396,548,l),
(317,548,l),
(317,526,ls),
(317,505,o),
(311,491,o),
(295,491,cs),
(262,491,o),
(245,558,o),
(166,558,cs),
(96,558,o),
(56,514,o),
(56,437,cs),
(56,331,o),
(123,304,o),
(207,270,cs),
(291,236,o),
(331,216,o),
(331,136,cs),
(331,84,o),
(320,57,o),
(295,57,cs),
(270,57,o),
(257,87,o),
(257,139,cs),
(257,160,l),
(195,160,l),
(195,139,ls),
(195,87,o),
(182,57,o),
(157,57,cs),
(132,57,o),
(121,83,o),
(121,136,cs),
(121,158,o),
(124,178,o),
(130,194,c),
(63,227,l),
(49,208,o),
(36,177,o),
(36,136,cs),
(36,44,o),
(72,-10,o),
(136,-10,cs)
);
}
);
width = 452;
},
{
anchors = (
{
name = bottom;
pos = (468,0);
},
{
name = top;
pos = (259,536);
},
{
name = topright;
pos = (448,536);
}
);
layerId = "71F2606D-B934-4F95-8EC7-C80FA20C45E9";
shapes = (
{
closed = 1;
nodes = (
(199,-10,o),
(238,13,o),
(256,48,c),
(260,48,l),
(279,13,o),
(318,-10,o),
(367,-10,cs),
(447,-10,o),
(493,46,o),
(493,144,cs),
(493,240,o),
(423,310,o),
(320,343,cs),
(217,376,o),
(202,390,o),
(202,414,cs),
(202,430,o),
(211,439,o),
(228,439,cs),
(264,439,o),
(311,389,o),
(369,389,cs),
(438,389,o),
(473,428,o),
(473,523,cs),
(473,553,l),
(331,553,l),
(331,536,ls),
(331,521,o),
(326,513,o),
(316,513,cs),
(287,513,o),
(235,563,o),
(168,563,cs),
(89,563,o),
(43,512,o),
(43,423,cs),
(43,342,o),
(75,288,o),
(178,257,cs),
(281,226,o),
(334,202,o),
(334,146,cs),
(334,127,o),
(326,114,o),
(311,114,cs),
(298,114,o),
(290,127,o),
(290,153,cs),
(290,175,l),
(227,175,l),
(227,153,ls),
(227,127,o),
(219,114,o),
(206,114,cs),
(190,114,o),
(182,127,o),
(182,146,cs),
(182,168,o),
(186,183,o),
(192,192,c),
(70,255,l),
(46,236,o),
(23,197,o),
(23,144,cs),
(23,46,o),
(69,-10,o),
(149,-10,cs)
);
}
);
width = 516;
}
);
unicode = 3736;
},
{
glyphname = "noNok-lao";
lastChange = "2023-03-23 08:29:08 +0000";
layers = (
{
anchors = (
{
name = bottom;
pos = (499,0);
},
{
name = top;
pos = (320,536);
},
{
name = topright;
pos = (509,536);
}
);
layerId = "64BC062E-13E4-450B-B24E-D8A474022433";
shapes = (
{
closed = 1;
nodes = (
(132,27,o),
(147,61,o),
(154,111,c),
(156,111,l),
(187,36,o),
(246,-10,o),
(339,-10,cs),
(445,-10,o),
(509,50,o),
(509,169,cs),
(509,548,l),
(483,548,l),
(483,170,ls),
(483,70,o),
(438,12,o),
(342,12,cs),
(224,12,o),
(161,98,o),
(161,206,cs),
(161,485,ls),
(161,534,o),
(142,556,o),
(100,556,cs),
(78,556,o),
(57,550,o),
(40,542,c),
(45,518,l),
(61,525,o),
(78,531,o),
(97,531,cs),
(125,531,o),
(135,519,o),
(135,485,cs),
(135,155,ls),
(135,97,o),
(113,41,o),
(87,3,c),
(107,-10,l)
);
}
);
width = 594;
},
{
anchors = (
{
name = bottom;
pos = (522,0);
},
{
name = top;
pos = (307,536);
},
{
name = topright;
pos = (532,536);
}
);
hints = (
{
horizontal = 1;
origin = (0,37);
target = (0,15);
type = Stem;
},
{
horizontal = 1;
origin = (0,11);
target = down;
type = TopGhost;
},
{
horizontal = 1;
origin = (0,29);
target = (0,22);
type = Stem;
},
{
origin = (0,12);
target = (0,9);
type = Stem;
},
{
origin = (0,32);
target = (0,19);
type = Stem;
}
);
layerId = "6449CA81-A7C3-4005-93E5-765657812F1B";
shapes = (
{
closed = 1;
nodes = (
(134,5,o),
(157,40,o),
(169,71,c),
(172,71,l),
(213,14,o),
(267,-10,o),
(336,-10,cs),
(460,-10,o),
(532,67,o),
(532,200,cs),
(532,548,l),
(444,548,l),
(444,201,ls),
(444,114,o),
(400,63,o),
(320,63,cs),
(243,63,o),
(195,111,o),
(195,191,cs),
(195,442,ls),
(195,516,o),
(163,558,o),
(96,558,cs),
(72,558,o),
(44,553,o),
(20,544,c),
(33,482,l),
(44,485,o),
(56,488,o),
(68,488,cs),
(95,488,o),
(107,475,o),
(107,445,cs),
(107,182,ls),
(107,109,o),
(80,65,o),
(52,39,c),
(116,-10,l)
);
}
);
width = 614;
},
{
anchors = (
{
name = bottom;
pos = (571,0);
},
{
name = top;
pos = (324,536);
},
{
name = topright;
pos = (581,536);
}
);
layerId = "E5D3352E-10FF-4C03-AD9F-F95B1FD01257";
shapes = (
{
closed = 1;
nodes = (
(188,13,o),
(208,38,o),
(218,65,c),
(221,65,l),
(259,20,o),
(311,-10,o),
(388,-10,cs),
(522,-10,o),
(581,80,o),
(581,189,cs),
(581,553,l),
(389,553,l),
(389,204,ls),
(389,161,o),
(369,134,o),
(336,134,cs),
(304,134,o),
(285,158,o),
(285,202,cs),
(285,420,ls),
(285,517,o),
(242,563,o),
(149,563,cs),
(106,563,o),
(43,553,o),
(5,533,c),
(32,411,l),
(42,415,o),
(54,419,o),
(67,419,cs),
(86,419,o),
(93,411,o),
(93,393,cs),
(93,244,ls),
(93,174,o),
(77,139,o),
(24,94,c),
(163,-10,l)
);
}
);
width = 626;
},
{
anchors = (
{
name = bottom;
pos = (352,0);
},
{
name = top;
pos = (222,536);
},
{
name = topright;
pos = (359,536);
}
);
layerId = "009F2F33-BFE3-455D-BDCF-6F386AA465CF";
shapes = (
{
closed = 1;
nodes = (
(93,27,o),
(102,51,o),
(109,91,c),
(110,91,l),
(131,21,o),
(178,-10,o),
(235,-10,cs),
(314,-10,o),
(359,49,o),
(359,169,cs),
(359,548,l),
(332,548,l),
(332,170,ls),
(332,71,o),
(303,12,o),
(234,12,cs),
(161,12,o),
(117,77,o),
(117,186,cs),
(117,485,ls),
(117,533,o),
(102,556,o),
(70,556,cs),
(54,556,o),
(38,550,o),
(25,542,c),
(30,518,l),
(40,525,o),
(51,531,o),
(64,531,cs),
(83,531,o),
(90,519,o),
(90,485,cs),
(90,155,ls),
(90,97,o),
(74,41,o),
(56,3,c),
(76,-10,l)
);
}
);
width = 418;
},
{
anchors = (
{
name = bottom;
pos = (378,0);
},
{
name = top;
pos = (222,536);
},
{
name = topright;
pos = (385,536);
}
);
layerId = "AA55D700-EA4F-438C-81A6-FEFC4FC5520F";
shapes = (
{
closed = 1;
nodes = (
(110,8,o),
(123,34,o),
(131,67,c),
(133,67,l),
(158,9,o),
(200,-10,o),
(247,-10,cs),
(341,-10,o),
(385,64,o),
(385,196,cs),
(385,548,l),
(299,548,l),
(299,197,ls),
(299,108,o),
(276,57,o),
(231,57,cs),
(186,57,o),
(160,110,o),
(160,193,cs),
(160,447,ls),
(160,519,o),
(136,558,o),
(82,558,cs),
(63,558,o),
(32,553,o),
(12,544,c),
(24,487,l),
(32,490,o),
(41,493,o),
(50,493,cs),
(68,493,o),
(74,482,o),
(74,450,cs),
(74,179,ls),
(74,108,o),
(59,62,o),
(32,35,c),
(95,-10,l)
);
}
);
width = 431;
},
{
anchors = (
{
name = bottom;
pos = (476,0);
},
{
name = top;
pos = (276,536);
},
{
name = topright;
pos = (484,536);
}
);
layerId = "71F2606D-B934-4F95-8EC7-C80FA20C45E9";
shapes = (
{
closed = 1;
nodes = (
(170,11,o),
(186,39,o),
(194,67,c),
(196,67,l),
(226,18,o),
(268,-10,o),
(330,-10,cs),
(438,-10,o),
(484,76,o),
(484,192,cs),
(484,553,l),
(322,553,l),
(322,203,ls),
(322,145,o),
(311,114,o),
(284,114,cs),
(261,114,o),
(250,142,o),
(250,199,cs),
(250,427,ls),
(250,518,o),
(215,563,o),
(139,563,cs),
(103,563,o),
(50,554,o),
(18,537,c),
(41,432,l),
(49,436,o),
(58,440,o),
(69,440,cs),
(83,440,o),
(88,430,o),
(88,409,cs),
(88,226,ls),
(88,155,o),
(77,118,o),
(32,78,c),
(149,-10,l)
);
}
);
width = 532;
}
);
unicode = 3737;
},
{
glyphname = "boBae-lao";
lastChange = "2023-03-23 08:29:13 +0000";
layers = (
{
anchors = (
{
name = bottom;
pos = (483,0);
},
{
name = top;
pos = (289,536);
},
{
name = topright;
pos = (493,536);
}
);
layerId = "64BC062E-13E4-450B-B24E-D8A474022433";
shapes = (
{
closed = 1;
nodes = (
(429,-10,o),
(493,67,o),
(493,174,cs),
(493,548,l),
(467,548,l),
(467,174,ls),
(467,73,o),
(407,15,o),
(289,15,cs),
(171,15,o),
(111,73,o),
(111,174,cs),
(111,548,l),
(85,548,l),
(85,174,ls),
(85,67,o),
(149,-10,o),
(289,-10,cs)
);
}
);
width = 578;
},
{
anchors = (
{
name = bottom;
pos = (524,0);
},
{
name = top;
pos = (308,536);
},
{
name = topright;
pos = (534,536);
}
);
hints = (
{
horizontal = 1;
origin = (0,17);
target = (0,8);
type = Stem;
},
{
horizontal = 1;
origin = (0,13);
target = down;
type = TopGhost;
},
{
origin = (0,14);
target = (0,11);
type = Stem;
},
{
origin = (0,5);
target = (0,2);
type = Stem;
}
);
layerId = "6449CA81-A7C3-4005-93E5-765657812F1B";
shapes = (
{
closed = 1;
nodes = (
(468,-10,o),
(534,72,o),
(534,208,cs),
(534,548,l),
(446,548,l),
(446,201,ls),
(446,114,o),
(406,63,o),
(307,63,cs),
(209,63,o),
(168,114,o),
(168,201,cs),
(168,548,l),
(80,548,l),
(80,208,ls),
(80,72,o),
(146,-10,o),
(307,-10,cs)
);
}
);
width = 614;
},
{
anchors = (
{
name = bottom;
pos = (549,0);
},
{
name = top;
pos = (302,536);
},
{
name = topright;
pos = (559,536);
}
);
layerId = "E5D3352E-10FF-4C03-AD9F-F95B1FD01257";
shapes = (
{
closed = 1;
nodes = (
(471,-10,o),
(559,73,o),
(559,233,cs),
(559,553,l),
(367,553,l),
(367,212,ls),
(367,161,o),
(345,134,o),
(302,134,cs),
(259,134,o),
(237,161,o),
(237,212,cs),
(237,553,l),
(45,553,l),
(45,233,ls),
(45,73,o),
(133,-10,o),
(302,-10,cs)
);
}
);
width = 604;
},
{
anchors = (
{
name = bottom;
pos = (344,0);
},
{
name = top;
pos = (205,536);
},
{
name = topright;
pos = (351,536);
}
);
layerId = "009F2F33-BFE3-455D-BDCF-6F386AA465CF";
shapes = (
{
closed = 1;
nodes = (
(306,-10,o),
(351,67,o),
(351,174,cs),
(351,548,l),
(324,548,l),
(324,174,ls),
(324,73,o),
(285,15,o),
(205,15,cs),
(125,15,o),
(86,73,o),
(86,174,cs),
(86,548,l),
(59,548,l),
(59,174,ls),
(59,67,o),
(104,-10,o),
(205,-10,cs)
);
}
);
width = 410;
},
{
anchors = (
{
name = bottom;
pos = (369,0);
},
{
name = top;
pos = (211,536);
},
{
name = topright;
pos = (376,536);
}
);
layerId = "AA55D700-EA4F-438C-81A6-FEFC4FC5520F";
shapes = (
{
closed = 1;
nodes = (
(322,-10,o),
(377,57,o),
(377,194,cs),
(377,548,l),
(291,548,l),
(291,188,ls),
(291,100,o),
(264,57,o),
(211,57,cs),
(158,57,o),
(131,100,o),
(131,188,cs),
(131,548,l),
(45,548,l),
(45,194,ls),
(45,57,o),
(100,-10,o),
(211,-10,cs)
);
}
);
width = 422;
},
{
anchors = (
{
name = bottom;
pos = (456,0);
},
{
name = top;
pos = (256,536);
},
{
name = topright;
pos = (464,536);
}
);
layerId = "71F2606D-B934-4F95-8EC7-C80FA20C45E9";
shapes = (
{
closed = 1;
nodes = (
(392,-10,o),
(464,73,o),
(464,226,cs),
(464,553,l),
(302,553,l),
(302,209,ls),
(302,147,o),
(286,114,o),
(256,114,cs),
(226,114,o),
(210,147,o),
(210,209,cs),
(210,553,l),
(48,553,l),
(48,226,ls),
(48,73,o),
(120,-10,o),
(256,-10,cs)
);
}
);
width = 512;
}
);
metricRight = "=|";
unicode = 3738;
},
{
glyphname = "poPa-lao";
lastChange = "2023-03-23 08:43:02 +0000";
layers = (
{
anchors = (
{
name = bottom;
pos = (483,0);
},
{
name = top;
pos = (289,536);
},
{
name = topright;
pos = (384,536);
}
);
layerId = "64BC062E-13E4-450B-B24E-D8A474022433";
shapes = (
{
closed = 1;
nodes = (
(429,-10,o),
(493,67,o),
(493,174,cs),
(493,745,l),
(467,745,l),
(467,174,ls),
(467,73,o),
(407,15,o),
(289,15,cs),
(171,15,o),
(111,73,o),
(111,174,cs),
(111,548,l),
(85,548,l),
(85,174,ls),
(85,67,o),
(149,-10,o),
(289,-10,cs)
);
}
);
width = 578;
},
{
anchors = (
{
name = bottom;
pos = (524,0);
},
{
name = top;
pos = (292,536);
},
{
name = topright;
pos = (412,536);
}
);
hints = (
{
horizontal = 1;
origin = (0,17);
target = (0,8);
type = Stem;
},
{
horizontal = 1;
origin = (0,13);
target = down;
type = TopGhost;
},
{
horizontal = 1;
origin = (0,4);
target = down;
type = TopGhost;
},
{
origin = (0,14);
target = (0,11);
type = Stem;
},
{
origin = (0,5);
target = (0,2);
type = Stem;
}
);
layerId = "6449CA81-A7C3-4005-93E5-765657812F1B";
shapes = (
{
closed = 1;
nodes = (
(468,-10,o),
(534,72,o),
(534,208,cs),
(534,714,l),
(446,714,l),
(446,201,ls),
(446,114,o),
(406,63,o),
(307,63,cs),
(209,63,o),
(168,114,o),
(168,201,cs),
(168,548,l),
(80,548,l),
(80,208,ls),
(80,72,o),
(146,-10,o),
(307,-10,cs)
);
}
);
width = 616;
},
{
anchors = (
{
name = bottom;
pos = (559,0);
},
{
name = top;
pos = (235,536);
},
{
name = topright;
pos = (343,526);
}
);
layerId = "E5D3352E-10FF-4C03-AD9F-F95B1FD01257";
shapes = (
{
closed = 1;
nodes = (
(480,-10,o),
(569,73,o),
(569,233,cs),
(569,714,l),
(377,714,l),
(377,212,ls),
(377,161,o),
(354,134,o),
(309,134,cs),
(263,134,o),
(237,161,o),
(237,212,cs),
(237,553,l),
(45,553,l),
(45,233,ls),
(45,73,o),
(137,-10,o),
(309,-10,cs)
);
}
);
width = 619;
},
{
anchors = (
{
name = bottom;
pos = (344,0);
},
{
name = top;
pos = (203,536);
},
{
name = topright;
pos = (273,536);
}
);
layerId = "009F2F33-BFE3-455D-BDCF-6F386AA465CF";
shapes = (
{
closed = 1;
nodes = (
(306,-10,o),
(351,67,o),
(351,174,cs),
(351,745,l),
(324,745,l),
(324,174,ls),
(324,73,o),
(285,15,o),
(205,15,cs),
(125,15,o),
(86,73,o),
(86,174,cs),
(86,548,l),
(59,548,l),
(59,174,ls),
(59,67,o),
(104,-10,o),
(205,-10,cs)
);
}
);
width = 410;
},
{
anchors = (
{
name = bottom;
pos = (372,0);
},
{
name = top;
pos = (186,536);
},
{
name = topright;
pos = (267,536);
}
);
layerId = "AA55D700-EA4F-438C-81A6-FEFC4FC5520F";
shapes = (
{
closed = 1;
nodes = (
(326,-10,o),
(381,57,o),
(381,194,cs),
(381,718,l),
(295,718,l),
(295,188,ls),
(295,101,o),
(268,57,o),
(213,57,cs),
(160,57,o),
(131,99,o),
(131,188,cs),
(131,548,l),
(45,548,l),
(45,194,ls),
(45,57,o),
(102,-10,o),
(214,-10,cs)
);
}
);
width = 429;
},
{
anchors = (
{
name = bottom;
pos = (465,0);
},
{
name = top;
pos = (198,536);
},
{
name = topright;
pos = (289,536);
}
);
layerId = "71F2606D-B934-4F95-8EC7-C80FA20C45E9";
shapes = (
{
closed = 1;
nodes = (
(400,-10,o),
(473,73,o),
(473,226,cs),
(473,714,l),
(311,714,l),
(311,209,ls),
(311,147,o),
(294,114,o),
(262,114,cs),
(230,114,o),
(210,147,o),
(210,209,cs),
(210,553,l),
(48,553,l),
(48,226,ls),
(48,73,o),
(124,-10,o),
(262,-10,cs)
);
}
);
width = 525;
}
);
metricLeft = "=boBae-lao";
unicode = 3739;
},
{
glyphname = "phoPhueng-lao";
lastChange = "2023-03-23 08:29:28 +0000";
layers = (
{
anchors = (
{
name = bottom;
pos = (589,0);
},
{
name = top;
pos = (349,536);
},
{
name = topright;
pos = (602,536);
}
);
layerId = "64BC062E-13E4-450B-B24E-D8A474022433";
shapes = (
{
closed = 1;
nodes = (
(275,-10,o),
(319,10,o),
(341,70,c),
(343,70,l),
(365,10,o),
(409,-10,o),
(464,-10,cs),
(561,-10,o),
(599,53,o),
(599,156,cs),
(599,329,ls),
(599,389,o),
(592,431,o),
(547,452,c),
(547,453,l),
(591,468,o),
(602,516,o),
(602,572,cs),
(602,592,l),
(575,592,l),
(575,572,ls),
(575,507,o),
(562,464,o),
(509,464,cs),
(485,464,l),
(485,442,l),
(508,442,ls),
(559,442,o),
(573,402,o),
(573,327,cs),
(573,152,ls),
(573,65,o),
(544,12,o),
(465,12,cs),
(385,12,o),
(354,65,o),
(354,137,cs),
(354,307,l),
(330,307,l),
(330,137,ls),
(330,65,o),
(299,12,o),
(220,12,cs),
(140,12,o),
(111,65,o),
(111,152,cs),
(111,456,ls),
(111,506,o),
(129,534,o),
(176,534,cs),
(205,534,o),
(230,524,o),
(247,514,c),
(257,535,l),
(238,545,o),
(205,556,o),
(173,556,cs),
(118,556,o),
(85,523,o),
(85,455,cs),
(85,156,ls),
(85,53,o),
(123,-10,o),
(220,-10,cs)
);
}
);
width = 684;
},
{
anchors = (
{
name = bottom;
pos = (634,0);
},
{
name = top;
pos = (368,536);
},
{
name = topright;
pos = (644,536);
}
);
hints = (
{
horizontal = 1;
origin = (0,63);
target = (0,42);
type = Stem;
},
{
horizontal = 1;
origin = (0,49);
target = (0,56);
type = Stem;
},
{
origin = (0,60);
target = (0,45);
type = Stem;
},
{
origin = (0,30);
target = (0,9);
type = Stem;
}
);
layerId = "6449CA81-A7C3-4005-93E5-765657812F1B";
shapes = (
{
closed = 1;
nodes = (
(292,-10,o),
(331,16,o),
(359,58,c),
(363,58,l),
(391,16,o),
(430,-10,o),
(495,-10,cs),
(597,-10,o),
(644,54,o),
(644,157,cs),
(644,345,ls),
(644,401,o),
(628,436,o),
(583,457,c),
(583,461,l),
(628,487,o),
(644,524,o),
(644,578,cs),
(644,587,l),
(556,587,l),
(556,578,ls),
(556,526,o),
(542,491,o),
(494,491,cs),
(480,491,l),
(480,430,l),
(493,430,ls),
(534,430,o),
(556,400,o),
(556,344,cs),
(556,146,ls),
(556,88,o),
(532,63,o),
(482,63,cs),
(422,63,o),
(404,98,o),
(404,162,cs),
(404,329,l),
(318,329,l),
(318,162,ls),
(318,98,o),
(300,63,o),
(240,63,cs),
(190,63,o),
(166,88,o),
(166,146,cs),
(166,445,ls),
(166,477,o),
(183,488,o),
(205,488,cs),
(216,488,o),
(229,485,o),
(241,482,c),
(254,544,l),
(229,553,o),
(204,558,o),
(182,558,cs),
(117,558,o),
(78,516,o),
(78,442,cs),
(78,157,ls),
(78,54,o),
(125,-10,o),
(227,-10,cs)
);
}
);
width = 726;
},
{
anchors = (
{
name = bottom;
pos = (639,0);
},
{
name = top;
pos = (347,536);
},
{
name = topright;
pos = (651,536);
}
);
layerId = "E5D3352E-10FF-4C03-AD9F-F95B1FD01257";
shapes = (
{
closed = 1;
nodes = (
(271,-10,o),
(323,12,o),
(346,44,c),
(348,44,l),
(374,11,o),
(428,-10,o),
(489,-10,cs),
(604,-10,o),
(651,66,o),
(651,171,cs),
(651,339,ls),
(651,399,o),
(633,435,o),
(584,460,c),
(584,464,l),
(635,491,o),
(653,530,o),
(653,586,cs),
(653,595,l),
(469,595,l),
(469,586,ls),
(469,535,o),
(456,509,o),
(403,509,cs),
(389,509,l),
(389,404,l),
(402,404,ls),
(451,404,o),
(469,383,o),
(469,330,cs),
(469,161,ls),
(469,143,o),
(460,134,o),
(444,134,cs),
(428,134,o),
(419,143,o),
(419,161,cs),
(419,329,l),
(277,329,l),
(277,161,ls),
(277,143,o),
(268,134,o),
(251,134,cs),
(235,134,o),
(227,143,o),
(227,161,cs),
(227,382,ls),
(227,406,o),
(243,419,o),
(265,419,cs),
(277,419,o),
(290,415,o),
(300,411,c),
(327,533,l),
(289,550,o),
(241,563,o),
(198,563,cs),
(102,563,o),
(45,500,o),
(45,401,cs),
(45,178,ls),
(45,64,o),
(103,-10,o),
(212,-10,cs)
);
}
);
width = 700;
},
{
anchors = (
{
name = bottom;
pos = (419,0);
},
{
name = top;
pos = (247,536);
},
{
name = topright;
pos = (428,536);
}
);
layerId = "009F2F33-BFE3-455D-BDCF-6F386AA465CF";
shapes = (
{
closed = 1;
nodes = (
(190,-10,o),
(224,12,o),
(242,70,c),
(243,70,l),
(261,12,o),
(295,-10,o),
(336,-10,cs),
(398,-10,o),
(426,42,o),
(426,144,cs),
(426,329,ls),
(426,389,o),
(420,431,o),
(388,452,c),
(388,453,l),
(419,468,o),
(428,516,o),
(428,572,cs),
(428,592,l),
(400,592,l),
(400,572,ls),
(400,507,o),
(391,464,o),
(355,464,cs),
(339,464,l),
(339,442,l),
(354,442,ls),
(388,442,o),
(399,402,o),
(399,327,cs),
(399,140,ls),
(399,51,o),
(380,12,o),
(333,12,cs),
(279,12,o),
(255,65,o),
(255,137,cs),
(255,307,l),
(230,307,l),
(230,137,ls),
(230,65,o),
(206,12,o),
(152,12,cs),
(105,12,o),
(86,51,o),
(86,140,cs),
(86,467,ls),
(86,513,o),
(97,532,o),
(130,532,cs),
(147,532,o),
(160,527,o),
(173,518,c),
(180,540,l),
(166,550,o),
(150,556,o),
(128,556,cs),
(85,556,o),
(59,533,o),
(59,467,cs),
(59,144,ls),
(59,42,o),
(87,-10,o),
(149,-10,cs)
);
}
);
width = 485;
},
{
anchors = (
{
name = bottom;
pos = (439,0);
},
{
name = top;
pos = (248,536);
},
{
name = topright;
pos = (447,536);
}
);
layerId = "AA55D700-EA4F-438C-81A6-FEFC4FC5520F";
shapes = (
{
closed = 1;
nodes = (
(196,-10,o),
(227,15,o),
(245,60,c),
(247,60,l),
(265,15,o),
(296,-10,o),
(341,-10,cs),
(414,-10,o),
(447,54,o),
(447,157,cs),
(447,343,ls),
(447,400,o),
(436,435,o),
(404,456,c),
(404,460,l),
(437,485,o),
(448,523,o),
(448,577,cs),
(448,588,l),
(364,588,l),
(364,577,ls),
(364,524,o),
(355,488,o),
(319,488,cs),
(308,488,l),
(308,432,l),
(319,432,ls),
(351,432,o),
(364,400,o),
(364,342,cs),
(364,147,ls),
(364,85,o),
(351,57,o),
(323,57,cs),
(292,57,o),
(281,94,o),
(281,159,cs),
(281,326,l),
(211,326,l),
(211,159,ls),
(211,93,o),
(200,57,o),
(168,57,cs),
(140,57,o),
(128,86,o),
(128,147,cs),
(128,446,ls),
(128,481,o),
(139,494,o),
(158,494,cs),
(168,494,o),
(179,490,o),
(187,486,c),
(200,543,l),
(180,552,o),
(153,558,o),
(132,558,cs),
(76,558,o),
(45,516,o),
(45,444,cs),
(45,157,ls),
(45,54,o),
(81,-10,o),
(152,-10,cs)
);
}
);
width = 495;
},
{
anchors = (
{
name = bottom;
pos = (526,0);
},
{
name = top;
pos = (298,536);
},
{
name = topright;
pos = (541,536);
}
);
layerId = "71F2606D-B934-4F95-8EC7-C80FA20C45E9";
shapes = (
{
closed = 1;
nodes = (
(233,-10,o),
(280,13,o),
(298,48,c),
(302,48,l),
(320,13,o),
(367,-10,o),
(416,-10,cs),
(502,-10,o),
(552,60,o),
(552,172,cs),
(552,341,ls),
(552,400,o),
(537,435,o),
(498,459,c),
(498,463,l),
(539,490,o),
(554,528,o),
(554,584,cs),
(554,593,l),
(399,593,l),
(399,584,ls),
(399,532,o),
(389,504,o),
(346,504,cs),
(335,504,l),
(335,412,l),
(345,412,ls),
(385,412,o),
(399,388,o),
(399,334,cs),
(399,149,ls),
(399,126,o),
(392,114,o),
(379,114,cs),
(367,114,o),
(359,125,o),
(359,149,cs),
(359,329,l),
(241,329,l),
(241,149,ls),
(241,125,o),
(233,114,o),
(221,114,cs),
(208,114,o),
(201,126,o),
(201,149,cs),
(201,401,ls),
(201,427,o),
(214,440,o),
(232,440,cs),
(241,440,o),
(252,436,o),
(259,432,c),
(282,537,l),
(251,552,o),
(210,563,o),
(175,563,cs),
(95,563,o),
(48,506,o),
(48,414,cs),
(48,172,ls),
(48,60,o),
(98,-10,o),
(184,-10,cs)
);
}
);
width = 604;
}
);
unicode = 3740;
},
{
glyphname = "foFon-lao";
lastChange = "2023-03-23 08:43:08 +0000";
layers = (
{
anchors = (
{
name = bottom;
pos = (589,0);
},
{
name = top;
pos = (349,536);
},
{
name = topright;
pos = (490,536);
}
);
layerId = "64BC062E-13E4-450B-B24E-D8A474022433";
shapes = (
{
closed = 1;
nodes = (
(275,-10,o),
(319,10,o),
(341,70,c),
(343,70,l),
(365,10,o),
(409,-10,o),
(464,-10,cs),
(561,-10,o),
(599,53,o),
(599,156,cs),
(599,745,l),
(573,745,l),
(573,152,ls),
(573,65,o),
(544,12,o),
(465,12,cs),
(385,12,o),
(354,65,o),
(354,137,cs),
(354,307,l),
(330,307,l),
(330,137,ls),
(330,65,o),
(299,12,o),
(220,12,cs),
(140,12,o),
(111,65,o),
(111,152,cs),
(111,456,ls),
(111,506,o),
(129,534,o),
(176,534,cs),
(205,534,o),
(230,524,o),
(247,514,c),
(257,535,l),
(238,545,o),
(205,556,o),
(173,556,cs),
(118,556,o),
(85,523,o),
(85,455,cs),
(85,156,ls),
(85,53,o),
(123,-10,o),
(220,-10,cs)
);
}
);
width = 684;
},
{
anchors = (
{
name = bottom;
pos = (634,0);
},
{
name = top;
pos = (368,536);
},
{
name = topright;
pos = (522,536);
}
);
hints = (
{
horizontal = 1;
origin = (0,45);
target = (0,24);
type = Stem;
},
{
horizontal = 1;
origin = (0,11);
target = down;
type = TopGhost;
},
{
horizontal = 1;
origin = (0,31);
target = (0,38);
type = Stem;
},
{
origin = (0,42);
target = (0,27);
type = Stem;
},
{
origin = (0,12);
target = (0,9);
type = Stem;
}
);
layerId = "6449CA81-A7C3-4005-93E5-765657812F1B";
shapes = (
{
closed = 1;
nodes = (
(292,-10,o),
(331,16,o),
(359,58,c),
(363,58,l),
(391,16,o),
(430,-10,o),
(495,-10,cs),
(597,-10,o),
(644,54,o),
(644,157,cs),
(644,714,l),
(556,714,l),
(556,146,ls),
(556,88,o),
(532,63,o),
(482,63,cs),
(422,63,o),
(404,98,o),
(404,162,cs),
(404,329,l),
(318,329,l),
(318,162,ls),
(318,98,o),
(300,63,o),
(240,63,cs),
(190,63,o),
(166,88,o),
(166,146,cs),
(166,445,ls),
(166,477,o),
(183,488,o),
(205,488,cs),
(216,488,o),
(229,485,o),
(241,482,c),
(254,544,l),
(229,553,o),
(204,558,o),
(182,558,cs),
(117,558,o),
(78,516,o),
(78,442,cs),
(78,157,ls),
(78,54,o),
(125,-10,o),
(227,-10,cs)
);
}
);
width = 726;
},
{
anchors = (
{
name = bottom;
pos = (641,0);
},
{
name = top;
pos = (324,536);
},
{
name = topright;
pos = (435,536);
}
);
layerId = "E5D3352E-10FF-4C03-AD9F-F95B1FD01257";
shapes = (
{
closed = 1;
nodes = (
(271,-10,o),
(323,12,o),
(346,44,c),
(348,44,l),
(374,11,o),
(428,-10,o),
(489,-10,cs),
(604,-10,o),
(651,66,o),
(651,171,cs),
(651,714,l),
(469,714,l),
(469,161,ls),
(469,143,o),
(460,134,o),
(444,134,cs),
(428,134,o),
(419,143,o),
(419,161,cs),
(419,329,l),
(277,329,l),
(277,161,ls),
(277,143,o),
(268,134,o),
(251,134,cs),
(235,134,o),
(227,143,o),
(227,161,cs),
(227,382,ls),
(227,406,o),
(243,419,o),
(265,419,cs),
(277,419,o),
(290,415,o),
(300,411,c),
(327,533,l),
(289,550,o),
(241,563,o),
(198,563,cs),
(102,563,o),
(45,500,o),
(45,401,cs),
(45,178,ls),
(45,64,o),
(103,-10,o),
(212,-10,cs)
);
}
);
width = 701;
},
{
anchors = (
{
name = bottom;
pos = (419,0);
},
{
name = top;
pos = (247,536);
},
{
name = topright;
pos = (348,536);
}
);
layerId = "009F2F33-BFE3-455D-BDCF-6F386AA465CF";
shapes = (
{
closed = 1;
nodes = (
(190,-10,o),
(224,12,o),
(242,70,c),
(243,70,l),
(261,12,o),
(295,-10,o),
(336,-10,cs),
(398,-10,o),
(426,42,o),
(426,144,cs),
(426,745,l),
(399,745,l),
(399,140,ls),
(399,51,o),
(380,12,o),
(333,12,cs),
(279,12,o),
(255,65,o),
(255,137,cs),
(255,307,l),
(230,307,l),
(230,137,ls),
(230,65,o),
(206,12,o),
(152,12,cs),
(105,12,o),
(86,51,o),
(86,140,cs),
(86,467,ls),
(86,513,o),
(97,532,o),
(130,532,cs),
(147,532,o),
(160,527,o),
(173,518,c),
(180,540,l),
(166,550,o),
(150,556,o),
(128,556,cs),
(85,556,o),
(59,533,o),
(59,467,cs),
(59,144,ls),
(59,42,o),
(87,-10,o),
(149,-10,cs)
);
}
);
width = 485;
},
{
anchors = (
{
name = bottom;
pos = (440,0);
},
{
name = top;
pos = (241,536);
},
{
name = topright;
pos = (333,536);
}
);
layerId = "AA55D700-EA4F-438C-81A6-FEFC4FC5520F";
shapes = (
{
closed = 1;
nodes = (
(196,-10,o),
(227,15,o),
(245,60,c),
(247,60,l),
(265,15,o),
(296,-10,o),
(341,-10,cs),
(414,-10,o),
(447,54,o),
(447,157,cs),
(447,718,l),
(364,718,l),
(364,147,ls),
(364,85,o),
(351,57,o),
(323,57,cs),
(292,57,o),
(281,94,o),
(281,159,cs),
(281,326,l),
(211,326,l),
(211,159,ls),
(211,93,o),
(200,57,o),
(168,57,cs),
(140,57,o),
(128,86,o),
(128,147,cs),
(128,446,ls),
(128,481,o),
(139,494,o),
(158,494,cs),
(168,494,o),
(179,490,o),
(187,486,c),
(200,543,l),
(180,552,o),
(153,558,o),
(132,558,cs),
(76,558,o),
(45,516,o),
(45,444,cs),
(45,157,ls),
(45,54,o),
(81,-10,o),
(152,-10,cs)
);
}
);
width = 495;
},
{
anchors = (
{
name = bottom;
pos = (528,0);
},
{
name = top;
pos = (270,536);
},
{
name = topright;
pos = (377,536);
}
);
layerId = "71F2606D-B934-4F95-8EC7-C80FA20C45E9";
shapes = (
{
closed = 1;
nodes = (
(233,-10,o),
(280,13,o),
(298,48,c),
(302,48,l),
(320,13,o),
(367,-10,o),
(416,-10,cs),
(502,-10,o),
(552,60,o),
(552,172,cs),
(552,714,l),
(399,714,l),
(399,149,ls),
(399,126,o),
(392,114,o),
(379,114,cs),
(367,114,o),
(359,125,o),
(359,149,cs),
(359,329,l),
(241,329,l),
(241,149,ls),
(241,125,o),
(233,114,o),
(221,114,cs),
(208,114,o),
(201,126,o),
(201,149,cs),
(201,401,ls),
(201,427,o),
(214,440,o),
(232,440,cs),
(241,440,o),
(252,436,o),
(259,432,c),
(282,537,l),
(251,552,o),
(210,563,o),
(175,563,cs),
(95,563,o),
(48,506,o),
(48,414,cs),
(48,172,ls),
(48,60,o),
(98,-10,o),
(184,-10,cs)
);
}
);
width = 604;
}
);
unicode = 3741;
},
{
glyphname = "phoPhu-lao";
lastChange = "2023-03-23 08:29:35 +0000";
layers = (
{
anchors = (
{
name = bottom;
pos = (599,0);
},
{
name = top;
pos = (348,536);
},
{
name = topright;
pos = (609,536);
}
);
layerId = "64BC062E-13E4-450B-B24E-D8A474022433";
shapes = (
{
closed = 1;
nodes = (
(289,-10,o),
(325,30,o),
(346,83,c),
(348,83,l),
(369,30,o),
(405,-10,o),
(478,-10,cs),
(560,-10,o),
(609,41,o),
(609,147,cs),
(609,548,l),
(583,548,l),
(583,143,ls),
(583,52,o),
(543,12,o),
(478,12,cs),
(399,12,o),
(360,69,o),
(360,149,cs),
(360,548,l),
(334,548,l),
(334,149,ls),
(334,69,o),
(295,12,o),
(216,12,cs),
(151,12,o),
(111,52,o),
(111,143,cs),
(111,548,l),
(85,548,l),
(85,147,ls),
(85,41,o),
(134,-10,o),
(216,-10,cs)
);
}
);
width = 694;
},
{
anchors = (
{
name = bottom;
pos = (642,0);
},
{
name = top;
pos = (366,536);
},
{
name = topright;
pos = (652,536);
}
);
hints = (
{
horizontal = 1;
origin = (0,33);
target = (0,24);
type = Stem;
},
{
horizontal = 1;
origin = (0,29);
target = down;
type = TopGhost;
},
{
origin = (0,30);
target = (0,27);
type = Stem;
},
{
origin = (0,12);
target = (0,9);
type = Stem;
},
{
origin = (0,20);
target = (0,19);
type = Stem;
}
);
layerId = "6449CA81-A7C3-4005-93E5-765657812F1B";
shapes = (
{
closed = 1;
nodes = (
(293,-10,o),
(342,21,o),
(363,62,c),
(369,62,l),
(390,21,o),
(439,-10,o),
(506,-10,cs),
(596,-10,o),
(652,45,o),
(652,158,cs),
(652,548,l),
(564,548,l),
(564,157,ls),
(564,91,o),
(538,63,o),
(489,63,cs),
(436,63,o),
(409,95,o),
(409,160,cs),
(409,548,l),
(323,548,l),
(323,160,ls),
(323,95,o),
(296,63,o),
(243,63,cs),
(194,63,o),
(168,91,o),
(168,157,cs),
(168,548,l),
(80,548,l),
(80,158,ls),
(80,45,o),
(136,-10,o),
(226,-10,cs)
);
}
);
width = 732;
},
{
anchors = (
{
name = bottom;
pos = (661,0);
},
{
name = top;
pos = (358,536);
},
{
name = topright;
pos = (671,536);
}
);
layerId = "E5D3352E-10FF-4C03-AD9F-F95B1FD01257";
shapes = (
{
closed = 1;
nodes = (
(288,-10,o),
(332,23,o),
(355,55,c),
(361,55,l),
(384,23,o),
(428,-10,o),
(499,-10,cs),
(597,-10,o),
(671,54,o),
(671,182,cs),
(671,553,l),
(489,553,l),
(489,159,ls),
(489,145,o),
(478,134,o),
(460,134,cs),
(441,134,o),
(430,145,o),
(430,159,cs),
(430,553,l),
(286,553,l),
(286,159,ls),
(286,145,o),
(275,134,o),
(257,134,cs),
(239,134,o),
(227,145,o),
(227,159,cs),
(227,553,l),
(45,553,l),
(45,182,ls),
(45,54,o),
(119,-10,o),
(217,-10,cs)
);
}
);
width = 716;
},
{
anchors = (
{
name = bottom;
pos = (425,0);
},
{
name = top;
pos = (246,536);
},
{
name = topright;
pos = (432,536);
}
);
layerId = "009F2F33-BFE3-455D-BDCF-6F386AA465CF";
shapes = (
{
closed = 1;
nodes = (
(205,-10,o),
(231,25,o),
(245,77,c),
(247,77,l),
(261,25,o),
(287,-10,o),
(342,-10,cs),
(402,-10,o),
(432,32,o),
(432,129,cs),
(432,548,l),
(405,548,l),
(405,126,ls),
(405,47,o),
(383,12,o),
(341,12,cs),
(287,12,o),
(259,69,o),
(259,149,cs),
(259,548,l),
(233,548,l),
(233,149,ls),
(233,69,o),
(205,12,o),
(151,12,cs),
(109,12,o),
(87,47,o),
(87,126,cs),
(87,548,l),
(60,548,l),
(60,129,ls),
(60,32,o),
(90,-10,o),
(150,-10,cs)
);
}
);
width = 492;
},
{
anchors = (
{
name = bottom;
pos = (450,0);
},
{
name = top;
pos = (252,536);
},
{
name = topright;
pos = (457,536);
}
);
layerId = "AA55D700-EA4F-438C-81A6-FEFC4FC5520F";
shapes = (
{
closed = 1;
nodes = (
(203,-10,o),
(234,22,o),
(250,65,c),
(254,65,l),
(270,22,o),
(301,-10,o),
(350,-10,cs),
(414,-10,o),
(458,45,o),
(458,157,cs),
(458,548,l),
(375,548,l),
(375,155,ls),
(375,86,o),
(360,57,o),
(333,57,cs),
(303,57,o),
(288,92,o),
(288,159,cs),
(288,548,l),
(216,548,l),
(216,159,ls),
(216,92,o),
(201,57,o),
(171,57,cs),
(144,57,o),
(129,86,o),
(129,155,cs),
(129,548,l),
(46,548,l),
(46,157,ls),
(46,45,o),
(90,-10,o),
(154,-10,cs)
);
}
);
width = 504;
},
{
anchors = (
{
name = bottom;
pos = (545,0);
},
{
name = top;
pos = (315,536);
},
{
name = topright;
pos = (584,536);
}
);
layerId = "71F2606D-B934-4F95-8EC7-C80FA20C45E9";
shapes = (
{
closed = 1;
nodes = (
(249,-10,o),
(295,19,o),
(314,57,c),
(318,57,l),
(337,19,o),
(383,-10,o),
(441,-10,cs),
(525,-10,o),
(584,51,o),
(584,175,cs),
(584,553,l),
(431,553,l),
(431,155,ls),
(431,129,o),
(422,114,o),
(406,114,cs),
(390,114,o),
(381,129,o),
(381,155,cs),
(381,553,l),
(251,553,l),
(251,155,ls),
(251,129,o),
(242,114,o),
(226,114,cs),
(210,114,o),
(201,129,o),
(201,155,cs),
(201,553,l),
(48,553,l),
(48,175,ls),
(48,51,o),
(107,-10,o),
(191,-10,cs)
);
}
);
width = 632;
}
);
unicode = 3742;
},
{
glyphname = "foFai-lao";
lastChange = "2023-03-23 08:43:13 +0000";
layers = (
{
anchors = (
{
name = bottom;
pos = (599,0);
},
{
name = top;
pos = (348,536);
},
{
name = topright;
pos = (500,536);
}
);
layerId = "64BC062E-13E4-450B-B24E-D8A474022433";
shapes = (
{
closed = 1;
nodes = (
(289,-10,o),
(325,30,o),
(346,83,c),
(348,83,l),
(369,30,o),
(405,-10,o),
(478,-10,cs),
(560,-10,o),
(609,41,o),
(609,147,cs),
(609,745,l),
(583,745,l),
(583,143,ls),
(583,52,o),
(543,12,o),
(478,12,cs),
(399,12,o),
(360,69,o),
(360,149,cs),
(360,548,l),
(334,548,l),
(334,149,ls),
(334,69,o),
(295,12,o),
(216,12,cs),
(151,12,o),
(111,52,o),
(111,143,cs),
(111,548,l),
(85,548,l),
(85,147,ls),
(85,41,o),
(134,-10,o),
(216,-10,cs)
);
}
);
width = 694;
},
{
anchors = (
{
name = bottom;
pos = (642,0);
},
{
name = top;
pos = (366,536);
},
{
name = topright;
pos = (530,536);
}
);
hints = (
{
horizontal = 1;
origin = (0,33);
target = (0,24);
type = Stem;
},
{
horizontal = 1;
origin = (0,29);
target = down;
type = TopGhost;
},
{
horizontal = 1;
origin = (0,11);
target = down;
type = TopGhost;
},
{
origin = (0,30);
target = (0,27);
type = Stem;
},
{
origin = (0,12);
target = (0,9);
type = Stem;
}
);
layerId = "6449CA81-A7C3-4005-93E5-765657812F1B";
shapes = (
{
closed = 1;
nodes = (
(293,-10,o),
(342,21,o),
(363,62,c),
(369,62,l),
(390,21,o),
(439,-10,o),
(506,-10,cs),
(596,-10,o),
(652,45,o),
(652,158,cs),
(652,714,l),
(564,714,l),
(564,157,ls),
(564,91,o),
(538,63,o),
(489,63,cs),
(436,63,o),
(409,95,o),
(409,160,cs),
(409,548,l),
(323,548,l),
(323,160,ls),
(323,95,o),
(296,63,o),
(243,63,cs),
(194,63,o),
(168,91,o),
(168,157,cs),
(168,548,l),
(80,548,l),
(80,158,ls),
(80,45,o),
(136,-10,o),
(226,-10,cs)
);
}
);
width = 734;
},
{
anchors = (
{
name = bottom;
pos = (661,0);
},
{
name = top;
pos = (328,536);
},
{
name = topright;
pos = (455,536);
}
);
layerId = "E5D3352E-10FF-4C03-AD9F-F95B1FD01257";
shapes = (
{
closed = 1;
nodes = (
(288,-10,o),
(332,23,o),
(355,55,c),
(361,55,l),
(384,23,o),
(428,-10,o),
(499,-10,cs),
(597,-10,o),
(671,54,o),
(671,182,cs),
(671,714,l),
(489,714,l),
(489,159,ls),
(489,145,o),
(478,134,o),
(460,134,cs),
(441,134,o),
(430,145,o),
(430,159,cs),
(430,553,l),
(286,553,l),
(286,159,ls),
(286,145,o),
(275,134,o),
(257,134,cs),
(239,134,o),
(227,145,o),
(227,159,cs),
(227,553,l),
(45,553,l),
(45,182,ls),
(45,54,o),
(119,-10,o),
(217,-10,cs)
);
}
);
width = 721;
},
{
anchors = (
{
name = bottom;
pos = (425,0);
},
{
name = top;
pos = (246,536);
},
{
name = topright;
pos = (354,536);
}
);
layerId = "009F2F33-BFE3-455D-BDCF-6F386AA465CF";
shapes = (
{
closed = 1;
nodes = (
(205,-10,o),
(231,25,o),
(245,77,c),
(247,77,l),
(261,25,o),
(287,-10,o),
(342,-10,cs),
(402,-10,o),
(432,32,o),
(432,129,cs),
(432,745,l),
(405,745,l),
(405,126,ls),
(405,47,o),
(383,12,o),
(341,12,cs),
(287,12,o),
(259,69,o),
(259,149,cs),
(259,548,l),
(233,548,l),
(233,149,ls),
(233,69,o),
(205,12,o),
(151,12,cs),
(109,12,o),
(87,47,o),
(87,126,cs),
(87,548,l),
(60,548,l),
(60,129,ls),
(60,32,o),
(90,-10,o),
(150,-10,cs)
);
}
);
width = 492;
},
{
anchors = (
{
name = bottom;
pos = (450,0);
},
{
name = top;
pos = (242,536);
},
{
name = topright;
pos = (344,536);
}
);
layerId = "AA55D700-EA4F-438C-81A6-FEFC4FC5520F";
shapes = (
{
closed = 1;
nodes = (
(203,-10,o),
(234,22,o),
(250,65,c),
(254,65,l),
(270,22,o),
(301,-10,o),
(350,-10,cs),
(414,-10,o),
(458,45,o),
(458,157,cs),
(458,718,l),
(375,718,l),
(375,155,ls),
(375,86,o),
(360,57,o),
(333,57,cs),
(303,57,o),
(288,92,o),
(288,159,cs),
(288,548,l),
(216,548,l),
(216,159,ls),
(216,92,o),
(201,57,o),
(171,57,cs),
(144,57,o),
(129,86,o),
(129,155,cs),
(129,548,l),
(46,548,l),
(46,157,ls),
(46,45,o),
(90,-10,o),
(154,-10,cs)
);
}
);
width = 506;
},
{
anchors = (
{
name = bottom;
pos = (577,0);
},
{
name = top;
pos = (304,536);
},
{
name = topright;
pos = (409,536);
}
);
layerId = "71F2606D-B934-4F95-8EC7-C80FA20C45E9";
shapes = (
{
closed = 1;
nodes = (
(249,-10,o),
(295,19,o),
(314,57,c),
(318,57,l),
(337,19,o),
(383,-10,o),
(441,-10,cs),
(525,-10,o),
(584,51,o),
(584,175,cs),
(584,714,l),
(431,714,l),
(431,155,ls),
(431,129,o),
(422,114,o),
(406,114,cs),
(390,114,o),
(381,129,o),
(381,155,cs),
(381,553,l),
(251,553,l),
(251,155,ls),
(251,129,o),
(242,114,o),
(226,114,cs),
(210,114,o),
(201,129,o),
(201,155,cs),
(201,553,l),
(48,553,l),
(48,175,ls),
(48,51,o),
(107,-10,o),
(191,-10,cs)
);
}
);
width = 636;
}
);
metricLeft = "=phoPhu-lao";
unicode = 3743;
},
{
glyphname = "bha-lao";
lastChange = "2023-03-23 08:22:12 +0000";
layers = (
{
anchors = (
{
name = bottom;
pos = (665,0);
},
{
name = top;
pos = (492,536);
},
{
name = topright;
pos = (655,536);
}
);
layerId = "64BC062E-13E4-450B-B24E-D8A474022433";
shapes = (
{
closed = 1;
nodes = (
(278,-10,o),
(306,19,o),
(306,89,cs),
(306,359,ls),
(306,425,o),
(378,531,o),
(508,531,cs),
(619,531,o),
(639,454,o),
(639,366,cs),
(639,0,l),
(665,0,l),
(665,365,ls),
(665,492,o),
(618,556,o),
(507,556,cs),
(395,556,o),
(336,493,o),
(306,435,c),
(305,435,l),
(300,512,o),
(247,556,o),
(171,556,cs),
(91,556,o),
(38,509,o),
(38,428,cs),
(38,413,l),
(64,413,l),
(64,427,ls),
(64,493,o),
(106,531,o),
(172,531,cs),
(238,531,o),
(280,492,o),
(280,423,cs),
(280,85,ls),
(280,30,o),
(262,15,o),
(227,15,cs),
(212,15,o),
(202,18,o),
(189,22,c),
(184,-2,l),
(197,-7,o),
(213,-10,o),
(229,-10,cs)
);
}
);
width = 750;
},
{
anchors = (
{
name = bottom;
pos = (678,0);
},
{
name = top;
pos = (484,536);
},
{
name = topright;
pos = (668,536);
}
);
hints = (
{
horizontal = 1;
origin = (0,45);
target = (0,38);
type = Stem;
},
{
horizontal = 1;
origin = (0,31);
target = (0,22);
type = Stem;
},
{
horizontal = 1;
origin = (0,10);
target = up;
type = BottomGhost;
},
{
origin = (0,10);
target = (0,11);
type = Stem;
},
{
origin = (0,34);
target = (0,3);
type = Stem;
}
);
layerId = "6449CA81-A7C3-4005-93E5-765657812F1B";
shapes = (
{
closed = 1;
nodes = (
(303,-10,o),
(341,33,o),
(341,106,cs),
(341,357,ls),
(341,459,o),
(411,485,o),
(472,485,cs),
(557,485,o),
(590,434,o),
(590,347,cs),
(590,0,l),
(678,0,l),
(678,353,ls),
(678,489,o),
(610,558,o),
(489,558,cs),
(426,558,o),
(368,541,o),
(324,486,c),
(321,486,l),
(295,534,o),
(239,558,o),
(184,558,cs),
(94,558,o),
(35,502,o),
(35,417,cs),
(35,392,l),
(119,392,l),
(119,415,ls),
(119,459,o),
(144,485,o),
(186,485,cs),
(228,485,o),
(253,459,o),
(253,415,cs),
(253,102,ls),
(253,71,o),
(236,60,o),
(213,60,cs),
(203,60,o),
(191,62,o),
(179,66,c),
(166,4,l),
(190,-5,o),
(216,-10,o),
(238,-10,cs)
);
}
);
width = 760;
},
{
anchors = (
{
name = bottom;
pos = (768,0);
},
{
name = top;
pos = (525,536);
},
{
name = topright;
pos = (758,536);
}
);
layerId = "E5D3352E-10FF-4C03-AD9F-F95B1FD01257";
shapes = (
{
closed = 1;
nodes = (
(416,-10,o),
(472,43,o),
(472,139,cs),
(472,351,ls),
(472,399,o),
(494,419,o),
(527,419,cs),
(562,419,o),
(576,395,o),
(576,349,cs),
(576,0,l),
(768,0,l),
(768,371,ls),
(768,479,o),
(714,563,o),
(582,563,cs),
(506,563,o),
(451,536,o),
(414,495,c),
(411,495,l),
(373,539,o),
(310,563,o),
(229,563,cs),
(102,563,o),
(19,490,o),
(19,379,cs),
(19,347,l),
(178,347,l),
(178,369,ls),
(178,405,o),
(197,425,o),
(229,425,cs),
(261,425,o),
(280,405,o),
(280,369,cs),
(280,160,ls),
(280,142,o),
(273,134,o),
(254,134,cs),
(241,134,o),
(229,138,o),
(219,142,c),
(192,20,l),
(230,0,o),
(287,-10,o),
(326,-10,cs)
);
}
);
width = 813;
},
{
anchors = (
{
name = bottom;
pos = (471,0);
},
{
name = top;
pos = (347,536);
},
{
name = topright;
pos = (464,536);
}
);
layerId = "009F2F33-BFE3-455D-BDCF-6F386AA465CF";
shapes = (
{
closed = 1;
nodes = (
(202,-10,o),
(223,19,o),
(223,89,cs),
(223,360,ls),
(223,455,o),
(275,534,o),
(348,534,cs),
(407,534,o),
(444,476,o),
(444,376,cs),
(444,0,l),
(471,0,l),
(471,377,ls),
(471,496,o),
(418,556,o),
(352,556,cs),
(290,556,o),
(244,512,o),
(222,456,c),
(221,456,l),
(221,519,o),
(186,556,o),
(126,556,cs),
(65,556,o),
(30,515,o),
(30,445,cs),
(30,431,l),
(56,431,l),
(56,445,ls),
(56,501,o),
(81,534,o),
(126,534,cs),
(172,534,o),
(196,501,o),
(196,445,cs),
(196,85,ls),
(196,30,o),
(183,15,o),
(161,15,cs),
(151,15,o),
(144,18,o),
(135,22,c),
(130,-2,l),
(141,-7,o),
(153,-10,o),
(165,-10,cs)
);
}
);
width = 530;
},
{
anchors = (
{
name = bottom;
pos = (502,0);
},
{
name = top;
pos = (354,536);
},
{
name = topright;
pos = (495,536);
}
);
layerId = "AA55D700-EA4F-438C-81A6-FEFC4FC5520F";
shapes = (
{
closed = 1;
nodes = (
(246,-10,o),
(276,33,o),
(276,104,cs),
(276,357,ls),
(276,455,o),
(311,491,o),
(353,491,cs),
(401,491,o),
(416,442,o),
(416,354,cs),
(416,0,l),
(502,0,l),
(502,360,ls),
(502,496,o),
(462,558,o),
(371,558,cs),
(327,558,o),
(289,544,o),
(261,494,c),
(259,494,l),
(238,537,o),
(195,558,o),
(141,558,cs),
(69,558,o),
(21,508,o),
(21,431,cs),
(21,410,l),
(96,410,l),
(96,431,ls),
(96,469,o),
(113,491,o),
(143,491,cs),
(173,491,o),
(190,469,o),
(190,431,cs),
(190,100,ls),
(190,65,o),
(181,55,o),
(164,55,cs),
(156,55,o),
(148,57,o),
(140,61,c),
(128,4,l),
(148,-5,o),
(175,-10,o),
(193,-10,cs)
);
}
);
width = 548;
},
{
anchors = (
{
name = bottom;
pos = (620,0);
},
{
name = top;
pos = (422,536);
},
{
name = topright;
pos = (612,536);
}
);
layerId = "71F2606D-B934-4F95-8EC7-C80FA20C45E9";
shapes = (
{
closed = 1;
nodes = (
(340,-9,o),
(386,41,o),
(386,131,cs),
(386,354,ls),
(386,416,o),
(400,439,o),
(422,439,cs),
(448,439,o),
(458,409,o),
(458,349,cs),
(458,0,l),
(620,0,l),
(620,367,ls),
(620,483,o),
(578,563,o),
(471,563,cs),
(405,563,o),
(359,533,o),
(328,480,c),
(326,480,l),
(300,534,o),
(249,563,o),
(178,563,cs),
(72,563,o),
(11,497,o),
(11,382,cs),
(11,365,l),
(144,365,l),
(144,382,ls),
(144,423,o),
(157,444,o),
(184,444,cs),
(211,444,o),
(224,423,o),
(224,382,cs),
(224,144,ls),
(224,122,o),
(220,114,o),
(204,114,cs),
(194,114,o),
(185,117,o),
(177,121,c),
(154,17,l),
(186,0,o),
(234,-9,o),
(266,-9,cs)
);
}
);
width = 668;
}
);
metricRight = "=koKai-lao";
unicode = 3744;
},
{
glyphname = "moMa-lao";
lastChange = "2023-03-23 08:29:41 +0000";
layers = (
{
anchors = (
{
name = bottom;
pos = (504,0);
},
{
name = top;
pos = (329,536);
},
{
name = topright;
pos = (514,536);
}
);
layerId = "64BC062E-13E4-450B-B24E-D8A474022433";
shapes = (
{
closed = 1;
nodes = (
(138,-10,o),
(160,22,o),
(160,92,cs),
(160,127,l),
(142,107,l),
(161,107,l),
(190,36,o),
(262,-10,o),
(345,-10,cs),
(439,-10,o),
(514,50,o),
(514,169,cs),
(514,548,l),
(488,548,l),
(488,170,ls),
(488,70,o),
(433,12,o),
(343,12,cs),
(235,12,o),
(160,96,o),
(160,196,cs),
(160,548,l),
(134,548,l),
(134,85,ls),
(134,30,o),
(116,14,o),
(81,14,cs),
(66,14,o),
(56,17,o),
(43,21,c),
(38,-2,l),
(51,-7,o),
(67,-10,o),
(83,-10,cs)
);
}
);
width = 599;
},
{
anchors = (
{
name = bottom;
pos = (522,0);
},
{
name = top;
pos = (316,536);
},
{
name = topright;
pos = (532,536);
}
);
hints = (
{
horizontal = 1;
origin = (0,33);
target = (0,26);
type = Stem;
},
{
horizontal = 1;
origin = (0,22);
target = down;
type = TopGhost;
},
{
horizontal = 1;
origin = (0,8);
target = (0,17);
type = Stem;
},
{
origin = (0,14);
target = (0,11);
type = Stem;
},
{
origin = (0,22);
target = (0,21);
type = Stem;
}
);
layerId = "6449CA81-A7C3-4005-93E5-765657812F1B";
shapes = (
{
closed = 1;
nodes = (
(151,-10,o),
(184,15,o),
(184,62,cs),
(184,86,l),
(149,49,l),
(186,49,l),
(227,6,o),
(275,-10,o),
(335,-10,cs),
(461,-10,o),
(532,59,o),
(532,195,cs),
(532,548,l),
(444,548,l),
(444,201,ls),
(444,114,o),
(405,63,o),
(320,63,cs),
(260,63,o),
(195,89,o),
(195,191,cs),
(195,548,l),
(107,548,l),
(107,102,ls),
(107,71,o),
(90,60,o),
(67,60,cs),
(57,60,o),
(45,62,o),
(33,66,c),
(20,4,l),
(42,-4,o),
(68,-10,o),
(95,-10,cs)
);
}
);
width = 614;
},
{
anchors = (
{
name = bottom;
pos = (581,0);
},
{
name = top;
pos = (345,536);
},
{
name = topright;
pos = (591,536);
}
);
layerId = "E5D3352E-10FF-4C03-AD9F-F95B1FD01257";
shapes = (
{
closed = 1;
nodes = (
(200,-10,o),
(245,22,o),
(245,77,cs),
(245,96,l),
(210,65,l),
(246,65,l),
(282,16,o),
(327,-10,o),
(399,-10,cs),
(532,-10,o),
(591,80,o),
(591,189,cs),
(591,553,l),
(399,553,l),
(399,204,ls),
(399,156,o),
(382,134,o),
(346,134,cs),
(311,134,o),
(295,155,o),
(295,202,cs),
(295,553,l),
(103,553,l),
(103,160,ls),
(103,142,o),
(96,134,o),
(77,134,cs),
(64,134,o),
(52,138,o),
(42,142,c),
(15,20,l),
(47,1,o),
(87,-10,o),
(129,-10,cs)
);
}
);
width = 636;
},
{
anchors = (
{
name = bottom;
pos = (379,0);
},
{
name = top;
pos = (240,536);
},
{
name = topright;
pos = (386,536);
}
);
layerId = "009F2F33-BFE3-455D-BDCF-6F386AA465CF";
shapes = (
{
closed = 1;
nodes = (
(99,-10,o),
(117,21,o),
(117,92,cs),
(117,127,l),
(102,107,l),
(118,107,l),
(141,39,o),
(191,-10,o),
(256,-10,cs),
(328,-10,o),
(386,50,o),
(386,169,cs),
(386,548,l),
(359,548,l),
(359,170,ls),
(359,70,o),
(318,12,o),
(252,12,cs),
(174,12,o),
(119,96,o),
(119,196,cs),
(119,548,l),
(92,548,l),
(92,85,ls),
(92,30,o),
(78,14,o),
(53,14,cs),
(42,14,o),
(34,17,o),
(25,21,c),
(20,-2,l),
(31,-7,o),
(44,-10,o),
(57,-10,cs)
);
}
);
width = 445;
},
{
anchors = (
{
name = bottom;
pos = (398,0);
},
{
name = top;
pos = (244,536);
},
{
name = topright;
pos = (405,536);
}
);
layerId = "AA55D700-EA4F-438C-81A6-FEFC4FC5520F";
shapes = (
{
closed = 1;
nodes = (
(120,-10,o),
(148,15,o),
(148,62,cs),
(148,68,l),
(132,49,l),
(150,49,l),
(179,8,o),
(207,-10,o),
(255,-10,cs),
(349,-10,o),
(405,59,o),
(405,195,cs),
(405,548,l),
(319,548,l),
(319,197,ls),
(319,107,o),
(287,63,o),
(238,63,cs),
(201,63,o),
(158,89,o),
(158,191,cs),
(158,548,l),
(72,548,l),
(72,102,ls),
(72,71,o),
(59,60,o),
(46,60,cs),
(40,60,o),
(30,62,o),
(22,66,c),
(9,4,l),
(29,-4,o),
(53,-10,o),
(75,-10,cs)
);
}
);
width = 451;
},
{
anchors = (
{
name = bottom;
pos = (467,0);
},
{
name = top;
pos = (276,536);
},
{
name = topright;
pos = (475,536);
}
);
layerId = "71F2606D-B934-4F95-8EC7-C80FA20C45E9";
shapes = (
{
closed = 1;
nodes = (
(161,-10,o),
(198,20,o),
(198,72,cs),
(198,92,l),
(170,60,l),
(199,60,l),
(227,12,o),
(263,-10,o),
(321,-10,cs),
(429,-10,o),
(475,74,o),
(475,191,cs),
(475,553,l),
(313,553,l),
(313,203,ls),
(313,144,o),
(301,114,o),
(276,114,cs),
(250,114,o),
(241,136,o),
(241,199,cs),
(241,553,l),
(79,553,l),
(79,143,ls),
(79,121,o),
(75,112,o),
(60,112,cs),
(49,112,o),
(40,116,o),
(32,120,c),
(9,15,l),
(35,-1,o),
(69,-10,o),
(103,-10,cs)
);
}
);
width = 523;
}
);
unicode = 3745;
},
{
glyphname = "yoYa-lao";
lastChange = "2023-03-23 08:43:19 +0000";
layers = (
{
anchors = (
{
name = bottom;
pos = (472,0);
},
{
name = top;
pos = (292,536);
},
{
name = topright;
pos = (373,536);
}
);
layerId = "64BC062E-13E4-450B-B24E-D8A474022433";
shapes = (
{
closed = 1;
nodes = (
(393,-10,o),
(482,45,o),
(482,175,cs),
(482,745,l),
(456,745,l),
(456,169,ls),
(456,52,o),
(367,12,o),
(275,12,cs),
(182,12,o),
(95,52,o),
(95,155,cs),
(95,234,o),
(146,279,o),
(228,279,cs),
(267,279,l),
(267,301,l),
(228,301,ls),
(167,301,o),
(92,332,o),
(92,423,cs),
(92,495,o),
(140,534,o),
(209,534,cs),
(235,534,o),
(265,528,o),
(279,523,c),
(284,544,l),
(264,551,o),
(233,556,o),
(206,556,cs),
(123,556,o),
(65,508,o),
(65,422,cs),
(65,338,o),
(120,305,o),
(156,291,c),
(156,287,l),
(124,274,o),
(68,244,o),
(68,156,cs),
(68,50,o),
(148,-10,o),
(273,-10,cs)
);
}
);
width = 567;
},
{
anchors = (
{
name = bottom;
pos = (527,0);
},
{
name = top;
pos = (297,536);
},
{
name = topright;
pos = (415,536);
}
);
hints = (
{
horizontal = 1;
origin = (0,43);
target = (0,8);
type = Stem;
},
{
horizontal = 1;
origin = (0,23);
target = (0,30);
type = Stem;
},
{
horizontal = 1;
origin = (0,4);
target = down;
type = TopGhost;
},
{
origin = (0,5);
target = (0,2);
type = Stem;
},
{
origin = (0,33);
target = (0,20);
type = Stem;
}
);
layerId = "6449CA81-A7C3-4005-93E5-765657812F1B";
shapes = (
{
closed = 1;
nodes = (
(454,-10,o),
(537,50,o),
(537,189,cs),
(537,714,l),
(449,714,l),
(449,179,ls),
(449,97,o),
(403,63,o),
(305,63,cs),
(198,63,o),
(156,104,o),
(156,169,cs),
(156,234,o),
(197,263,o),
(275,263,cs),
(324,263,l),
(324,328,l),
(275,328,ls),
(217,328,o),
(156,344,o),
(156,411,cs),
(156,458,o),
(185,485,o),
(240,485,cs),
(266,485,o),
(291,479,o),
(306,474,c),
(321,542,l),
(301,551,o),
(265,558,o),
(228,558,cs),
(113,558,o),
(68,490,o),
(68,420,cs),
(68,344,o),
(121,308,o),
(162,296,c),
(162,292,l),
(119,286,o),
(68,250,o),
(68,163,cs),
(68,54,o),
(149,-10,o),
(304,-10,cs)
);
}
);
width = 619;
},
{
anchors = (
{
name = bottom;
pos = (545,0);
},
{
name = top;
pos = (217,536);
},
{
name = topright;
pos = (329,536);
}
);
layerId = "E5D3352E-10FF-4C03-AD9F-F95B1FD01257";
shapes = (
{
closed = 1;
nodes = (
(460,-10,o),
(555,53,o),
(555,206,cs),
(555,714,l),
(363,714,l),
(363,195,ls),
(363,159,o),
(332,134,o),
(285,134,cs),
(249,134,o),
(213,148,o),
(213,182,cs),
(213,204,o),
(227,225,o),
(261,225,cs),
(313,225,l),
(313,334,l),
(261,334,ls),
(231,334,o),
(213,351,o),
(213,380,cs),
(213,405,o),
(226,419,o),
(253,419,cs),
(265,419,o),
(283,416,o),
(296,412,c),
(327,544,l),
(292,556,o),
(249,563,o),
(208,563,cs),
(76,563,o),
(25,489,o),
(25,412,cs),
(25,359,o),
(49,307,o),
(112,280,c),
(112,278,l),
(58,258,o),
(25,216,o),
(25,156,cs),
(25,57,o),
(117,-10,o),
(291,-10,cs)
);
}
);
width = 605;
},
{
anchors = (
{
name = bottom;
pos = (338,0);
},
{
name = top;
pos = (205,536);
},
{
name = topright;
pos = (267,536);
}
);
layerId = "009F2F33-BFE3-455D-BDCF-6F386AA465CF";
shapes = (
{
closed = 1;
nodes = (
(284,-10,o),
(345,45,o),
(345,175,cs),
(345,745,l),
(318,745,l),
(318,169,ls),
(318,52,o),
(262,12,o),
(196,12,cs),
(130,12,o),
(75,53,o),
(75,154,cs),
(75,234,o),
(109,279,o),
(166,279,cs),
(195,279,l),
(195,301,l),
(166,301,ls),
(124,301,o),
(73,332,o),
(73,423,cs),
(73,495,o),
(104,534,o),
(151,534,cs),
(169,534,o),
(189,528,o),
(199,523,c),
(204,544,l),
(190,551,o),
(168,556,o),
(147,556,cs),
(85,556,o),
(46,508,o),
(46,422,cs),
(46,338,o),
(84,305,o),
(110,291,c),
(110,287,l),
(86,274,o),
(48,244,o),
(48,156,cs),
(48,50,o),
(104,-10,o),
(196,-10,cs)
);
}
);
width = 404;
},
{
anchors = (
{
name = bottom;
pos = (368,0);
},
{
name = top;
pos = (183,536);
},
{
name = topright;
pos = (261,536);
}
);
layerId = "AA55D700-EA4F-438C-81A6-FEFC4FC5520F";
shapes = (
{
closed = 1;
nodes = (
(312,-10,o),
(375,49,o),
(375,187,cs),
(375,718,l),
(289,718,l),
(289,178,ls),
(289,90,o),
(255,57,o),
(205,57,cs),
(152,57,o),
(119,95,o),
(119,170,cs),
(119,232,o),
(141,265,o),
(182,265,cs),
(216,265,l),
(216,325,l),
(182,325,ls),
(150,325,o),
(119,343,o),
(119,412,cs),
(119,463,o),
(136,491,o),
(168,491,cs),
(182,491,o),
(198,485,o),
(208,480,c),
(222,542,l),
(203,551,o),
(177,558,o),
(150,558,cs),
(69,558,o),
(34,494,o),
(34,416,cs),
(34,349,o),
(60,308,o),
(97,295,c),
(97,291,l),
(65,286,o),
(34,246,o),
(34,165,cs),
(34,53,o),
(94,-10,o),
(205,-10,cs)
);
}
);
width = 423;
},
{
anchors = (
{
name = bottom;
pos = (453,0);
},
{
name = top;
pos = (183,536);
},
{
name = topright;
pos = (285,536);
}
);
layerId = "71F2606D-B934-4F95-8EC7-C80FA20C45E9";
shapes = (
{
closed = 1;
nodes = (
(392,-10,o),
(469,52,o),
(469,201,cs),
(469,714,l),
(307,714,l),
(307,190,ls),
(307,141,o),
(283,114,o),
(246,114,cs),
(223,114,o),
(190,135,o),
(190,178,cs),
(190,213,o),
(199,236,o),
(223,236,cs),
(265,236,l),
(265,332,l),
(223,332,ls),
(201,332,o),
(190,349,o),
(190,389,cs),
(190,421,o),
(200,439,o),
(219,439,cs),
(227,439,o),
(241,435,o),
(251,431,c),
(278,544,l),
(248,556,o),
(213,563,o),
(180,563,cs),
(73,563,o),
(32,490,o),
(32,414,cs),
(32,355,o),
(49,307,o),
(101,285,c),
(101,282,l),
(57,266,o),
(32,226,o),
(32,158,cs),
(32,56,o),
(110,-10,o),
(251,-10,cs)
);
}
);
width = 521;
}
);
unicode = 3746;
},
{
glyphname = "roRot-lao";
lastChange = "2023-03-23 08:29:52 +0000";
layers = (
{
anchors = (
{
name = bottom;
pos = (429,0);
},
{
name = top;
pos = (283,536);
},
{
name = topright;
pos = (459,536);
}
);
layerId = "64BC062E-13E4-450B-B24E-D8A474022433";
shapes = (
{
closed = 1;
nodes = (
(419,-10,o),
(479,56,o),
(479,152,cs),
(479,279,o),
(374,303,o),
(258,329,cs),
(156,352,o),
(93,369,o),
(93,441,cs),
(93,507,o),
(144,534,o),
(247,534,cs),
(318,534,o),
(388,521,o),
(456,498,c),
(456,522,l),
(388,544,o),
(317,556,o),
(246,556,cs),
(126,556,o),
(65,521,o),
(65,441,cs),
(65,347,o),
(150,328,o),
(247,306,cs),
(380,276,o),
(451,255,o),
(451,153,cs),
(451,44,o),
(370,12,o),
(275,12,cs),
(192,12,o),
(93,36,o),
(93,137,cs),
(93,157,o),
(97,172,o),
(102,183,c),
(77,193,l),
(69,178,o),
(65,158,o),
(65,137,cs),
(65,58,o),
(122,-10,o),
(272,-10,cs)
);
}
);
width = 544;
},
{
anchors = (
{
name = bottom;
pos = (508,0);
},
{
name = top;
pos = (306,536);
},
{
name = topright;
pos = (522,536);
}
);
hints = (
{
horizontal = 1;
origin = (0,43);
target = (0,30);
type = Stem;
},
{
horizontal = 1;
origin = (0,11);
target = (0,18);
type = Stem;
},
{
origin = (0,21);
target = (0,8);
type = Stem;
},
{
origin = (0,27);
target = (0,2);
type = Stem;
}
);
layerId = "6449CA81-A7C3-4005-93E5-765657812F1B";
shapes = (
{
closed = 1;
nodes = (
(469,-10,o),
(542,64,o),
(542,161,cs),
(542,285,o),
(422,320,o),
(315,345,cs),
(216,368,o),
(153,380,o),
(153,430,cs),
(153,472,o),
(200,485,o),
(291,485,cs),
(370,485,o),
(440,475,o),
(522,445,c),
(522,517,l),
(451,546,o),
(366,558,o),
(287,558,cs),
(153,558,o),
(68,524,o),
(68,430,cs),
(68,319,o),
(183,302,o),
(294,275,cs),
(394,251,o),
(457,230,o),
(457,159,cs),
(457,87,o),
(391,63,o),
(302,63,cs),
(225,63,o),
(153,81,o),
(153,152,cs),
(153,173,o),
(159,189,o),
(168,199,c),
(100,232,l),
(86,219,o),
(68,194,o),
(68,152,cs),
(68,69,o),
(137,-10,o),
(306,-10,cs)
);
}
);
width = 615;
},
{
anchors = (
{
name = bottom;
pos = (525,0);
},
{
name = top;
pos = (298,536);
},
{
name = topright;
pos = (538,536);
}
);
layerId = "E5D3352E-10FF-4C03-AD9F-F95B1FD01257";
shapes = (
{
closed = 1;
nodes = (
(478,-10,o),
(555,66,o),
(555,180,cs),
(555,309,o),
(458,337,o),
(322,365,cs),
(239,382,o),
(213,385,o),
(213,399,cs),
(213,410,o),
(231,420,o),
(305,420,cs),
(398,420,o),
(472,404,o),
(538,384,c),
(538,521,l),
(469,547,o),
(370,563,o),
(273,563,cs),
(124,563,o),
(25,525,o),
(25,417,cs),
(25,314,o),
(114,287,o),
(204,261,cs),
(319,228,o),
(367,220,o),
(367,178,cs),
(367,151,o),
(346,131,o),
(291,131,cs),
(247,131,o),
(214,144,o),
(214,173,cs),
(214,187,o),
(222,199,o),
(232,206,c),
(78,263,l),
(51,243,o),
(25,210,o),
(25,158,cs),
(25,66,o),
(108,-10,o),
(293,-10,cs)
);
}
);
width = 580;
},
{
anchors = (
{
name = bottom;
pos = (311,0);
},
{
name = top;
pos = (201,536);
},
{
name = topright;
pos = (330,536);
}
);
layerId = "009F2F33-BFE3-455D-BDCF-6F386AA465CF";
shapes = (
{
closed = 1;
nodes = (
(300,-10,o),
(344,56,o),
(344,152,cs),
(344,279,o),
(269,303,o),
(189,329,cs),
(119,352,o),
(74,369,o),
(74,440,cs),
(74,503,o),
(109,534,o),
(182,534,cs),
(228,534,o),
(279,521,o),
(328,498,c),
(328,522,l),
(280,544,o),
(229,556,o),
(178,556,cs),
(94,556,o),
(46,521,o),
(46,441,cs),
(46,347,o),
(110,328,o),
(179,306,cs),
(266,278,o),
(317,256,o),
(317,152,cs),
(317,44,o),
(262,12,o),
(196,12,cs),
(139,12,o),
(74,36,o),
(74,136,cs),
(74,157,o),
(77,172,o),
(81,183,c),
(57,193,l),
(51,178,o),
(46,159,o),
(46,133,cs),
(46,59,o),
(88,-10,o),
(195,-10,cs)
);
}
);
width = 391;
},
{
anchors = (
{
name = bottom;
pos = (351,0);
},
{
name = top;
pos = (209,536);
},
{
name = topright;
pos = (362,536);
}
);
layerId = "AA55D700-EA4F-438C-81A6-FEFC4FC5520F";
shapes = (
{
closed = 1;
nodes = (
(328,-10,o),
(381,62,o),
(381,163,cs),
(381,286,o),
(303,314,o),
(216,344,cs),
(152,366,o),
(118,380,o),
(118,427,cs),
(118,472,o),
(150,491,o),
(210,491,cs),
(260,491,o),
(314,478,o),
(362,448,c),
(362,520,l),
(313,548,o),
(255,558,o),
(202,558,cs),
(100,558,o),
(34,521,o),
(34,426,cs),
(34,323,o),
(113,300,o),
(173,280,cs),
(252,254,o),
(296,234,o),
(296,155,cs),
(296,82,o),
(259,57,o),
(208,57,cs),
(164,57,o),
(118,75,o),
(118,148,cs),
(118,172,o),
(123,187,o),
(129,197,c),
(60,227,l),
(47,214,o),
(34,190,o),
(34,150,cs),
(34,68,o),
(88,-10,o),
(210,-10,cs)
);
}
);
width = 411;
},
{
anchors = (
{
name = bottom;
pos = (437,0);
},
{
name = top;
pos = (253,536);
},
{
name = topright;
pos = (447,536);
}
);
layerId = "71F2606D-B934-4F95-8EC7-C80FA20C45E9";
shapes = (
{
closed = 1;
nodes = (
(399,-10,o),
(461,65,o),
(461,175,cs),
(461,303,o),
(385,332,o),
(273,360,cs),
(199,379,o),
(191,384,o),
(191,410,cs),
(191,429,o),
(207,440,o),
(259,440,cs),
(337,440,o),
(396,425,o),
(447,402,c),
(447,521,l),
(392,548,o),
(312,563,o),
(232,563,cs),
(113,563,o),
(32,526,o),
(32,422,cs),
(32,318,o),
(98,291,o),
(171,266,cs),
(274,231,o),
(302,220,o),
(302,173,cs),
(302,133,o),
(289,111,o),
(249,111,cs),
(215,111,o),
(192,126,o),
(192,166,cs),
(192,183,o),
(197,195,o),
(206,204,c),
(76,254,l),
(53,236,o),
(32,205,o),
(32,156,cs),
(32,67,o),
(100,-10,o),
(249,-10,cs)
);
}
);
width = 492;
}
);
unicode = 3747;
},
